<?xml version="1.0" encoding="UTF-8" standalone="no"?><svg xmlns="http://www.w3.org/2000/svg" xmlns:xlink="http://www.w3.org/1999/xlink" contentStyleType="text/css" height="1495px" preserveAspectRatio="none" style="width:2008px;height:1495px;background:#FFFFFF;" version="1.1" viewBox="0 0 2008 1495" width="2008px" zoomAndPan="magnify"><defs/><g><!--class CorsConfiguration--><g id="elem_CorsConfiguration"><rect codeLine="5" fill="#FFFFFF" height="777.3594" id="CorsConfiguration" rx="2.5" ry="2.5" style="stroke:#000000;stroke-width:1.0;" width="628" x="12" y="546"/><ellipse cx="257.25" cy="560" fill="#FFFFFF" rx="9" ry="9" style="stroke:#000000;stroke-width:1.0;"/><path d="M259.5938,555.6719 C258.6563,555.2344 258.0625,555.0938 257.1875,555.0938 C254.5625,555.0938 252.5625,557.1719 252.5625,559.8906 L252.5625,561.0156 C252.5625,563.5938 254.6719,565.4844 257.5625,565.4844 C258.7813,565.4844 259.9375,565.1875 260.6875,564.6406 C261.2656,564.2344 261.5938,563.7813 261.5938,563.3906 C261.5938,562.9375 261.2031,562.5469 260.7344,562.5469 C260.5156,562.5469 260.3125,562.625 260.125,562.8125 C259.6719,563.2969 259.6719,563.2969 259.4844,563.3906 C259.0625,563.6563 258.375,563.7813 257.6094,563.7813 C255.5625,563.7813 254.2656,562.6875 254.2656,560.9844 L254.2656,559.8906 C254.2656,558.1094 255.5156,556.7969 257.25,556.7969 C257.8281,556.7969 258.4375,556.9531 258.9063,557.2031 C259.3906,557.4844 259.5625,557.7031 259.6563,558.1094 C259.7188,558.5156 259.75,558.6406 259.8906,558.7656 C260.0313,558.9063 260.2656,559.0156 260.4844,559.0156 C260.75,559.0156 261.0156,558.875 261.1875,558.6563 C261.2969,558.5 261.3281,558.3125 261.3281,557.8906 L261.3281,556.4688 C261.3281,556.0313 261.3125,555.9063 261.2188,555.75 C261.0625,555.4844 260.7813,555.3438 260.4844,555.3438 C260.1875,555.3438 259.9844,555.4375 259.7656,555.75 L259.5938,555.6719 Z " fill="#000000"/><text fill="#000000" font-family="Verdana" font-size="14" lengthAdjust="spacing" textLength="130" x="274.75" y="564.8467">CorsConfiguration</text><line style="stroke:#000000;stroke-width:1.0;" x1="13" x2="639" y1="574" y2="574"/><rect fill="none" height="6" style="stroke:#000000;stroke-width:1.0;" width="6" x="20" y="584.6484"/><text fill="#000000" font-family="Verdana" font-size="14" lengthAdjust="spacing" textLength="109" x="30" y="590.9951">maxAge: Long?</text><rect fill="none" height="6" style="stroke:#000000;stroke-width:1.0;" width="6" x="20" y="600.9453"/><text fill="#000000" font-family="Verdana" font-size="14" lengthAdjust="spacing" textLength="258" x="30" y="607.292">DEFAULT_PERMIT_ALL: List&lt;String&gt;</text><rect fill="none" height="6" style="stroke:#000000;stroke-width:1.0;" width="6" x="20" y="617.2422"/><text fill="#000000" font-family="Verdana" font-size="14" lengthAdjust="spacing" textLength="206" x="30" y="623.5889">ALL_PATTERN: OriginPattern</text><rect fill="none" height="6" style="stroke:#000000;stroke-width:1.0;" width="6" x="20" y="633.5391"/><text fill="#000000" font-family="Verdana" font-size="14" lengthAdjust="spacing" textLength="220" x="30" y="639.8857">allowedHeaders: List&lt;String&gt;?</text><ellipse cx="23" cy="652.8359" fill="none" rx="3" ry="3" style="stroke:#000000;stroke-width:1.0;"/><text fill="#000000" font-family="Verdana" font-size="14" lengthAdjust="spacing" textLength="79" x="30" y="656.1826">ALL: String</text><rect fill="none" height="6" style="stroke:#000000;stroke-width:1.0;" width="6" x="20" y="666.1328"/><text fill="#000000" font-family="Verdana" font-size="14" lengthAdjust="spacing" textLength="321" x="30" y="672.4795">allowedOriginPatterns: List&lt;OriginPattern&gt;?</text><rect fill="none" height="6" style="stroke:#000000;stroke-width:1.0;" width="6" x="20" y="682.4297"/><text fill="#000000" font-family="Verdana" font-size="14" lengthAdjust="spacing" textLength="303" x="30" y="688.7764">DEFAULT_PERMIT_METHODS: List&lt;String&gt;</text><rect fill="none" height="6" style="stroke:#000000;stroke-width:1.0;" width="6" x="20" y="698.7266"/><text fill="#000000" font-family="Verdana" font-size="14" lengthAdjust="spacing" textLength="291" x="30" y="705.0732">ALL_PATTERN_LIST: List&lt;OriginPattern&gt;</text><rect fill="none" height="6" style="stroke:#000000;stroke-width:1.0;" width="6" x="20" y="715.0234"/><text fill="#000000" font-family="Verdana" font-size="14" lengthAdjust="spacing" textLength="224" x="30" y="721.3701">allowedMethods: List&lt;String&gt;?</text><rect fill="none" height="6" style="stroke:#000000;stroke-width:1.0;" width="6" x="20" y="731.3203"/><text fill="#000000" font-family="Verdana" font-size="14" lengthAdjust="spacing" textLength="288" x="30" y="737.667">DEFAULT_METHODS: List&lt;HttpMethod&gt;</text><rect fill="none" height="6" style="stroke:#000000;stroke-width:1.0;" width="6" x="20" y="747.6172"/><text fill="#000000" font-family="Verdana" font-size="14" lengthAdjust="spacing" textLength="212" x="30" y="753.9639">allowedOrigins: List&lt;String&gt;?</text><rect fill="none" height="6" style="stroke:#000000;stroke-width:1.0;" width="6" x="20" y="763.9141"/><text fill="#000000" font-family="Verdana" font-size="14" lengthAdjust="spacing" textLength="276" x="30" y="770.2607">resolvedMethods: List&lt;HttpMethod&gt;?</text><rect fill="none" height="6" style="stroke:#000000;stroke-width:1.0;" width="6" x="20" y="780.2109"/><text fill="#000000" font-family="Verdana" font-size="14" lengthAdjust="spacing" textLength="227" x="30" y="786.5576">exposedHeaders: List&lt;String&gt;?</text><rect fill="none" height="6" style="stroke:#000000;stroke-width:1.0;" width="6" x="20" y="796.5078"/><text fill="#000000" font-family="Verdana" font-size="14" lengthAdjust="spacing" textLength="164" x="30" y="802.8545">ALL_LIST: List&lt;String&gt;</text><rect fill="none" height="6" style="stroke:#000000;stroke-width:1.0;" width="6" x="20" y="812.8047"/><text fill="#000000" font-family="Verdana" font-size="14" lengthAdjust="spacing" textLength="192" x="30" y="819.1514">allowCredentials: Boolean?</text><line style="stroke:#000000;stroke-width:1.0;" x1="13" x2="639" y1="826.4531" y2="826.4531"/><ellipse cx="23" cy="840.1016" fill="#FFFFFF" rx="3" ry="3" style="stroke:#000000;stroke-width:1.0;"/><text fill="#000000" font-family="Verdana" font-size="14" lengthAdjust="spacing" textLength="231" x="30" y="843.4482">addExposedHeader(String): void</text><ellipse cx="23" cy="856.3984" fill="#FFFFFF" rx="3" ry="3" style="stroke:#000000;stroke-width:1.0;"/><text fill="#000000" font-family="Verdana" font-size="14" lengthAdjust="spacing" textLength="230" x="30" y="859.7451">addAllowedMethod(String): void</text><ellipse cx="23" cy="872.6953" fill="#FFFFFF" rx="3" ry="3" style="stroke:#000000;stroke-width:1.0;"/><text fill="#000000" font-family="Verdana" font-size="14" lengthAdjust="spacing" textLength="337" x="30" y="876.042">applyPermitDefaultValues(): CorsConfiguration</text><rect fill="#FFFFFF" height="6" style="stroke:#000000;stroke-width:1.0;" width="6" x="20" y="885.9922"/><text fill="#000000" font-family="Verdana" font-size="14" lengthAdjust="spacing" textLength="380" x="30" y="892.3389">combine(List&lt;String&gt;?, List&lt;String&gt;?): List&lt;String&gt;</text><ellipse cx="23" cy="905.2891" fill="#FFFFFF" rx="3" ry="3" style="stroke:#000000;stroke-width:1.0;"/><text fill="#000000" font-family="Verdana" font-size="14" lengthAdjust="spacing" textLength="257" x="30" y="908.6357">setAllowCredentials(Boolean?): void</text><ellipse cx="23" cy="921.5859" fill="#FFFFFF" rx="3" ry="3" style="stroke:#000000;stroke-width:1.0;"/><text fill="#000000" font-family="Verdana" font-size="14" lengthAdjust="spacing" textLength="289" x="30" y="924.9326">setAllowedMethods(List&lt;String&gt;?): void</text><ellipse cx="23" cy="937.8828" fill="#FFFFFF" rx="3" ry="3" style="stroke:#000000;stroke-width:1.0;"/><text fill="#000000" font-family="Verdana" font-size="14" lengthAdjust="spacing" textLength="229" x="30" y="941.2295">getAllowCredentials(): Boolean?</text><ellipse cx="23" cy="954.1797" fill="#FFFFFF" rx="3" ry="3" style="stroke:#000000;stroke-width:1.0;"/><text fill="#000000" font-family="Verdana" font-size="14" lengthAdjust="spacing" textLength="391" x="30" y="957.5264">checkHttpMethod(HttpMethod?): List&lt;HttpMethod&gt;?</text><ellipse cx="23" cy="970.4766" fill="#FFFFFF" rx="3" ry="3" style="stroke:#000000;stroke-width:1.0;"/><text fill="#000000" font-family="Verdana" font-size="14" lengthAdjust="spacing" textLength="257" x="30" y="973.8232">getAllowedHeaders(): List&lt;String&gt;?</text><ellipse cx="23" cy="986.7734" fill="#FFFFFF" rx="3" ry="3" style="stroke:#000000;stroke-width:1.0;"/><text fill="#000000" font-family="Verdana" font-size="14" lengthAdjust="spacing" textLength="226" x="30" y="990.1201">validateAllowCredentials(): void</text><ellipse cx="23" cy="1003.0703" fill="#FFFFFF" rx="3" ry="3" style="stroke:#000000;stroke-width:1.0;"/><text fill="#000000" font-family="Verdana" font-size="14" lengthAdjust="spacing" textLength="280" x="30" y="1006.417">addAllowedOriginPattern(String?): void</text><ellipse cx="23" cy="1019.3672" fill="#FFFFFF" rx="3" ry="3" style="stroke:#000000;stroke-width:1.0;"/><text fill="#000000" font-family="Verdana" font-size="14" lengthAdjust="spacing" textLength="277" x="30" y="1022.7139">setAllowedOrigins(List&lt;String&gt;?): void</text><ellipse cx="23" cy="1035.6641" fill="#FFFFFF" rx="3" ry="3" style="stroke:#000000;stroke-width:1.0;"/><text fill="#000000" font-family="Verdana" font-size="14" lengthAdjust="spacing" textLength="249" x="30" y="1039.0107">getAllowedOrigins(): List&lt;String&gt;?</text><ellipse cx="23" cy="1051.9609" fill="#FFFFFF" rx="3" ry="3" style="stroke:#000000;stroke-width:1.0;"/><text fill="#000000" font-family="Verdana" font-size="14" lengthAdjust="spacing" textLength="432" x="30" y="1055.3076">setAllowedOriginPatterns(List&lt;String&gt;?): CorsConfiguration</text><ellipse cx="23" cy="1068.2578" fill="#FFFFFF" rx="3" ry="3" style="stroke:#000000;stroke-width:1.0;"/><text fill="#000000" font-family="Verdana" font-size="14" lengthAdjust="spacing" textLength="290" x="30" y="1071.6045">setExposedHeaders(List&lt;String&gt;?): void</text><ellipse cx="23" cy="1084.5547" fill="#FFFFFF" rx="3" ry="3" style="stroke:#000000;stroke-width:1.0;"/><text fill="#000000" font-family="Verdana" font-size="14" lengthAdjust="spacing" textLength="318" x="30" y="1087.9014">checkHeaders(List&lt;String&gt;?): List&lt;String&gt;?</text><ellipse cx="23" cy="1100.8516" fill="#FFFFFF" rx="3" ry="3" style="stroke:#000000;stroke-width:1.0;"/><text fill="#000000" font-family="Verdana" font-size="14" lengthAdjust="spacing" textLength="190" x="30" y="1104.1982">setMaxAge(Duration): void</text><ellipse cx="23" cy="1117.1484" fill="#FFFFFF" rx="3" ry="3" style="stroke:#000000;stroke-width:1.0;"/><text fill="#000000" font-family="Verdana" font-size="14" lengthAdjust="spacing" textLength="142" x="30" y="1120.4951">getMaxAge(): Long?</text><ellipse cx="23" cy="1133.4453" fill="#FFFFFF" rx="3" ry="3" style="stroke:#000000;stroke-width:1.0;"/><text fill="#000000" font-family="Verdana" font-size="14" lengthAdjust="spacing" textLength="170" x="30" y="1136.792">setMaxAge(Long?): void</text><ellipse cx="23" cy="1149.7422" fill="#FFFFFF" rx="3" ry="3" style="stroke:#000000;stroke-width:1.0;"/><text fill="#000000" font-family="Verdana" font-size="14" lengthAdjust="spacing" textLength="225" x="30" y="1153.0889">addAllowedOrigin(String?): void</text><ellipse cx="23" cy="1166.0391" fill="#FFFFFF" rx="3" ry="3" style="stroke:#000000;stroke-width:1.0;"/><text fill="#000000" font-family="Verdana" font-size="14" lengthAdjust="spacing" textLength="304" x="30" y="1169.3857">getAllowedOriginPatterns(): List&lt;String&gt;?</text><ellipse cx="23" cy="1182.3359" fill="#FFFFFF" rx="3" ry="3" style="stroke:#000000;stroke-width:1.0;"/><text fill="#000000" font-family="Verdana" font-size="14" lengthAdjust="spacing" textLength="262" x="30" y="1185.6826">getExposedHeaders(): List&lt;String&gt;?</text><ellipse cx="23" cy="1198.6328" fill="#FFFFFF" rx="3" ry="3" style="stroke:#000000;stroke-width:1.0;"/><text fill="#000000" font-family="Verdana" font-size="14" lengthAdjust="spacing" textLength="349" x="30" y="1201.9795">combine(CorsConfiguration?): CorsConfiguration</text><ellipse cx="23" cy="1214.9297" fill="#FFFFFF" rx="3" ry="3" style="stroke:#000000;stroke-width:1.0;"/><text fill="#000000" font-family="Verdana" font-size="14" lengthAdjust="spacing" textLength="285" x="30" y="1218.2764">setAllowedHeaders(List&lt;String&gt;?): void</text><rect fill="#FFFFFF" height="6" style="stroke:#000000;stroke-width:1.0;" width="6" x="20" y="1228.2266"/><text fill="#000000" font-family="Verdana" font-size="14" lengthAdjust="spacing" textLength="228" x="30" y="1234.5732">trimTrailingSlash(String): String</text><ellipse cx="23" cy="1247.5234" fill="#FFFFFF" rx="3" ry="3" style="stroke:#000000;stroke-width:1.0;"/><text fill="#000000" font-family="Verdana" font-size="14" lengthAdjust="spacing" textLength="275" x="30" y="1250.8701">addAllowedMethod(HttpMethod): void</text><rect fill="#FFFFFF" height="6" style="stroke:#000000;stroke-width:1.0;" width="6" x="20" y="1260.8203"/><text fill="#000000" font-family="Verdana" font-size="14" lengthAdjust="spacing" textLength="604" x="30" y="1267.167">combinePatterns(List&lt;OriginPattern&gt;?, List&lt;OriginPattern&gt;?): List&lt;OriginPattern&gt;</text><ellipse cx="23" cy="1280.1172" fill="#FFFFFF" rx="3" ry="3" style="stroke:#000000;stroke-width:1.0;"/><text fill="#000000" font-family="Verdana" font-size="14" lengthAdjust="spacing" textLength="261" x="30" y="1283.4639">getAllowedMethods(): List&lt;String&gt;?</text><ellipse cx="23" cy="1296.4141" fill="#FFFFFF" rx="3" ry="3" style="stroke:#000000;stroke-width:1.0;"/><text fill="#000000" font-family="Verdana" font-size="14" lengthAdjust="spacing" textLength="226" x="30" y="1299.7607">addAllowedHeader(String): void</text><ellipse cx="23" cy="1312.7109" fill="#FFFFFF" rx="3" ry="3" style="stroke:#000000;stroke-width:1.0;"/><text fill="#000000" font-family="Verdana" font-size="14" lengthAdjust="spacing" textLength="207" x="30" y="1316.0576">checkOrigin(String?): String?</text></g><!--class CorsConfigurationSource--><g id="elem_CorsConfigurationSource"><rect codeLine="52" fill="#FFFFFF" height="72.5625" id="CorsConfigurationSource" rx="2.5" ry="2.5" style="stroke:#000000;stroke-width:1.0;" width="480" x="86" y="338"/><ellipse cx="232.75" cy="358.1328" fill="#FFFFFF" rx="9" ry="9" style="stroke:#000000;stroke-width:1.0;"/><path d="M233.7031,354.9141 L235.4219,354.9141 C235.8125,354.9141 236,354.8828 236.125,354.8047 C236.3906,354.6484 236.5313,354.3672 236.5313,354.0703 C236.5313,353.8047 236.4219,353.5391 236.1875,353.3672 C236.0156,353.2578 235.875,353.2266 235.4219,353.2266 L230.2813,353.2266 C229.8438,353.2266 229.7188,353.2422 229.5625,353.3359 C229.3125,353.4922 229.1563,353.7891 229.1563,354.0703 C229.1563,354.3516 229.2969,354.6016 229.5156,354.7734 C229.6719,354.8828 229.8594,354.9141 230.2813,354.9141 L232,354.9141 L232,361.4297 L230.2813,361.4297 C229.8438,361.4297 229.7188,361.4453 229.5625,361.5547 C229.3125,361.7109 229.1563,361.9922 229.1563,362.2891 C229.1563,362.5391 229.2969,362.8047 229.5156,362.9609 C229.6719,363.0859 229.875,363.1328 230.2813,363.1328 L235.4219,363.1328 C236.1719,363.1328 236.5313,362.8516 236.5313,362.2891 C236.5313,362.0078 236.4219,361.7578 236.1875,361.5859 C236.0156,361.4609 235.875,361.4297 235.4219,361.4297 L233.7031,361.4297 L233.7031,354.9141 Z " fill="#000000"/><text fill="#000000" font-family="Verdana" font-size="12" font-style="italic" lengthAdjust="spacing" textLength="67" x="306.25" y="354.1387">«interface»</text><text fill="#000000" font-family="Verdana" font-size="14" font-style="italic" lengthAdjust="spacing" textLength="179" x="250.25" y="369.9639">CorsConfigurationSource</text><line style="stroke:#000000;stroke-width:1.0;" x1="87" x2="565" y1="378.2656" y2="378.2656"/><line style="stroke:#000000;stroke-width:1.0;" x1="87" x2="565" y1="386.2656" y2="386.2656"/><ellipse cx="97" cy="399.9141" fill="#FFFFFF" rx="3" ry="3" style="stroke:#000000;stroke-width:1.0;"/><text fill="#000000" font-family="Verdana" font-size="14" lengthAdjust="spacing" textLength="456" x="104" y="403.2607">getCorsConfiguration(HttpServletRequest): CorsConfiguration?</text></g><!--class CorsFilter--><g id="elem_CorsFilter"><rect codeLine="55" fill="#FFFFFF" height="109.1875" id="CorsFilter" rx="2.5" ry="2.5" style="stroke:#000000;stroke-width:1.0;" width="580" x="649" y="53"/><ellipse cx="900.25" cy="67" fill="#FFFFFF" rx="9" ry="9" style="stroke:#000000;stroke-width:1.0;"/><path d="M902.5938,62.6719 C901.6563,62.2344 901.0625,62.0938 900.1875,62.0938 C897.5625,62.0938 895.5625,64.1719 895.5625,66.8906 L895.5625,68.0156 C895.5625,70.5938 897.6719,72.4844 900.5625,72.4844 C901.7813,72.4844 902.9375,72.1875 903.6875,71.6406 C904.2656,71.2344 904.5938,70.7813 904.5938,70.3906 C904.5938,69.9375 904.2031,69.5469 903.7344,69.5469 C903.5156,69.5469 903.3125,69.625 903.125,69.8125 C902.6719,70.2969 902.6719,70.2969 902.4844,70.3906 C902.0625,70.6563 901.375,70.7813 900.6094,70.7813 C898.5625,70.7813 897.2656,69.6875 897.2656,67.9844 L897.2656,66.8906 C897.2656,65.1094 898.5156,63.7969 900.25,63.7969 C900.8281,63.7969 901.4375,63.9531 901.9063,64.2031 C902.3906,64.4844 902.5625,64.7031 902.6563,65.1094 C902.7188,65.5156 902.75,65.6406 902.8906,65.7656 C903.0313,65.9063 903.2656,66.0156 903.4844,66.0156 C903.75,66.0156 904.0156,65.875 904.1875,65.6563 C904.2969,65.5 904.3281,65.3125 904.3281,64.8906 L904.3281,63.4688 C904.3281,63.0313 904.3125,62.9063 904.2188,62.75 C904.0625,62.4844 903.7813,62.3438 903.4844,62.3438 C903.1875,62.3438 902.9844,62.4375 902.7656,62.75 L902.5938,62.6719 Z " fill="#000000"/><text fill="#000000" font-family="Verdana" font-size="14" lengthAdjust="spacing" textLength="70" x="917.75" y="71.8467">CorsFilter</text><line style="stroke:#000000;stroke-width:1.0;" x1="650" x2="1228" y1="81" y2="81"/><rect fill="none" height="6" style="stroke:#000000;stroke-width:1.0;" width="6" x="657" y="91.6484"/><text fill="#000000" font-family="Verdana" font-size="14" lengthAdjust="spacing" textLength="282" x="667" y="97.9951">configSource: CorsConfigurationSource</text><rect fill="none" height="6" style="stroke:#000000;stroke-width:1.0;" width="6" x="657" y="107.9453"/><text fill="#000000" font-family="Verdana" font-size="14" lengthAdjust="spacing" textLength="182" x="667" y="114.292">processor: CorsProcessor</text><line style="stroke:#000000;stroke-width:1.0;" x1="650" x2="1228" y1="121.5938" y2="121.5938"/><ellipse cx="660" cy="135.2422" fill="#FFFFFF" rx="3" ry="3" style="stroke:#000000;stroke-width:1.0;"/><text fill="#000000" font-family="Verdana" font-size="14" lengthAdjust="spacing" textLength="276" x="667" y="138.5889">setCorsProcessor(CorsProcessor): void</text><polygon fill="#FFFFFF" points="660,146.5391,664,150.5391,660,154.5391,656,150.5391" style="stroke:#000000;stroke-width:1.0;"/><text fill="#000000" font-family="Verdana" font-size="14" lengthAdjust="spacing" textLength="556" x="667" y="154.8857">doFilterInternal(HttpServletRequest, HttpServletResponse, FilterChain): void</text></g><!--class CorsProcessor--><g id="elem_CorsProcessor"><rect codeLine="61" fill="#FFFFFF" height="72.5625" id="CorsProcessor" rx="2.5" ry="2.5" style="stroke:#000000;stroke-width:1.0;" width="670" x="1312" y="338"/><ellipse cx="1592.75" cy="358.1328" fill="#FFFFFF" rx="9" ry="9" style="stroke:#000000;stroke-width:1.0;"/><path d="M1593.7031,354.9141 L1595.4219,354.9141 C1595.8125,354.9141 1596,354.8828 1596.125,354.8047 C1596.3906,354.6484 1596.5313,354.3672 1596.5313,354.0703 C1596.5313,353.8047 1596.4219,353.5391 1596.1875,353.3672 C1596.0156,353.2578 1595.875,353.2266 1595.4219,353.2266 L1590.2813,353.2266 C1589.8438,353.2266 1589.7188,353.2422 1589.5625,353.3359 C1589.3125,353.4922 1589.1563,353.7891 1589.1563,354.0703 C1589.1563,354.3516 1589.2969,354.6016 1589.5156,354.7734 C1589.6719,354.8828 1589.8594,354.9141 1590.2813,354.9141 L1592,354.9141 L1592,361.4297 L1590.2813,361.4297 C1589.8438,361.4297 1589.7188,361.4453 1589.5625,361.5547 C1589.3125,361.7109 1589.1563,361.9922 1589.1563,362.2891 C1589.1563,362.5391 1589.2969,362.8047 1589.5156,362.9609 C1589.6719,363.0859 1589.875,363.1328 1590.2813,363.1328 L1595.4219,363.1328 C1596.1719,363.1328 1596.5313,362.8516 1596.5313,362.2891 C1596.5313,362.0078 1596.4219,361.7578 1596.1875,361.5859 C1596.0156,361.4609 1595.875,361.4297 1595.4219,361.4297 L1593.7031,361.4297 L1593.7031,354.9141 Z " fill="#000000"/><text fill="#000000" font-family="Verdana" font-size="12" font-style="italic" lengthAdjust="spacing" textLength="67" x="1627.25" y="354.1387">«interface»</text><text fill="#000000" font-family="Verdana" font-size="14" font-style="italic" lengthAdjust="spacing" textLength="101" x="1610.25" y="369.9639">CorsProcessor</text><line style="stroke:#000000;stroke-width:1.0;" x1="1313" x2="1981" y1="378.2656" y2="378.2656"/><line style="stroke:#000000;stroke-width:1.0;" x1="1313" x2="1981" y1="386.2656" y2="386.2656"/><ellipse cx="1323" cy="399.9141" fill="#FFFFFF" rx="3" ry="3" style="stroke:#000000;stroke-width:1.0;"/><text fill="#000000" font-family="Verdana" font-size="14" lengthAdjust="spacing" textLength="646" x="1330" y="403.2607">processRequest(CorsConfiguration?, HttpServletRequest, HttpServletResponse): boolean</text></g><!--class DefaultCorsProcessor--><g id="elem_DefaultCorsProcessor"><rect codeLine="64" fill="#FFFFFF" height="190.6719" id="DefaultCorsProcessor" rx="2.5" ry="2.5" style="stroke:#000000;stroke-width:1.0;" width="708" x="1293" y="12"/><ellipse cx="1565.75" cy="26" fill="#FFFFFF" rx="9" ry="9" style="stroke:#000000;stroke-width:1.0;"/><path d="M1568.0938,21.6719 C1567.1563,21.2344 1566.5625,21.0938 1565.6875,21.0938 C1563.0625,21.0938 1561.0625,23.1719 1561.0625,25.8906 L1561.0625,27.0156 C1561.0625,29.5938 1563.1719,31.4844 1566.0625,31.4844 C1567.2813,31.4844 1568.4375,31.1875 1569.1875,30.6406 C1569.7656,30.2344 1570.0938,29.7813 1570.0938,29.3906 C1570.0938,28.9375 1569.7031,28.5469 1569.2344,28.5469 C1569.0156,28.5469 1568.8125,28.625 1568.625,28.8125 C1568.1719,29.2969 1568.1719,29.2969 1567.9844,29.3906 C1567.5625,29.6563 1566.875,29.7813 1566.1094,29.7813 C1564.0625,29.7813 1562.7656,28.6875 1562.7656,26.9844 L1562.7656,25.8906 C1562.7656,24.1094 1564.0156,22.7969 1565.75,22.7969 C1566.3281,22.7969 1566.9375,22.9531 1567.4063,23.2031 C1567.8906,23.4844 1568.0625,23.7031 1568.1563,24.1094 C1568.2188,24.5156 1568.25,24.6406 1568.3906,24.7656 C1568.5313,24.9063 1568.7656,25.0156 1568.9844,25.0156 C1569.25,25.0156 1569.5156,24.875 1569.6875,24.6563 C1569.7969,24.5 1569.8281,24.3125 1569.8281,23.8906 L1569.8281,22.4688 C1569.8281,22.0313 1569.8125,21.9063 1569.7188,21.75 C1569.5625,21.4844 1569.2813,21.3438 1568.9844,21.3438 C1568.6875,21.3438 1568.4844,21.4375 1568.2656,21.75 L1568.0938,21.6719 Z " fill="#000000"/><text fill="#000000" font-family="Verdana" font-size="14" lengthAdjust="spacing" textLength="155" x="1583.25" y="30.8467">DefaultCorsProcessor</text><line style="stroke:#000000;stroke-width:1.0;" x1="1294" x2="2000" y1="40" y2="40"/><rect fill="none" height="6" style="stroke:#000000;stroke-width:1.0;" width="6" x="1301" y="50.6484"/><text fill="#000000" font-family="Verdana" font-size="14" lengthAdjust="spacing" textLength="81" x="1311" y="56.9951">logger: Log</text><line style="stroke:#000000;stroke-width:1.0;" x1="1294" x2="2000" y1="64.2969" y2="64.2969"/><ellipse cx="1304" cy="77.9453" fill="#FFFFFF" rx="3" ry="3" style="stroke:#000000;stroke-width:1.0;"/><text fill="#000000" font-family="Verdana" font-size="14" lengthAdjust="spacing" textLength="646" x="1311" y="81.292">processRequest(CorsConfiguration?, HttpServletRequest, HttpServletResponse): boolean</text><rect fill="#FFFFFF" height="6" style="stroke:#000000;stroke-width:1.0;" width="6" x="1301" y="91.2422"/><text fill="#000000" font-family="Verdana" font-size="14" lengthAdjust="spacing" textLength="443" x="1311" y="97.5889">getHeadersToUse(ServerHttpRequest, boolean): List&lt;String&gt;</text><polygon fill="#FFFFFF" points="1304,105.5391,1308,109.5391,1304,113.5391,1300,109.5391" style="stroke:#000000;stroke-width:1.0;"/><text fill="#000000" font-family="Verdana" font-size="14" lengthAdjust="spacing" textLength="684" x="1311" y="113.8857">handleInternal(ServerHttpRequest, ServerHttpResponse, CorsConfiguration, boolean): boolean</text><polygon fill="#FFFFFF" points="1304,121.8359,1308,125.8359,1304,129.8359,1300,125.8359" style="stroke:#000000;stroke-width:1.0;"/><text fill="#000000" font-family="Verdana" font-size="14" lengthAdjust="spacing" textLength="449" x="1311" y="130.1826">checkHeaders(CorsConfiguration, List&lt;String&gt;): List&lt;String&gt;?</text><polygon fill="#FFFFFF" points="1304,138.1328,1308,142.1328,1304,146.1328,1300,142.1328" style="stroke:#000000;stroke-width:1.0;"/><text fill="#000000" font-family="Verdana" font-size="14" lengthAdjust="spacing" textLength="345" x="1311" y="146.4795">checkOrigin(CorsConfiguration, String?): String?</text><rect fill="#FFFFFF" height="6" style="stroke:#000000;stroke-width:1.0;" width="6" x="1301" y="156.4297"/><text fill="#000000" font-family="Verdana" font-size="14" lengthAdjust="spacing" textLength="444" x="1311" y="162.7764">getMethodToUse(ServerHttpRequest, boolean): HttpMethod?</text><polygon fill="#FFFFFF" points="1304,170.7266,1308,174.7266,1304,178.7266,1300,174.7266" style="stroke:#000000;stroke-width:1.0;"/><text fill="#000000" font-family="Verdana" font-size="14" lengthAdjust="spacing" textLength="502" x="1311" y="179.0732">checkMethods(CorsConfiguration, HttpMethod?): List&lt;HttpMethod&gt;?</text><polygon fill="#FFFFFF" points="1304,187.0234,1308,191.0234,1304,195.0234,1300,191.0234" style="stroke:#000000;stroke-width:1.0;"/><text fill="#000000" font-family="Verdana" font-size="14" lengthAdjust="spacing" textLength="302" x="1311" y="195.3701">rejectRequest(ServerHttpResponse): void</text></g><!--class Filter--><g id="elem_Filter"><rect codeLine="75" fill="#FFFFFF" height="105.1563" id="Filter" rx="2.5" ry="2.5" style="stroke:#000000;stroke-width:1.0;" width="456" x="711" y="1383"/><ellipse cx="903.75" cy="1403.1328" fill="#FFFFFF" rx="9" ry="9" style="stroke:#000000;stroke-width:1.0;"/><path d="M904.7031,1399.9141 L906.4219,1399.9141 C906.8125,1399.9141 907,1399.8828 907.125,1399.8047 C907.3906,1399.6484 907.5313,1399.3672 907.5313,1399.0703 C907.5313,1398.8047 907.4219,1398.5391 907.1875,1398.3672 C907.0156,1398.2578 906.875,1398.2266 906.4219,1398.2266 L901.2813,1398.2266 C900.8438,1398.2266 900.7188,1398.2422 900.5625,1398.3359 C900.3125,1398.4922 900.1563,1398.7891 900.1563,1399.0703 C900.1563,1399.3516 900.2969,1399.6016 900.5156,1399.7734 C900.6719,1399.8828 900.8594,1399.9141 901.2813,1399.9141 L903,1399.9141 L903,1406.4297 L901.2813,1406.4297 C900.8438,1406.4297 900.7188,1406.4453 900.5625,1406.5547 C900.3125,1406.7109 900.1563,1406.9922 900.1563,1407.2891 C900.1563,1407.5391 900.2969,1407.8047 900.5156,1407.9609 C900.6719,1408.0859 900.875,1408.1328 901.2813,1408.1328 L906.4219,1408.1328 C907.1719,1408.1328 907.5313,1407.8516 907.5313,1407.2891 C907.5313,1407.0078 907.4219,1406.7578 907.1875,1406.5859 C907.0156,1406.4609 906.875,1406.4297 906.4219,1406.4297 L904.7031,1406.4297 L904.7031,1399.9141 Z " fill="#000000"/><text fill="#000000" font-family="Verdana" font-size="12" font-style="italic" lengthAdjust="spacing" textLength="67" x="919.25" y="1399.1387">«interface»</text><text fill="#000000" font-family="Verdana" font-size="14" font-style="italic" lengthAdjust="spacing" textLength="36" x="934.75" y="1414.9639">Filter</text><line style="stroke:#000000;stroke-width:1.0;" x1="712" x2="1166" y1="1423.2656" y2="1423.2656"/><line style="stroke:#000000;stroke-width:1.0;" x1="712" x2="1166" y1="1431.2656" y2="1431.2656"/><ellipse cx="722" cy="1444.9141" fill="#FFFFFF" rx="3" ry="3" style="stroke:#000000;stroke-width:1.0;"/><text fill="#000000" font-family="Verdana" font-size="14" lengthAdjust="spacing" textLength="158" x="729" y="1448.2607">init(FilterConfig): void</text><ellipse cx="722" cy="1461.2109" fill="#FFFFFF" rx="3" ry="3" style="stroke:#000000;stroke-width:1.0;"/><text fill="#000000" font-family="Verdana" font-size="14" lengthAdjust="spacing" textLength="432" x="729" y="1464.5576">doFilter(ServletRequest, ServletResponse, FilterChain): void</text><ellipse cx="722" cy="1477.5078" fill="#FFFFFF" rx="3" ry="3" style="stroke:#000000;stroke-width:1.0;"/><text fill="#000000" font-family="Verdana" font-size="14" lengthAdjust="spacing" textLength="104" x="729" y="1480.8545">destroy(): void</text></g><!--class GenericFilterBean--><g id="elem_GenericFilterBean"><rect codeLine="80" fill="#FFFFFF" height="369.9375" id="GenericFilterBean" rx="2.5" ry="2.5" style="stroke:#000000;stroke-width:1.0;" width="318" x="780" y="749.5"/><ellipse cx="870.25" cy="763.5" fill="#FFFFFF" rx="9" ry="9" style="stroke:#000000;stroke-width:1.0;"/><path d="M872.5938,759.1719 C871.6563,758.7344 871.0625,758.5938 870.1875,758.5938 C867.5625,758.5938 865.5625,760.6719 865.5625,763.3906 L865.5625,764.5156 C865.5625,767.0938 867.6719,768.9844 870.5625,768.9844 C871.7813,768.9844 872.9375,768.6875 873.6875,768.1406 C874.2656,767.7344 874.5938,767.2813 874.5938,766.8906 C874.5938,766.4375 874.2031,766.0469 873.7344,766.0469 C873.5156,766.0469 873.3125,766.125 873.125,766.3125 C872.6719,766.7969 872.6719,766.7969 872.4844,766.8906 C872.0625,767.1563 871.375,767.2813 870.6094,767.2813 C868.5625,767.2813 867.2656,766.1875 867.2656,764.4844 L867.2656,763.3906 C867.2656,761.6094 868.5156,760.2969 870.25,760.2969 C870.8281,760.2969 871.4375,760.4531 871.9063,760.7031 C872.3906,760.9844 872.5625,761.2031 872.6563,761.6094 C872.7188,762.0156 872.75,762.1406 872.8906,762.2656 C873.0313,762.4063 873.2656,762.5156 873.4844,762.5156 C873.75,762.5156 874.0156,762.375 874.1875,762.1563 C874.2969,762 874.3281,761.8125 874.3281,761.3906 L874.3281,759.9688 C874.3281,759.5313 874.3125,759.4063 874.2188,759.25 C874.0625,758.9844 873.7813,758.8438 873.4844,758.8438 C873.1875,758.8438 872.9844,758.9375 872.7656,759.25 L872.5938,759.1719 Z " fill="#000000"/><text fill="#000000" font-family="Verdana" font-size="14" lengthAdjust="spacing" textLength="130" x="887.75" y="768.3467">GenericFilterBean</text><line style="stroke:#000000;stroke-width:1.0;" x1="781" x2="1097" y1="777.5" y2="777.5"/><rect fill="none" height="6" style="stroke:#000000;stroke-width:1.0;" width="6" x="788" y="788.1484"/><text fill="#000000" font-family="Verdana" font-size="14" lengthAdjust="spacing" textLength="137" x="798" y="794.4951">beanName: String?</text><polygon fill="none" points="791,802.4453,795,806.4453,791,810.4453,787,806.4453" style="stroke:#000000;stroke-width:1.0;"/><text fill="#000000" font-family="Verdana" font-size="14" lengthAdjust="spacing" textLength="81" x="798" y="810.792">logger: Log</text><rect fill="none" height="6" style="stroke:#000000;stroke-width:1.0;" width="6" x="788" y="820.7422"/><text fill="#000000" font-family="Verdana" font-size="14" lengthAdjust="spacing" textLength="236" x="798" y="827.0889">servletContext: ServletContext?</text><rect fill="none" height="6" style="stroke:#000000;stroke-width:1.0;" width="6" x="788" y="837.0391"/><text fill="#000000" font-family="Verdana" font-size="14" lengthAdjust="spacing" textLength="236" x="798" y="843.3857">requiredProperties: Set&lt;String&gt;</text><rect fill="none" height="6" style="stroke:#000000;stroke-width:1.0;" width="6" x="788" y="853.3359"/><text fill="#000000" font-family="Verdana" font-size="14" lengthAdjust="spacing" textLength="184" x="798" y="859.6826">filterConfig: FilterConfig?</text><rect fill="none" height="6" style="stroke:#000000;stroke-width:1.0;" width="6" x="788" y="869.6328"/><text fill="#000000" font-family="Verdana" font-size="14" lengthAdjust="spacing" textLength="202" x="798" y="875.9795">environment: Environment?</text><line style="stroke:#000000;stroke-width:1.0;" x1="781" x2="1097" y1="883.2813" y2="883.2813"/><polygon fill="#FFFFFF" points="791,891.9297,795,895.9297,791,899.9297,787,895.9297" style="stroke:#000000;stroke-width:1.0;"/><text fill="#000000" font-family="Verdana" font-size="14" lengthAdjust="spacing" textLength="266" x="798" y="900.2764">getServletContext(): ServletContext</text><ellipse cx="791" cy="913.2266" fill="#FFFFFF" rx="3" ry="3" style="stroke:#000000;stroke-width:1.0;"/><text fill="#000000" font-family="Verdana" font-size="14" lengthAdjust="spacing" textLength="193" x="798" y="916.5732">setBeanName(String): void</text><ellipse cx="791" cy="929.5234" fill="#FFFFFF" rx="3" ry="3" style="stroke:#000000;stroke-width:1.0;"/><text fill="#000000" font-family="Verdana" font-size="14" lengthAdjust="spacing" textLength="186" x="798" y="932.8701">afterPropertiesSet(): void</text><polygon fill="#FFFFFF" points="791,940.8203,795,944.8203,791,948.8203,787,944.8203" style="stroke:#000000;stroke-width:1.0;"/><text fill="#000000" font-family="Verdana" font-size="14" lengthAdjust="spacing" textLength="174" x="798" y="949.167">getFilterName(): String?</text><polygon fill="#FFFFFF" points="791,957.1172,795,961.1172,791,965.1172,787,961.1172" style="stroke:#000000;stroke-width:1.0;"/><text fill="#000000" font-family="Verdana" font-size="14" lengthAdjust="spacing" textLength="147" x="798" y="965.4639">initFilterBean(): void</text><ellipse cx="791" cy="978.4141" fill="#FFFFFF" rx="3" ry="3" style="stroke:#000000;stroke-width:1.0;"/><text fill="#000000" font-family="Verdana" font-size="14" lengthAdjust="spacing" textLength="230" x="798" y="981.7607">getEnvironment(): Environment</text><ellipse cx="791" cy="994.7109" fill="#FFFFFF" rx="3" ry="3" style="stroke:#000000;stroke-width:1.0;"/><text fill="#000000" font-family="Verdana" font-size="14" lengthAdjust="spacing" textLength="294" x="798" y="998.0576">setServletContext(ServletContext): void</text><ellipse cx="791" cy="1011.0078" fill="#FFFFFF" rx="3" ry="3" style="stroke:#000000;stroke-width:1.0;"/><text fill="#000000" font-family="Verdana" font-size="14" lengthAdjust="spacing" textLength="258" x="798" y="1014.3545">setEnvironment(Environment): void</text><polygon fill="#FFFFFF" points="791,1022.3047,795,1026.3047,791,1030.3047,787,1026.3047" style="stroke:#000000;stroke-width:1.0;"/><text fill="#000000" font-family="Verdana" font-size="14" lengthAdjust="spacing" textLength="247" x="798" y="1030.6514">addRequiredProperty(String): void</text><ellipse cx="791" cy="1043.6016" fill="#FFFFFF" rx="3" ry="3" style="stroke:#000000;stroke-width:1.0;"/><text fill="#000000" font-family="Verdana" font-size="14" lengthAdjust="spacing" textLength="104" x="798" y="1046.9482">destroy(): void</text><polygon fill="#FFFFFF" points="791,1054.8984,795,1058.8984,791,1062.8984,787,1058.8984" style="stroke:#000000;stroke-width:1.0;"/><text fill="#000000" font-family="Verdana" font-size="14" lengthAdjust="spacing" textLength="271" x="798" y="1063.2451">initBeanWrapper(BeanWrapper): void</text><ellipse cx="791" cy="1076.1953" fill="#FFFFFF" rx="3" ry="3" style="stroke:#000000;stroke-width:1.0;"/><text fill="#000000" font-family="Verdana" font-size="14" lengthAdjust="spacing" textLength="221" x="798" y="1079.542">getFilterConfig(): FilterConfig?</text><ellipse cx="791" cy="1092.4922" fill="#FFFFFF" rx="3" ry="3" style="stroke:#000000;stroke-width:1.0;"/><text fill="#000000" font-family="Verdana" font-size="14" lengthAdjust="spacing" textLength="158" x="798" y="1095.8389">init(FilterConfig): void</text><polygon fill="#FFFFFF" points="791,1103.7891,795,1107.7891,791,1111.7891,787,1107.7891" style="stroke:#000000;stroke-width:1.0;"/><text fill="#000000" font-family="Verdana" font-size="14" lengthAdjust="spacing" textLength="252" x="798" y="1112.1357">createEnvironment(): Environment</text></g><!--class OncePerRequestFilter--><g id="elem_OncePerRequestFilter"><rect codeLine="102" fill="#FFFFFF" height="223.2656" id="OncePerRequestFilter" rx="2.5" ry="2.5" style="stroke:#000000;stroke-width:1.0;" width="675" x="601.5" y="263"/><ellipse cx="856.25" cy="277" fill="#FFFFFF" rx="9" ry="9" style="stroke:#000000;stroke-width:1.0;"/><path d="M858.5938,272.6719 C857.6563,272.2344 857.0625,272.0938 856.1875,272.0938 C853.5625,272.0938 851.5625,274.1719 851.5625,276.8906 L851.5625,278.0156 C851.5625,280.5938 853.6719,282.4844 856.5625,282.4844 C857.7813,282.4844 858.9375,282.1875 859.6875,281.6406 C860.2656,281.2344 860.5938,280.7813 860.5938,280.3906 C860.5938,279.9375 860.2031,279.5469 859.7344,279.5469 C859.5156,279.5469 859.3125,279.625 859.125,279.8125 C858.6719,280.2969 858.6719,280.2969 858.4844,280.3906 C858.0625,280.6563 857.375,280.7813 856.6094,280.7813 C854.5625,280.7813 853.2656,279.6875 853.2656,277.9844 L853.2656,276.8906 C853.2656,275.1094 854.5156,273.7969 856.25,273.7969 C856.8281,273.7969 857.4375,273.9531 857.9063,274.2031 C858.3906,274.4844 858.5625,274.7031 858.6563,275.1094 C858.7188,275.5156 858.75,275.6406 858.8906,275.7656 C859.0313,275.9063 859.2656,276.0156 859.4844,276.0156 C859.75,276.0156 860.0156,275.875 860.1875,275.6563 C860.2969,275.5 860.3281,275.3125 860.3281,274.8906 L860.3281,273.4688 C860.3281,273.0313 860.3125,272.9063 860.2188,272.75 C860.0625,272.4844 859.7813,272.3438 859.4844,272.3438 C859.1875,272.3438 858.9844,272.4375 858.7656,272.75 L858.5938,272.6719 Z " fill="#000000"/><text fill="#000000" font-family="Verdana" font-size="14" lengthAdjust="spacing" textLength="158" x="873.75" y="281.8467">OncePerRequestFilter</text><line style="stroke:#000000;stroke-width:1.0;" x1="602.5" x2="1275.5" y1="291" y2="291"/><ellipse cx="612.5" cy="304.6484" fill="none" rx="3" ry="3" style="stroke:#000000;stroke-width:1.0;"/><text fill="#000000" font-family="Verdana" font-size="14" lengthAdjust="spacing" textLength="250" x="619.5" y="307.9951">ALREADY_FILTERED_SUFFIX: String</text><line style="stroke:#000000;stroke-width:1.0;" x1="602.5" x2="1275.5" y1="315.2969" y2="315.2969"/><polygon fill="#FFFFFF" points="612.5,323.9453,616.5,327.9453,612.5,331.9453,608.5,327.9453" style="stroke:#000000;stroke-width:1.0;"/><text fill="#000000" font-family="Verdana" font-size="14" lengthAdjust="spacing" textLength="307" x="619.5" y="332.292">getAlreadyFilteredAttributeName(): String</text><polygon fill="#FFFFFF" points="612.5,340.2422,616.5,344.2422,612.5,348.2422,608.5,344.2422" style="stroke:#000000;stroke-width:1.0;"/><text fill="#000000" font-family="Verdana" font-size="14" lengthAdjust="spacing" textLength="339" x="619.5" y="348.5889">isAsyncDispatch(HttpServletRequest): boolean</text><ellipse cx="612.5" cy="361.5391" fill="#FFFFFF" rx="3" ry="3" style="stroke:#000000;stroke-width:1.0;"/><text fill="#000000" font-family="Verdana" font-size="14" lengthAdjust="spacing" textLength="432" x="619.5" y="364.8857">doFilter(ServletRequest, ServletResponse, FilterChain): void</text><polygon fill="#FFFFFF" points="612.5,372.8359,616.5,376.8359,612.5,380.8359,608.5,376.8359" style="stroke:#000000;stroke-width:1.0;"/><text fill="#000000" font-family="Verdana" font-size="14" lengthAdjust="spacing" textLength="293" x="619.5" y="381.1826">shouldNotFilterAsyncDispatch(): boolean</text><polygon fill="#FFFFFF" points="612.5,389.1328,616.5,393.1328,612.5,397.1328,608.5,393.1328" style="stroke:#000000;stroke-width:1.0;"/><text fill="#000000" font-family="Verdana" font-size="14" lengthAdjust="spacing" textLength="287" x="619.5" y="397.4795">shouldNotFilterErrorDispatch(): boolean</text><polygon fill="#FFFFFF" points="612.5,405.4297,616.5,409.4297,612.5,413.4297,608.5,409.4297" style="stroke:#000000;stroke-width:1.0;"/><text fill="#000000" font-family="Verdana" font-size="14" lengthAdjust="spacing" textLength="556" x="619.5" y="413.7764">doFilterInternal(HttpServletRequest, HttpServletResponse, FilterChain): void</text><polygon fill="#FFFFFF" points="612.5,421.7266,616.5,425.7266,612.5,429.7266,608.5,425.7266" style="stroke:#000000;stroke-width:1.0;"/><text fill="#000000" font-family="Verdana" font-size="14" lengthAdjust="spacing" textLength="651" x="619.5" y="430.0732">doFilterNestedErrorDispatch(HttpServletRequest, HttpServletResponse, FilterChain): void</text><rect fill="#FFFFFF" height="6" style="stroke:#000000;stroke-width:1.0;" width="6" x="609.5" y="440.0234"/><text fill="#000000" font-family="Verdana" font-size="14" lengthAdjust="spacing" textLength="316" x="619.5" y="446.3701">skipDispatch(HttpServletRequest): boolean</text><polygon fill="#FFFFFF" points="612.5,454.3203,616.5,458.3203,612.5,462.3203,608.5,458.3203" style="stroke:#000000;stroke-width:1.0;"/><text fill="#000000" font-family="Verdana" font-size="14" lengthAdjust="spacing" textLength="330" x="619.5" y="462.667">isAsyncStarted(HttpServletRequest): boolean</text><polygon fill="#FFFFFF" points="612.5,470.6172,616.5,474.6172,612.5,478.6172,608.5,474.6172" style="stroke:#000000;stroke-width:1.0;"/><text fill="#000000" font-family="Verdana" font-size="14" lengthAdjust="spacing" textLength="332" x="619.5" y="478.9639">shouldNotFilter(HttpServletRequest): boolean</text></g><!--link CorsFilter to OncePerRequestFilter--><g id="link_CorsFilter_OncePerRequestFilter"><path codeLine="116" d="M939,162.18 C939,162.18 939,242.86 939,242.86 " fill="none" id="CorsFilter-to-OncePerRequestFilter" style="stroke:#000082;stroke-width:1.0;"/><polygon fill="none" points="946,242.86,939,262.86,932,242.86,946,242.86" style="stroke:#000082;stroke-width:1.0;"/></g><!--link DefaultCorsProcessor to CorsProcessor--><g id="link_DefaultCorsProcessor_CorsProcessor"><path codeLine="117" d="M1647,203.14 C1647,203.14 1647,317.86 1647,317.86 " fill="none" id="DefaultCorsProcessor-to-CorsProcessor" style="stroke:#008200;stroke-width:1.0;stroke-dasharray:7.0,7.0;"/><polygon fill="none" points="1654,317.86,1647,337.86,1640,317.86,1654,317.86" style="stroke:#008200;stroke-width:1.0;"/></g><!--link GenericFilterBean to Filter--><g id="link_GenericFilterBean_Filter"><path codeLine="118" d="M939,1119.63 C939,1119.63 939,1362.943 939,1362.943 " fill="none" id="GenericFilterBean-to-Filter" style="stroke:#008200;stroke-width:1.0;stroke-dasharray:7.0,7.0;"/><polygon fill="none" points="946,1362.944,939,1382.943,932,1362.943,946,1362.944" style="stroke:#008200;stroke-width:1.0;"/></g><!--link OncePerRequestFilter to GenericFilterBean--><g id="link_OncePerRequestFilter_GenericFilterBean"><path codeLine="119" d="M939,486.14 C939,486.14 939,729.473 939,729.473 " fill="none" id="OncePerRequestFilter-to-GenericFilterBean" style="stroke:#000082;stroke-width:1.0;"/><polygon fill="none" points="946,729.473,939,749.473,932,729.473,946,729.473" style="stroke:#000082;stroke-width:1.0;"/></g><!--reverse link CorsFilter to CorsProcessor--><g id="link_CorsFilter_CorsProcessor"><path codeLine="120" d="M1242.2,108 C1242.2,108 1284.75,108 1284.75,108 C1284.75,108 1284.75,375 1284.75,375 C1284.75,375 1294.97,375 1311.98,375 " fill="none" id="CorsFilter-backto-CorsProcessor" style="stroke:#000000;stroke-width:1.0;"/><polygon fill="#000000" points="1229.2,108,1235.2,112,1241.2,108,1235.2,104,1229.2,108" style="stroke:#000000;stroke-width:1.0;"/></g><!--reverse link CorsFilter to CorsConfigurationSource--><g id="link_CorsFilter_CorsConfigurationSource"><path codeLine="121" d="M635.656,108 C635.656,108 326,108 326,108 C326,108 326,264.62 326,337.72 " fill="none" id="CorsFilter-backto-CorsConfigurationSource" style="stroke:#000000;stroke-width:1.0;"/><polygon fill="#000000" points="648.656,108,642.656,104,636.656,108,642.656,112,648.656,108" style="stroke:#000000;stroke-width:1.0;"/></g><!--reverse link CorsConfigurationSource to CorsConfiguration--><g id="link_CorsConfigurationSource_CorsConfiguration"><path codeLine="122" d="M326,424.24 C326,424.24 326,545.883 326,545.883 " fill="none" id="CorsConfigurationSource-backto-CorsConfiguration" style="stroke:#000000;stroke-width:1.0;"/><polygon fill="#000000" points="326,411.24,322,417.24,326,423.24,330,417.24,326,411.24" style="stroke:#000000;stroke-width:1.0;"/></g><!--SRC=[jLZRRkCs47tNLx3mYzorWM2V5aQGmecT9e1pGUnqjoXQWv4cCXjPr5AqDqQn_zwHI4aaHJa1jisJHCtbp9aBn_b9Rc0B94yfomB9So8vUU9IyYs9cO18Cfu5nGlBSYhebgGi0td8WN0XDpm8efGM1RdWehZWsJDBTeAM6kIVW90nsTBNQG8Jik1PyajrCfjVJXyNg_Nz_E7cUhMUBXRubHNoT2a5ovApIWXFr_VJrMh-S3iXTu8bBBkdKeB8giyqJVatYA-0nY0AMx_qye5KPjM9gM6PgXMjmpCloflvwkfkjZoETBsuNgwyDaq8Du2qnHxGhLFRsvMKkL8wwuRYjIEWuEdUTMNOKMBmclFY28igE2CeC-uAnOM063B9Q8hgvvodG3F5FutZkMa-LBh32Tbp5jSYKvCIdqYUfuTx45icP_1CTwdyZQOxA48KwbHS1IlYsoSiqD2APMI7Dko4yu4K8ATEH64Ta8cebcl83LtJZMZYCJbqQ8es4BsqYGdRnmQbaxRMRfEvSEZhW3rDMKmb-31uSc0Lh4v5J-IwyjwEl1Nr8dGjrctPCUnBTQLkbTWHG8hc7Yali9jgReKpxT29JdyTjdFDLAhEZh7iepVf8yEBCEd4xXMhkw53u55MdUhgONLCy6Yx4fJXZP0iyHROj1tSJ5vFcxS5RHhJKEqQS2Rpo3klXtqZroIrxbOlJIt4tc5LLL0dU_ef-1wm3Bq-qmYwj2xvJk3vwIbfXSxEglknGjXHg1XQWjYd81_WAyuxwKjNwRQzV2zPYiRrhHjLSihnf0zH9PaB7a5HSA74xklNkXQimz1wQ-aPa9Wh_zTbX1bDFI6CY7LMv3mhO4IKtiK6bu_QeCjcux67Gns3zkCfTiTrFnn4yAJ6SyEjldTi78hbb2S9Y7869FyVZj8H5ebknXL_B20ifK6KUeqHBTwzsWPaGxCuXIOp7cNpgCvB1xtfemKti6UhHyl4u-c-WTLQ7lrkjsbAL4k_Wn7ZKcqTrWF1u_7jItY0AzRVk1dNgUuIwAjbtQB-8cOPaw5kXWgEENtgzWhTsdbFErK6K5hmGzZ2KjNzAsGWMAIqpf4kNTfF-7XBjs2IFd0AVeppeVAEU2MyoacDHh_Nk-ZN7VwAYB5vSX2IGL7AsRlain7sX9Waw4KrspF1iorkC1CoRryKAYm5st4PfNrIJxDp7PPlrNn6for8X1YQ0mwTA5oL-j3cfSnTIs7eNEi6uFAJyLh3Sk3RhyuEPbepdasiU9qzsAmVF06x9L47KeRmMU3cZULcF3j1cKagJRX9ErhGs882S3KzmanTe7TP1FW3G1UySScLF_4UvjFPx-lBwmN- -fhFril7oylhByRoCL0B0FgA3qeLugd4hqyx2NOYLVZ5j3XaqOmLEPNHndyFjxFlX_joG8eDtwNnBTUHsUwTGUl8peNWea_sFxsFJOEtg0cnxVl7RECOUM7vUpblahIKL22Ij-KTseuhV0y2Ovco_yP_34xmxzF7KVMlaZ_7Vn5lUGRUbQ6nyEdZoSaencqPujA4BHLq1xBftT7LX0RU9kc3tF5WHlppUEpiWPwFlbsoR-lrwlmB]--></g></svg>