<?xml version="1.0" encoding="UTF-8" standalone="no"?><svg xmlns="http://www.w3.org/2000/svg" xmlns:xlink="http://www.w3.org/1999/xlink" contentStyleType="text/css" height="1232px" preserveAspectRatio="none" style="width:2113px;height:1232px;background:#FFFFFF;" version="1.1" viewBox="0 0 2113 1232" width="2113px" zoomAndPan="magnify"><defs/><g><!--class HandlerMethod--><g id="elem_HandlerMethod"><rect codeLine="5" fill="#FFFFFF" height="695.875" id="HandlerMethod" rx="2.5" ry="2.5" style="stroke:#000000;stroke-width:1.0;" width="467" x="189.5" y="530"/><ellipse cx="364.25" cy="544" fill="#FFFFFF" rx="9" ry="9" style="stroke:#000000;stroke-width:1.0;"/><path d="M366.5938,539.6719 C365.6563,539.2344 365.0625,539.0938 364.1875,539.0938 C361.5625,539.0938 359.5625,541.1719 359.5625,543.8906 L359.5625,545.0156 C359.5625,547.5938 361.6719,549.4844 364.5625,549.4844 C365.7813,549.4844 366.9375,549.1875 367.6875,548.6406 C368.2656,548.2344 368.5938,547.7813 368.5938,547.3906 C368.5938,546.9375 368.2031,546.5469 367.7344,546.5469 C367.5156,546.5469 367.3125,546.625 367.125,546.8125 C366.6719,547.2969 366.6719,547.2969 366.4844,547.3906 C366.0625,547.6563 365.375,547.7813 364.6094,547.7813 C362.5625,547.7813 361.2656,546.6875 361.2656,544.9844 L361.2656,543.8906 C361.2656,542.1094 362.5156,540.7969 364.25,540.7969 C364.8281,540.7969 365.4375,540.9531 365.9063,541.2031 C366.3906,541.4844 366.5625,541.7031 366.6563,542.1094 C366.7188,542.5156 366.75,542.6406 366.8906,542.7656 C367.0313,542.9063 367.2656,543.0156 367.4844,543.0156 C367.75,543.0156 368.0156,542.875 368.1875,542.6563 C368.2969,542.5 368.3281,542.3125 368.3281,541.8906 L368.3281,540.4688 C368.3281,540.0313 368.3125,539.9063 368.2188,539.75 C368.0625,539.4844 367.7813,539.3438 367.4844,539.3438 C367.1875,539.3438 366.9844,539.4375 366.7656,539.75 L366.5938,539.6719 Z " fill="#000000"/><text fill="#000000" font-family="Verdana" font-size="14" lengthAdjust="spacing" textLength="110" x="381.75" y="548.8467">HandlerMethod</text><line style="stroke:#000000;stroke-width:1.0;" x1="190.5" x2="655.5" y1="558" y2="558"/><rect fill="none" height="6" style="stroke:#000000;stroke-width:1.0;" width="6" x="197.5" y="568.6484"/><text fill="#000000" font-family="Verdana" font-size="14" lengthAdjust="spacing" textLength="334" x="207.5" y="574.9951">resolvedFromHandlerMethod: HandlerMethod?</text><rect fill="none" height="6" style="stroke:#000000;stroke-width:1.0;" width="6" x="197.5" y="584.9453"/><text fill="#000000" font-family="Verdana" font-size="14" lengthAdjust="spacing" textLength="94" x="207.5" y="591.292">bean: Object</text><rect fill="none" height="6" style="stroke:#000000;stroke-width:1.0;" width="6" x="197.5" y="601.2422"/><text fill="#000000" font-family="Verdana" font-size="14" lengthAdjust="spacing" textLength="224" x="207.5" y="607.5889">responseStatusReason: String?</text><rect fill="none" height="6" style="stroke:#000000;stroke-width:1.0;" width="6" x="197.5" y="617.5391"/><text fill="#000000" font-family="Verdana" font-size="14" lengthAdjust="spacing" textLength="196" x="207.5" y="623.8857">beanFactory: BeanFactory?</text><rect fill="none" height="6" style="stroke:#000000;stroke-width:1.0;" width="6" x="197.5" y="633.8359"/><text fill="#000000" font-family="Verdana" font-size="14" lengthAdjust="spacing" textLength="234" x="207.5" y="640.1826">parameters: MethodParameter[]</text><rect fill="none" height="6" style="stroke:#000000;stroke-width:1.0;" width="6" x="197.5" y="650.1328"/><text fill="#000000" font-family="Verdana" font-size="14" lengthAdjust="spacing" textLength="121" x="207.5" y="656.4795">method: Method</text><rect fill="none" height="6" style="stroke:#000000;stroke-width:1.0;" width="6" x="197.5" y="666.4297"/><text fill="#000000" font-family="Verdana" font-size="14" lengthAdjust="spacing" textLength="208" x="207.5" y="672.7764">responseStatus: HttpStatus?</text><polygon fill="none" points="200.5,680.7266,204.5,684.7266,200.5,688.7266,196.5,684.7266" style="stroke:#000000;stroke-width:1.0;"/><text fill="#000000" font-family="Verdana" font-size="14" lengthAdjust="spacing" textLength="81" x="207.5" y="689.0732">logger: Log</text><rect fill="none" height="6" style="stroke:#000000;stroke-width:1.0;" width="6" x="197.5" y="699.0234"/><text fill="#000000" font-family="Verdana" font-size="14" lengthAdjust="spacing" textLength="135" x="207.5" y="705.3701">description: String</text><rect fill="none" height="6" style="stroke:#000000;stroke-width:1.0;" width="6" x="197.5" y="715.3203"/><text fill="#000000" font-family="Verdana" font-size="14" lengthAdjust="spacing" textLength="175" x="207.5" y="721.667">bridgedMethod: Method</text><rect fill="none" height="6" style="stroke:#000000;stroke-width:1.0;" width="6" x="197.5" y="731.6172"/><text fill="#000000" font-family="Verdana" font-size="14" lengthAdjust="spacing" textLength="395" x="207.5" y="737.9639">interfaceParameterAnnotations: List&lt;Annotation[][]&gt;?</text><rect fill="none" height="6" style="stroke:#000000;stroke-width:1.0;" width="6" x="197.5" y="747.9141"/><text fill="#000000" font-family="Verdana" font-size="14" lengthAdjust="spacing" textLength="146" x="207.5" y="754.2607">beanType: Class&lt;?&gt;</text><rect fill="none" height="6" style="stroke:#000000;stroke-width:1.0;" width="6" x="197.5" y="764.2109"/><text fill="#000000" font-family="Verdana" font-size="14" lengthAdjust="spacing" textLength="238" x="207.5" y="770.5576">messageSource: MessageSource?</text><line style="stroke:#000000;stroke-width:1.0;" x1="190.5" x2="655.5" y1="777.8594" y2="777.8594"/><polygon fill="#FFFFFF" points="200.5,786.5078,204.5,790.5078,200.5,794.5078,196.5,790.5078" style="stroke:#000000;stroke-width:1.0;"/><text fill="#000000" font-family="Verdana" font-size="14" lengthAdjust="spacing" textLength="404" x="207.5" y="794.8545">formatArgumentError(MethodParameter, String): String</text><ellipse cx="200.5" cy="807.8047" fill="#FFFFFF" rx="3" ry="3" style="stroke:#000000;stroke-width:1.0;"/><text fill="#000000" font-family="Verdana" font-size="14" lengthAdjust="spacing" textLength="120" x="207.5" y="811.1514">isVoid(): boolean</text><rect fill="#FFFFFF" height="6" style="stroke:#000000;stroke-width:1.0;" width="6" x="197.5" y="821.1016"/><text fill="#000000" font-family="Verdana" font-size="14" lengthAdjust="spacing" textLength="322" x="207.5" y="827.4482">initMethodParameters(): MethodParameter[]</text><ellipse cx="200.5" cy="840.3984" fill="#FFFFFF" rx="3" ry="3" style="stroke:#000000;stroke-width:1.0;"/><text fill="#000000" font-family="Verdana" font-size="14" lengthAdjust="spacing" textLength="178" x="207.5" y="843.7451">equals(Object?): boolean</text><ellipse cx="200.5" cy="856.6953" fill="#FFFFFF" rx="3" ry="3" style="stroke:#000000;stroke-width:1.0;"/><text fill="#000000" font-family="Verdana" font-size="14" lengthAdjust="spacing" textLength="311" x="207.5" y="860.042">createWithResolvedBean(): HandlerMethod</text><polygon fill="#FFFFFF" points="200.5,867.9922,204.5,871.9922,200.5,875.9922,196.5,871.9922" style="stroke:#000000;stroke-width:1.0;"/><text fill="#000000" font-family="Verdana" font-size="14" lengthAdjust="spacing" textLength="210" x="207.5" y="876.3389">getBridgedMethod(): Method</text><polygon fill="#FFFFFF" points="200.5,884.2891,204.5,888.2891,200.5,892.2891,196.5,888.2891" style="stroke:#000000;stroke-width:1.0;"/><text fill="#000000" font-family="Verdana" font-size="14" lengthAdjust="spacing" textLength="356" x="207.5" y="892.6357">assertTargetBean(Method, Object, Object[]): void</text><ellipse cx="200.5" cy="905.5859" fill="#FFFFFF" rx="3" ry="3" style="stroke:#000000;stroke-width:1.0;"/><text fill="#000000" font-family="Verdana" font-size="14" lengthAdjust="spacing" textLength="355" x="207.5" y="908.9326">getReturnValueType(Object?): MethodParameter</text><polygon fill="#FFFFFF" points="200.5,916.8828,204.5,920.8828,200.5,924.8828,196.5,920.8828" style="stroke:#000000;stroke-width:1.0;"/><text fill="#000000" font-family="Verdana" font-size="14" lengthAdjust="spacing" textLength="443" x="207.5" y="925.2295">findProvidedArgument(MethodParameter, Object[]?): Object?</text><ellipse cx="200.5" cy="938.1797" fill="#FFFFFF" rx="3" ry="3" style="stroke:#000000;stroke-width:1.0;"/><text fill="#000000" font-family="Verdana" font-size="14" lengthAdjust="spacing" textLength="373" x="207.5" y="941.5264">getResolvedFromHandlerMethod(): HandlerMethod?</text><ellipse cx="200.5" cy="954.4766" fill="#FFFFFF" rx="3" ry="3" style="stroke:#000000;stroke-width:1.0;"/><text fill="#000000" font-family="Verdana" font-size="14" lengthAdjust="spacing" textLength="323" x="207.5" y="957.8232">getMethodParameters(): MethodParameter[]</text><rect fill="#FFFFFF" height="6" style="stroke:#000000;stroke-width:1.0;" width="6" x="197.5" y="967.7734"/><text fill="#000000" font-family="Verdana" font-size="14" lengthAdjust="spacing" textLength="299" x="207.5" y="974.1201">initDescription(Class&lt;?&gt;, Method): String</text><polygon fill="#FFFFFF" points="200.5,982.0703,204.5,986.0703,200.5,990.0703,196.5,986.0703" style="stroke:#000000;stroke-width:1.0;"/><text fill="#000000" font-family="Verdana" font-size="14" lengthAdjust="spacing" textLength="308" x="207.5" y="990.417">formatInvokeError(String, Object[]): String</text><ellipse cx="200.5" cy="1003.3672" fill="#FFFFFF" rx="3" ry="3" style="stroke:#000000;stroke-width:1.0;"/><text fill="#000000" font-family="Verdana" font-size="14" lengthAdjust="spacing" textLength="129" x="207.5" y="1006.7139">getBean(): Object</text><ellipse cx="200.5" cy="1019.6641" fill="#FFFFFF" rx="3" ry="3" style="stroke:#000000;stroke-width:1.0;"/><text fill="#000000" font-family="Verdana" font-size="14" lengthAdjust="spacing" textLength="154" x="207.5" y="1023.0107">getMethod(): Method</text><polygon fill="#FFFFFF" points="200.5,1030.9609,204.5,1034.9609,200.5,1038.9609,196.5,1034.9609" style="stroke:#000000;stroke-width:1.0;"/><text fill="#000000" font-family="Verdana" font-size="14" lengthAdjust="spacing" textLength="247" x="207.5" y="1039.3076">getResponseStatus(): HttpStatus?</text><rect fill="#FFFFFF" height="6" style="stroke:#000000;stroke-width:1.0;" width="6" x="197.5" y="1049.2578"/><text fill="#000000" font-family="Verdana" font-size="14" lengthAdjust="spacing" textLength="423" x="207.5" y="1055.6045">getInterfaceParameterAnnotations(): List&lt;Annotation[][]&gt;</text><ellipse cx="200.5" cy="1068.5547" fill="#FFFFFF" rx="3" ry="3" style="stroke:#000000;stroke-width:1.0;"/><text fill="#000000" font-family="Verdana" font-size="14" lengthAdjust="spacing" textLength="109" x="207.5" y="1071.9014">hashCode(): int</text><ellipse cx="200.5" cy="1084.8516" fill="#FFFFFF" rx="3" ry="3" style="stroke:#000000;stroke-width:1.0;"/><text fill="#000000" font-family="Verdana" font-size="14" lengthAdjust="spacing" textLength="260" x="207.5" y="1088.1982">getReturnType(): MethodParameter</text><rect fill="#FFFFFF" height="6" style="stroke:#000000;stroke-width:1.0;" width="6" x="197.5" y="1098.1484"/><text fill="#000000" font-family="Verdana" font-size="14" lengthAdjust="spacing" textLength="226" x="207.5" y="1104.4951">evaluateResponseStatus(): void</text><ellipse cx="200.5" cy="1117.4453" fill="#FFFFFF" rx="3" ry="3" style="stroke:#000000;stroke-width:1.0;"/><text fill="#000000" font-family="Verdana" font-size="14" lengthAdjust="spacing" textLength="305" x="207.5" y="1120.792">hasMethodAnnotation(Class&lt;A&gt;): boolean</text><ellipse cx="200.5" cy="1133.7422" fill="#FFFFFF" rx="3" ry="3" style="stroke:#000000;stroke-width:1.0;"/><text fill="#000000" font-family="Verdana" font-size="14" lengthAdjust="spacing" textLength="123" x="207.5" y="1137.0889">toString(): String</text><rect fill="#FFFFFF" height="6" style="stroke:#000000;stroke-width:1.0;" width="6" x="197.5" y="1147.0391"/><text fill="#000000" font-family="Verdana" font-size="14" lengthAdjust="spacing" textLength="228" x="207.5" y="1153.3857">isOverrideFor(Method): boolean</text><ellipse cx="200.5" cy="1166.3359" fill="#FFFFFF" rx="3" ry="3" style="stroke:#000000;stroke-width:1.0;"/><text fill="#000000" font-family="Verdana" font-size="14" lengthAdjust="spacing" textLength="181" x="207.5" y="1169.6826">getBeanType(): Class&lt;?&gt;</text><polygon fill="#FFFFFF" points="200.5,1177.6328,204.5,1181.6328,200.5,1185.6328,196.5,1181.6328" style="stroke:#000000;stroke-width:1.0;"/><text fill="#000000" font-family="Verdana" font-size="14" lengthAdjust="spacing" textLength="263" x="207.5" y="1185.9795">getResponseStatusReason(): String?</text><ellipse cx="200.5" cy="1198.9297" fill="#FFFFFF" rx="3" ry="3" style="stroke:#000000;stroke-width:1.0;"/><text fill="#000000" font-family="Verdana" font-size="14" lengthAdjust="spacing" textLength="265" x="207.5" y="1202.2764">getMethodAnnotation(Class&lt;A&gt;): A?</text><ellipse cx="200.5" cy="1215.2266" fill="#FFFFFF" rx="3" ry="3" style="stroke:#000000;stroke-width:1.0;"/><text fill="#000000" font-family="Verdana" font-size="14" lengthAdjust="spacing" textLength="215" x="207.5" y="1218.5732">getShortLogMessage(): String</text></g><!--class HandlerMethodArgumentResolver--><g id="elem_HandlerMethodArgumentResolver"><rect codeLine="47" fill="#FFFFFF" height="88.8594" id="HandlerMethodArgumentResolver" rx="2.5" ry="2.5" style="stroke:#000000;stroke-width:1.0;" width="874" x="692" y="833.5"/><ellipse cx="1003.75" cy="853.6328" fill="#FFFFFF" rx="9" ry="9" style="stroke:#000000;stroke-width:1.0;"/><path d="M1004.7031,850.4141 L1006.4219,850.4141 C1006.8125,850.4141 1007,850.3828 1007.125,850.3047 C1007.3906,850.1484 1007.5313,849.8672 1007.5313,849.5703 C1007.5313,849.3047 1007.4219,849.0391 1007.1875,848.8672 C1007.0156,848.7578 1006.875,848.7266 1006.4219,848.7266 L1001.2813,848.7266 C1000.8438,848.7266 1000.7188,848.7422 1000.5625,848.8359 C1000.3125,848.9922 1000.1563,849.2891 1000.1563,849.5703 C1000.1563,849.8516 1000.2969,850.1016 1000.5156,850.2734 C1000.6719,850.3828 1000.8594,850.4141 1001.2813,850.4141 L1003,850.4141 L1003,856.9297 L1001.2813,856.9297 C1000.8438,856.9297 1000.7188,856.9453 1000.5625,857.0547 C1000.3125,857.2109 1000.1563,857.4922 1000.1563,857.7891 C1000.1563,858.0391 1000.2969,858.3047 1000.5156,858.4609 C1000.6719,858.5859 1000.875,858.6328 1001.2813,858.6328 L1006.4219,858.6328 C1007.1719,858.6328 1007.5313,858.3516 1007.5313,857.7891 C1007.5313,857.5078 1007.4219,857.2578 1007.1875,857.0859 C1007.0156,856.9609 1006.875,856.9297 1006.4219,856.9297 L1004.7031,856.9297 L1004.7031,850.4141 Z " fill="#000000"/><text fill="#000000" font-family="Verdana" font-size="12" font-style="italic" lengthAdjust="spacing" textLength="67" x="1109.25" y="849.6387">«interface»</text><text fill="#000000" font-family="Verdana" font-size="14" font-style="italic" lengthAdjust="spacing" textLength="243" x="1021.25" y="865.4639">HandlerMethodArgumentResolver</text><line style="stroke:#000000;stroke-width:1.0;" x1="693" x2="1565" y1="873.7656" y2="873.7656"/><line style="stroke:#000000;stroke-width:1.0;" x1="693" x2="1565" y1="881.7656" y2="881.7656"/><ellipse cx="703" cy="895.4141" fill="#FFFFFF" rx="3" ry="3" style="stroke:#000000;stroke-width:1.0;"/><text fill="#000000" font-family="Verdana" font-size="14" lengthAdjust="spacing" textLength="850" x="710" y="898.7607">resolveArgument(MethodParameter, ModelAndViewContainer?, NativeWebRequest, WebDataBinderFactory?): Object?</text><ellipse cx="703" cy="911.7109" fill="#FFFFFF" rx="3" ry="3" style="stroke:#000000;stroke-width:1.0;"/><text fill="#000000" font-family="Verdana" font-size="14" lengthAdjust="spacing" textLength="348" x="710" y="915.0576">supportsParameter(MethodParameter): boolean</text></g><!--class HandlerMethodReturnValueHandler--><g id="elem_HandlerMethodReturnValueHandler"><rect codeLine="51" fill="#FFFFFF" height="88.8594" id="HandlerMethodReturnValueHandler" rx="2.5" ry="2.5" style="stroke:#000000;stroke-width:1.0;" width="734" x="12" y="322"/><ellipse cx="247.25" cy="342.1328" fill="#FFFFFF" rx="9" ry="9" style="stroke:#000000;stroke-width:1.0;"/><path d="M248.2031,338.9141 L249.9219,338.9141 C250.3125,338.9141 250.5,338.8828 250.625,338.8047 C250.8906,338.6484 251.0313,338.3672 251.0313,338.0703 C251.0313,337.8047 250.9219,337.5391 250.6875,337.3672 C250.5156,337.2578 250.375,337.2266 249.9219,337.2266 L244.7813,337.2266 C244.3438,337.2266 244.2188,337.2422 244.0625,337.3359 C243.8125,337.4922 243.6563,337.7891 243.6563,338.0703 C243.6563,338.3516 243.7969,338.6016 244.0156,338.7734 C244.1719,338.8828 244.3594,338.9141 244.7813,338.9141 L246.5,338.9141 L246.5,345.4297 L244.7813,345.4297 C244.3438,345.4297 244.2188,345.4453 244.0625,345.5547 C243.8125,345.7109 243.6563,345.9922 243.6563,346.2891 C243.6563,346.5391 243.7969,346.8047 244.0156,346.9609 C244.1719,347.0859 244.375,347.1328 244.7813,347.1328 L249.9219,347.1328 C250.6719,347.1328 251.0313,346.8516 251.0313,346.2891 C251.0313,346.0078 250.9219,345.7578 250.6875,345.5859 C250.5156,345.4609 250.375,345.4297 249.9219,345.4297 L248.2031,345.4297 L248.2031,338.9141 Z " fill="#000000"/><text fill="#000000" font-family="Verdana" font-size="12" font-style="italic" lengthAdjust="spacing" textLength="67" x="359.25" y="338.1387">«interface»</text><text fill="#000000" font-family="Verdana" font-size="14" font-style="italic" lengthAdjust="spacing" textLength="256" x="264.75" y="353.9639">HandlerMethodReturnValueHandler</text><line style="stroke:#000000;stroke-width:1.0;" x1="13" x2="745" y1="362.2656" y2="362.2656"/><line style="stroke:#000000;stroke-width:1.0;" x1="13" x2="745" y1="370.2656" y2="370.2656"/><ellipse cx="23" cy="383.9141" fill="#FFFFFF" rx="3" ry="3" style="stroke:#000000;stroke-width:1.0;"/><text fill="#000000" font-family="Verdana" font-size="14" lengthAdjust="spacing" textLength="357" x="30" y="387.2607">supportsReturnType(MethodParameter): boolean</text><ellipse cx="23" cy="400.2109" fill="#FFFFFF" rx="3" ry="3" style="stroke:#000000;stroke-width:1.0;"/><text fill="#000000" font-family="Verdana" font-size="14" lengthAdjust="spacing" textLength="710" x="30" y="403.5576">handleReturnValue(Object?, MethodParameter, ModelAndViewContainer, NativeWebRequest): void</text></g><!--class InvocableHandlerMethod--><g id="elem_InvocableHandlerMethod"><rect codeLine="55" fill="#FFFFFF" height="206.9688" id="InvocableHandlerMethod" rx="2.5" ry="2.5" style="stroke:#000000;stroke-width:1.0;" width="696" x="781" y="263"/><ellipse cx="1035.75" cy="277" fill="#FFFFFF" rx="9" ry="9" style="stroke:#000000;stroke-width:1.0;"/><path d="M1038.0938,272.6719 C1037.1563,272.2344 1036.5625,272.0938 1035.6875,272.0938 C1033.0625,272.0938 1031.0625,274.1719 1031.0625,276.8906 L1031.0625,278.0156 C1031.0625,280.5938 1033.1719,282.4844 1036.0625,282.4844 C1037.2813,282.4844 1038.4375,282.1875 1039.1875,281.6406 C1039.7656,281.2344 1040.0938,280.7813 1040.0938,280.3906 C1040.0938,279.9375 1039.7031,279.5469 1039.2344,279.5469 C1039.0156,279.5469 1038.8125,279.625 1038.625,279.8125 C1038.1719,280.2969 1038.1719,280.2969 1037.9844,280.3906 C1037.5625,280.6563 1036.875,280.7813 1036.1094,280.7813 C1034.0625,280.7813 1032.7656,279.6875 1032.7656,277.9844 L1032.7656,276.8906 C1032.7656,275.1094 1034.0156,273.7969 1035.75,273.7969 C1036.3281,273.7969 1036.9375,273.9531 1037.4063,274.2031 C1037.8906,274.4844 1038.0625,274.7031 1038.1563,275.1094 C1038.2188,275.5156 1038.25,275.6406 1038.3906,275.7656 C1038.5313,275.9063 1038.7656,276.0156 1038.9844,276.0156 C1039.25,276.0156 1039.5156,275.875 1039.6875,275.6563 C1039.7969,275.5 1039.8281,275.3125 1039.8281,274.8906 L1039.8281,273.4688 C1039.8281,273.0313 1039.8125,272.9063 1039.7188,272.75 C1039.5625,272.4844 1039.2813,272.3438 1038.9844,272.3438 C1038.6875,272.3438 1038.4844,272.4375 1038.2656,272.75 L1038.0938,272.6719 Z " fill="#000000"/><text fill="#000000" font-family="Verdana" font-size="14" lengthAdjust="spacing" textLength="179" x="1053.25" y="281.8467">InvocableHandlerMethod</text><line style="stroke:#000000;stroke-width:1.0;" x1="782" x2="1476" y1="291" y2="291"/><rect fill="none" height="6" style="stroke:#000000;stroke-width:1.0;" width="6" x="789" y="301.6484"/><text fill="#000000" font-family="Verdana" font-size="14" lengthAdjust="spacing" textLength="317" x="799" y="307.9951">dataBinderFactory: WebDataBinderFactory?</text><rect fill="none" height="6" style="stroke:#000000;stroke-width:1.0;" width="6" x="789" y="317.9453"/><text fill="#000000" font-family="Verdana" font-size="14" lengthAdjust="spacing" textLength="397" x="799" y="324.292">resolvers: HandlerMethodArgumentResolverComposite</text><rect fill="none" height="6" style="stroke:#000000;stroke-width:1.0;" width="6" x="789" y="334.2422"/><text fill="#000000" font-family="Verdana" font-size="14" lengthAdjust="spacing" textLength="163" x="799" y="340.5889">EMPTY_ARGS: Object[]</text><rect fill="none" height="6" style="stroke:#000000;stroke-width:1.0;" width="6" x="789" y="350.5391"/><text fill="#000000" font-family="Verdana" font-size="14" lengthAdjust="spacing" textLength="398" x="799" y="356.8857">parameterNameDiscoverer: ParameterNameDiscoverer</text><line style="stroke:#000000;stroke-width:1.0;" x1="782" x2="1476" y1="364.1875" y2="364.1875"/><ellipse cx="792" cy="377.8359" fill="#FFFFFF" rx="3" ry="3" style="stroke:#000000;stroke-width:1.0;"/><text fill="#000000" font-family="Verdana" font-size="14" lengthAdjust="spacing" textLength="375" x="799" y="381.1826">setDataBinderFactory(WebDataBinderFactory): void</text><ellipse cx="792" cy="394.1328" fill="#FFFFFF" rx="3" ry="3" style="stroke:#000000;stroke-width:1.0;"/><text fill="#000000" font-family="Verdana" font-size="14" lengthAdjust="spacing" textLength="601" x="799" y="397.4795">invokeForRequest(NativeWebRequest, ModelAndViewContainer?, Object[]): Object?</text><polygon fill="#FFFFFF" points="792,405.4297,796,409.4297,792,413.4297,788,409.4297" style="stroke:#000000;stroke-width:1.0;"/><text fill="#000000" font-family="Verdana" font-size="14" lengthAdjust="spacing" textLength="672" x="799" y="413.7764">getMethodArgumentValues(NativeWebRequest, ModelAndViewContainer?, Object[]): Object[]</text><polygon fill="#FFFFFF" points="792,421.7266,796,425.7266,792,429.7266,788,425.7266" style="stroke:#000000;stroke-width:1.0;"/><text fill="#000000" font-family="Verdana" font-size="14" lengthAdjust="spacing" textLength="200" x="799" y="430.0732">doInvoke(Object[]): Object?</text><ellipse cx="792" cy="443.0234" fill="#FFFFFF" rx="3" ry="3" style="stroke:#000000;stroke-width:1.0;"/><text fill="#000000" font-family="Verdana" font-size="14" lengthAdjust="spacing" textLength="460" x="799" y="446.3701">setParameterNameDiscoverer(ParameterNameDiscoverer): void</text><ellipse cx="792" cy="459.3203" fill="#FFFFFF" rx="3" ry="3" style="stroke:#000000;stroke-width:1.0;"/><text fill="#000000" font-family="Verdana" font-size="14" lengthAdjust="spacing" textLength="646" x="799" y="462.667">setHandlerMethodArgumentResolvers(HandlerMethodArgumentResolverComposite): void</text></g><!--class ServletInvocableHandlerMethod--><g id="elem_ServletInvocableHandlerMethod"><rect codeLine="67" fill="#FFFFFF" height="190.6719" id="ServletInvocableHandlerMethod" rx="2.5" ry="2.5" style="stroke:#000000;stroke-width:1.0;" width="688" x="410" y="12"/><ellipse cx="634.75" cy="26" fill="#FFFFFF" rx="9" ry="9" style="stroke:#000000;stroke-width:1.0;"/><path d="M637.0938,21.6719 C636.1563,21.2344 635.5625,21.0938 634.6875,21.0938 C632.0625,21.0938 630.0625,23.1719 630.0625,25.8906 L630.0625,27.0156 C630.0625,29.5938 632.1719,31.4844 635.0625,31.4844 C636.2813,31.4844 637.4375,31.1875 638.1875,30.6406 C638.7656,30.2344 639.0938,29.7813 639.0938,29.3906 C639.0938,28.9375 638.7031,28.5469 638.2344,28.5469 C638.0156,28.5469 637.8125,28.625 637.625,28.8125 C637.1719,29.2969 637.1719,29.2969 636.9844,29.3906 C636.5625,29.6563 635.875,29.7813 635.1094,29.7813 C633.0625,29.7813 631.7656,28.6875 631.7656,26.9844 L631.7656,25.8906 C631.7656,24.1094 633.0156,22.7969 634.75,22.7969 C635.3281,22.7969 635.9375,22.9531 636.4063,23.2031 C636.8906,23.4844 637.0625,23.7031 637.1563,24.1094 C637.2188,24.5156 637.25,24.6406 637.3906,24.7656 C637.5313,24.9063 637.7656,25.0156 637.9844,25.0156 C638.25,25.0156 638.5156,24.875 638.6875,24.6563 C638.7969,24.5 638.8281,24.3125 638.8281,23.8906 L638.8281,22.4688 C638.8281,22.0313 638.8125,21.9063 638.7188,21.75 C638.5625,21.4844 638.2813,21.3438 637.9844,21.3438 C637.6875,21.3438 637.4844,21.4375 637.2656,21.75 L637.0938,21.6719 Z " fill="#000000"/><text fill="#000000" font-family="Verdana" font-size="14" lengthAdjust="spacing" textLength="231" x="652.25" y="30.8467">ServletInvocableHandlerMethod</text><line style="stroke:#000000;stroke-width:1.0;" x1="411" x2="1097" y1="40" y2="40"/><rect fill="none" height="6" style="stroke:#000000;stroke-width:1.0;" width="6" x="418" y="50.6484"/><text fill="#000000" font-family="Verdana" font-size="14" lengthAdjust="spacing" textLength="494" x="428" y="56.9951">returnValueHandlers: HandlerMethodReturnValueHandlerComposite?</text><rect fill="none" height="6" style="stroke:#000000;stroke-width:1.0;" width="6" x="418" y="66.9453"/><text fill="#000000" font-family="Verdana" font-size="14" lengthAdjust="spacing" textLength="206" x="428" y="73.292">CALLABLE_METHOD: Method</text><line style="stroke:#000000;stroke-width:1.0;" x1="411" x2="1097" y1="80.5938" y2="80.5938"/><rect fill="#FFFFFF" height="6" style="stroke:#000000;stroke-width:1.0;" width="6" x="418" y="91.2422"/><text fill="#000000" font-family="Verdana" font-size="14" lengthAdjust="spacing" textLength="379" x="428" y="97.5889">isRequestNotModified(ServletWebRequest): boolean</text><ellipse cx="421" cy="110.5391" fill="#FFFFFF" rx="3" ry="3" style="stroke:#000000;stroke-width:1.0;"/><text fill="#000000" font-family="Verdana" font-size="14" lengthAdjust="spacing" textLength="569" x="428" y="113.8857">invokeAndHandle(ServletWebRequest, ModelAndViewContainer, Object[]): void</text><rect fill="#FFFFFF" height="6" style="stroke:#000000;stroke-width:1.0;" width="6" x="418" y="123.8359"/><text fill="#000000" font-family="Verdana" font-size="14" lengthAdjust="spacing" textLength="443" x="428" y="130.1826">disableContentCachingIfNecessary(ServletWebRequest): void</text><rect fill="#FFFFFF" height="6" style="stroke:#000000;stroke-width:1.0;" width="6" x="418" y="140.1328"/><text fill="#000000" font-family="Verdana" font-size="14" lengthAdjust="spacing" textLength="316" x="428" y="146.4795">formatErrorForReturnValue(Object?): String</text><polygon fill="#FFFFFF" points="421,155.4297,417,161.4297,425,161.4297" style="stroke:#000000;stroke-width:1.0;"/><text fill="#000000" font-family="Verdana" font-size="14" lengthAdjust="spacing" textLength="460" x="428" y="162.7764">wrapConcurrentResult(Object): ServletInvocableHandlerMethod</text><ellipse cx="421" cy="175.7266" fill="#FFFFFF" rx="3" ry="3" style="stroke:#000000;stroke-width:1.0;"/><text fill="#000000" font-family="Verdana" font-size="14" lengthAdjust="spacing" textLength="664" x="428" y="179.0732">setHandlerMethodReturnValueHandlers(HandlerMethodReturnValueHandlerComposite): void</text><rect fill="#FFFFFF" height="6" style="stroke:#000000;stroke-width:1.0;" width="6" x="418" y="189.0234"/><text fill="#000000" font-family="Verdana" font-size="14" lengthAdjust="spacing" textLength="332" x="428" y="195.3701">setResponseStatus(ServletWebRequest): void</text></g><!--class WebDataBinderFactory--><g id="elem_WebDataBinderFactory"><rect codeLine="78" fill="#FFFFFF" height="72.5625" id="WebDataBinderFactory" rx="2.5" ry="2.5" style="stroke:#000000;stroke-width:1.0;" width="505" x="1601.5" y="841.5"/><ellipse cx="1767.25" cy="861.6328" fill="#FFFFFF" rx="9" ry="9" style="stroke:#000000;stroke-width:1.0;"/><path d="M1768.2031,858.4141 L1769.9219,858.4141 C1770.3125,858.4141 1770.5,858.3828 1770.625,858.3047 C1770.8906,858.1484 1771.0313,857.8672 1771.0313,857.5703 C1771.0313,857.3047 1770.9219,857.0391 1770.6875,856.8672 C1770.5156,856.7578 1770.375,856.7266 1769.9219,856.7266 L1764.7813,856.7266 C1764.3438,856.7266 1764.2188,856.7422 1764.0625,856.8359 C1763.8125,856.9922 1763.6563,857.2891 1763.6563,857.5703 C1763.6563,857.8516 1763.7969,858.1016 1764.0156,858.2734 C1764.1719,858.3828 1764.3594,858.4141 1764.7813,858.4141 L1766.5,858.4141 L1766.5,864.9297 L1764.7813,864.9297 C1764.3438,864.9297 1764.2188,864.9453 1764.0625,865.0547 C1763.8125,865.2109 1763.6563,865.4922 1763.6563,865.7891 C1763.6563,866.0391 1763.7969,866.3047 1764.0156,866.4609 C1764.1719,866.5859 1764.375,866.6328 1764.7813,866.6328 L1769.9219,866.6328 C1770.6719,866.6328 1771.0313,866.3516 1771.0313,865.7891 C1771.0313,865.5078 1770.9219,865.2578 1770.6875,865.0859 C1770.5156,864.9609 1770.375,864.9297 1769.9219,864.9297 L1768.2031,864.9297 L1768.2031,858.4141 Z " fill="#000000"/><text fill="#000000" font-family="Verdana" font-size="12" font-style="italic" lengthAdjust="spacing" textLength="67" x="1834.25" y="857.6387">«interface»</text><text fill="#000000" font-family="Verdana" font-size="14" font-style="italic" lengthAdjust="spacing" textLength="166" x="1784.75" y="873.4639">WebDataBinderFactory</text><line style="stroke:#000000;stroke-width:1.0;" x1="1602.5" x2="2105.5" y1="881.7656" y2="881.7656"/><line style="stroke:#000000;stroke-width:1.0;" x1="1602.5" x2="2105.5" y1="889.7656" y2="889.7656"/><ellipse cx="1612.5" cy="903.4141" fill="#FFFFFF" rx="3" ry="3" style="stroke:#000000;stroke-width:1.0;"/><text fill="#000000" font-family="Verdana" font-size="14" lengthAdjust="spacing" textLength="481" x="1619.5" y="906.7607">createBinder(NativeWebRequest, Object?, String): WebDataBinder</text></g><!--link InvocableHandlerMethod to HandlerMethod--><g id="link_InvocableHandlerMethod_HandlerMethod"><path codeLine="82" d="M780.912,441 C602.79,441 423,441 423,441 C423,441 423,509.96 423,509.96 " fill="none" id="InvocableHandlerMethod-to-HandlerMethod" style="stroke:#000082;stroke-width:1.0;"/><polygon fill="none" points="430,509.96,423,529.96,416,509.96,430,509.96" style="stroke:#000082;stroke-width:1.0;"/></g><!--link ServletInvocableHandlerMethod to InvocableHandlerMethod--><g id="link_ServletInvocableHandlerMethod_InvocableHandlerMethod"><path codeLine="83" d="M939.5,203.21 C939.5,203.21 939.5,242.919 939.5,242.919 " fill="none" id="ServletInvocableHandlerMethod-to-InvocableHandlerMethod" style="stroke:#000082;stroke-width:1.0;"/><polygon fill="none" points="946.5,242.919,939.5,262.919,932.5,242.919,946.5,242.919" style="stroke:#000082;stroke-width:1.0;"/></g><!--reverse link InvocableHandlerMethod to WebDataBinderFactory--><g id="link_InvocableHandlerMethod_WebDataBinderFactory"><path codeLine="84" d="M1490.17,367 C1490.17,367 1854,367 1854,367 C1854,367 1854,724.082 1854,841.25 " fill="none" id="InvocableHandlerMethod-backto-WebDataBinderFactory" style="stroke:#000000;stroke-width:1.0;"/><polygon fill="#000000" points="1477.17,367,1483.17,371,1489.17,367,1483.17,363,1477.17,367" style="stroke:#000000;stroke-width:1.0;"/></g><!--reverse link InvocableHandlerMethod to HandlerMethodArgumentResolver--><g id="link_InvocableHandlerMethod_HandlerMethodArgumentResolver"><path codeLine="85" d="M1129,483.01 C1129,483.01 1129,833.384 1129,833.384 " fill="none" id="InvocableHandlerMethod-backto-HandlerMethodArgumentResolver" style="stroke:#000000;stroke-width:1.0;"/><polygon fill="#000000" points="1129,470.01,1125,476.01,1129,482.01,1133,476.01,1129,470.01" style="stroke:#000000;stroke-width:1.0;"/></g><!--reverse link ServletInvocableHandlerMethod to HandlerMethodReturnValueHandler--><g id="link_ServletInvocableHandlerMethod_HandlerMethodReturnValueHandler"><path codeLine="86" d="M578,216.21 C578,216.21 578,321.85 578,321.85 " fill="none" id="ServletInvocableHandlerMethod-backto-HandlerMethodReturnValueHandler" style="stroke:#000000;stroke-width:1.0;"/><polygon fill="#000000" points="578,203.21,574,209.21,578,215.21,582,209.21,578,203.21" style="stroke:#000000;stroke-width:1.0;"/></g><!--SRC=[fLTRRzCm57xlhp3QIyPQ2V64ggbJrsqmgTscTXf2LK5kSjOQqZZOJX52yDivlYHnhaoYBrtZS_tEznrdhzGU3a3IcB9ae7XA52TRhXG_a8W921NZoK1-OqbA1JsGc2MWVgP0k51xFXY4CPMIVA1958DO03wBoAy18ICYGFBu2D6Du8VA-RXgVc6ijq2JCRdVViMCkNlA4mahHLKcbq0bHuEL4YpPbIutD5HS_1oJo_A7FJNbWW8XnyGcUiYVh3V6uk2giQSjIR5GfLBxjmvwGcA-su4OapdV6Vi8P2XOgZ7AQxEb2HRj85eqCx042tYc8HJLJ9E4OmeCWGddJAhpyibwizvCocuV4VWncMd8poychWafwGvMF1CXw4pUJrlpCnS7ggPYbnqWKTT2S17K01cwsa-z9iu8aq-SHG4-t78UOthN05CrTwbjsZ0-8_0zex4Cx5mlAg7EI2Y0AlZ8r7xfkAAdg8DL26Aws86wz44jKvfZH0I4UgH2s-aWzcpe69L_hpVeTiIkJ7wqNOBAHF94ummqk5wXjNuib2o97WG_iWYY7D0cbdag7SN5AzDrQABHTE7oKgpjPAvAGWOvJuREtfzkJelRvCY_WIM5FQn0vR4X1_RKKwbNO6qUjbTFIwR1Yff6skYsJmxQfqqG9lEUolsCHw2DK5JLWPfPjWvnHE28qqRUDUihY86nhMUPsA4vdTGuhBZ5A3YjB00cxuyWaB1mKyYjvka0pKlrLDq2dzr_PP8QFThhd1PMgpskQrnQRZrunVuU51kfIi2StuwoWfoVbykBJ2Pcov_bMxvR3GkSKJnDeYS6FsOyKNZDWBWOaZiizmWVORl47G4I9Of_Nr55Br5a8F9TNjEGpD8KMv55Wdf23-JErZpHk-STpUNPF59rfxF4qU6y-Fb26PAN0TF49UVbRtVLQiM6T1j3svqRrV4RjwFgNz3wWkoT_8mVKYwP0kDrlNXu_FHbkdo_6XURedhXtk7N5PCXHrzzMJwq7rY4GJMg2zfAzkN9pD92OJc8WYQNkbZdxRQILYUUa5plPdZoVm8RL4v8nEsA3Lep6m0wy0awdlj8e7Vlw6JmiidMIRO2SOn1zN9DD5HK9r9JPqL2oy3PT3wVNiwllook7p_SNrLVbAJ3_8uh19qzCuW2LrT57Rx-B3DmF3PVqxvJTitt0rGJaxfvROMWpMYunurv-tm7eLwZIDIsSWflUy6QgzLGjR4J_1lZ3_aXQ8gPmam8Ew4iLivI6_ODf9KAJV1hPEYPZj-6RDpadLtx2xTDmnrRrhu6MiiMnHKRj7X7hSJ6h8CEdfQVqVha3NxUlHsQ_tCsey-4TDdcdq6_23gYTaoe8yZhqQWLgJxxNaN_e-Y6VvC4Vm40]--></g></svg>