<?xml version="1.0" encoding="UTF-8" standalone="no"?><svg xmlns="http://www.w3.org/2000/svg" xmlns:xlink="http://www.w3.org/1999/xlink" contentStyleType="text/css" height="673px" preserveAspectRatio="none" style="width:649px;height:673px;background:#FFFFFF;" version="1.1" viewBox="0 0 649 673" width="649px" zoomAndPan="magnify"><defs/><g><!--class AbstractFlashMapManager--><g id="elem_AbstractFlashMapManager"><rect codeLine="5" fill="#FFFFFF" height="337.3438" id="AbstractFlashMapManager" rx="2.5" ry="2.5" style="stroke:#000000;stroke-width:1.0;" width="628" x="14" y="181"/><ellipse cx="229.25" cy="195" fill="#FFFFFF" rx="9" ry="9" style="stroke:#000000;stroke-width:1.0;"/><path d="M231.5938,190.6719 C230.6563,190.2344 230.0625,190.0938 229.1875,190.0938 C226.5625,190.0938 224.5625,192.1719 224.5625,194.8906 L224.5625,196.0156 C224.5625,198.5938 226.6719,200.4844 229.5625,200.4844 C230.7813,200.4844 231.9375,200.1875 232.6875,199.6406 C233.2656,199.2344 233.5938,198.7813 233.5938,198.3906 C233.5938,197.9375 233.2031,197.5469 232.7344,197.5469 C232.5156,197.5469 232.3125,197.625 232.125,197.8125 C231.6719,198.2969 231.6719,198.2969 231.4844,198.3906 C231.0625,198.6563 230.375,198.7813 229.6094,198.7813 C227.5625,198.7813 226.2656,197.6875 226.2656,195.9844 L226.2656,194.8906 C226.2656,193.1094 227.5156,191.7969 229.25,191.7969 C229.8281,191.7969 230.4375,191.9531 230.9063,192.2031 C231.3906,192.4844 231.5625,192.7031 231.6563,193.1094 C231.7188,193.5156 231.75,193.6406 231.8906,193.7656 C232.0313,193.9063 232.2656,194.0156 232.4844,194.0156 C232.75,194.0156 233.0156,193.875 233.1875,193.6563 C233.2969,193.5 233.3281,193.3125 233.3281,192.8906 L233.3281,191.4688 C233.3281,191.0313 233.3125,190.9063 233.2188,190.75 C233.0625,190.4844 232.7813,190.3438 232.4844,190.3438 C232.1875,190.3438 231.9844,190.4375 231.7656,190.75 L231.5938,190.6719 Z " fill="#000000"/><text fill="#000000" font-family="Verdana" font-size="14" lengthAdjust="spacing" textLength="190" x="246.75" y="199.8467">AbstractFlashMapManager</text><line style="stroke:#000000;stroke-width:1.0;" x1="15" x2="641" y1="209" y2="209"/><rect fill="none" height="6" style="stroke:#000000;stroke-width:1.0;" width="6" x="22" y="219.6484"/><text fill="#000000" font-family="Verdana" font-size="14" lengthAdjust="spacing" textLength="153" x="32" y="225.9951">flashMapTimeout: int</text><polygon fill="none" points="25,233.9453,29,237.9453,25,241.9453,21,237.9453" style="stroke:#000000;stroke-width:1.0;"/><text fill="#000000" font-family="Verdana" font-size="14" lengthAdjust="spacing" textLength="81" x="32" y="242.292">logger: Log</text><rect fill="none" height="6" style="stroke:#000000;stroke-width:1.0;" width="6" x="22" y="252.2422"/><text fill="#000000" font-family="Verdana" font-size="14" lengthAdjust="spacing" textLength="208" x="32" y="258.5889">urlPathHelper: UrlPathHelper</text><rect fill="none" height="6" style="stroke:#000000;stroke-width:1.0;" width="6" x="22" y="268.5391"/><text fill="#000000" font-family="Verdana" font-size="14" lengthAdjust="spacing" textLength="277" x="32" y="274.8857">DEFAULT_FLASH_MAPS_MUTEX: Object</text><line style="stroke:#000000;stroke-width:1.0;" x1="15" x2="641" y1="282.1875" y2="282.1875"/><polygon fill="#FFFFFF" points="25,290.8359,29,294.8359,25,298.8359,21,294.8359" style="stroke:#000000;stroke-width:1.0;"/><text fill="#000000" font-family="Verdana" font-size="14" lengthAdjust="spacing" textLength="604" x="32" y="299.1826">updateFlashMaps(List&lt;FlashMap&gt;, HttpServletRequest, HttpServletResponse): void</text><rect fill="#FFFFFF" height="6" style="stroke:#000000;stroke-width:1.0;" width="6" x="22" y="309.1328"/><text fill="#000000" font-family="Verdana" font-size="14" lengthAdjust="spacing" textLength="602" x="32" y="315.4795">getOriginatingRequestParams(HttpServletRequest): MultiValueMap&lt;String, String&gt;</text><rect fill="#FFFFFF" height="6" style="stroke:#000000;stroke-width:1.0;" width="6" x="22" y="325.4297"/><text fill="#000000" font-family="Verdana" font-size="14" lengthAdjust="spacing" textLength="460" x="32" y="331.7764">decodeAndNormalizePath(String?, HttpServletRequest): String?</text><ellipse cx="25" cy="344.7266" fill="#FFFFFF" rx="3" ry="3" style="stroke:#000000;stroke-width:1.0;"/><text fill="#000000" font-family="Verdana" font-size="14" lengthAdjust="spacing" textLength="190" x="32" y="348.0732">getFlashMapTimeout(): int</text><ellipse cx="25" cy="361.0234" fill="#FFFFFF" rx="3" ry="3" style="stroke:#000000;stroke-width:1.0;"/><text fill="#000000" font-family="Verdana" font-size="14" lengthAdjust="spacing" textLength="581" x="32" y="364.3701">saveOutputFlashMap(FlashMap, HttpServletRequest, HttpServletResponse): void</text><polygon fill="#FFFFFF" points="25,372.3203,29,376.3203,25,380.3203,21,376.3203" style="stroke:#000000;stroke-width:1.0;"/><text fill="#000000" font-family="Verdana" font-size="14" lengthAdjust="spacing" textLength="362" x="32" y="380.667">getFlashMapsMutex(HttpServletRequest): Object?</text><polygon fill="#FFFFFF" points="25,388.6172,29,392.6172,25,396.6172,21,392.6172" style="stroke:#000000;stroke-width:1.0;"/><text fill="#000000" font-family="Verdana" font-size="14" lengthAdjust="spacing" textLength="455" x="32" y="396.9639">isFlashMapForRequest(FlashMap, HttpServletRequest): boolean</text><ellipse cx="25" cy="409.9141" fill="#FFFFFF" rx="3" ry="3" style="stroke:#000000;stroke-width:1.0;"/><text fill="#000000" font-family="Verdana" font-size="14" lengthAdjust="spacing" textLength="539" x="32" y="413.2607">retrieveAndUpdate(HttpServletRequest, HttpServletResponse): FlashMap?</text><ellipse cx="25" cy="426.2109" fill="#FFFFFF" rx="3" ry="3" style="stroke:#000000;stroke-width:1.0;"/><text fill="#000000" font-family="Verdana" font-size="14" lengthAdjust="spacing" textLength="218" x="32" y="429.5576">setFlashMapTimeout(int): void</text><ellipse cx="25" cy="442.5078" fill="#FFFFFF" rx="3" ry="3" style="stroke:#000000;stroke-width:1.0;"/><text fill="#000000" font-family="Verdana" font-size="14" lengthAdjust="spacing" textLength="244" x="32" y="445.8545">getUrlPathHelper(): UrlPathHelper</text><rect fill="#FFFFFF" height="6" style="stroke:#000000;stroke-width:1.0;" width="6" x="22" y="455.8047"/><text fill="#000000" font-family="Verdana" font-size="14" lengthAdjust="spacing" textLength="400" x="32" y="462.1514">getExpiredFlashMaps(List&lt;FlashMap&gt;): List&lt;FlashMap&gt;</text><polygon fill="#FFFFFF" points="25,470.1016,29,474.1016,25,478.1016,21,474.1016" style="stroke:#000000;stroke-width:1.0;"/><text fill="#000000" font-family="Verdana" font-size="14" lengthAdjust="spacing" textLength="416" x="32" y="478.4482">retrieveFlashMaps(HttpServletRequest): List&lt;FlashMap&gt;?</text><ellipse cx="25" cy="491.3984" fill="#FFFFFF" rx="3" ry="3" style="stroke:#000000;stroke-width:1.0;"/><text fill="#000000" font-family="Verdana" font-size="14" lengthAdjust="spacing" textLength="272" x="32" y="494.7451">setUrlPathHelper(UrlPathHelper): void</text><rect fill="#FFFFFF" height="6" style="stroke:#000000;stroke-width:1.0;" width="6" x="22" y="504.6953"/><text fill="#000000" font-family="Verdana" font-size="14" lengthAdjust="spacing" textLength="516" x="32" y="511.042">getMatchingFlashMap(List&lt;FlashMap&gt;, HttpServletRequest): FlashMap?</text></g><!--class FlashMapManager--><g id="elem_FlashMapManager"><rect codeLine="25" fill="#FFFFFF" height="88.8594" id="FlashMapManager" rx="2.5" ry="2.5" style="stroke:#000000;stroke-width:1.0;" width="605" x="25.5" y="578"/><ellipse cx="259.25" cy="598.1328" fill="#FFFFFF" rx="9" ry="9" style="stroke:#000000;stroke-width:1.0;"/><path d="M260.2031,594.9141 L261.9219,594.9141 C262.3125,594.9141 262.5,594.8828 262.625,594.8047 C262.8906,594.6484 263.0313,594.3672 263.0313,594.0703 C263.0313,593.8047 262.9219,593.5391 262.6875,593.3672 C262.5156,593.2578 262.375,593.2266 261.9219,593.2266 L256.7813,593.2266 C256.3438,593.2266 256.2188,593.2422 256.0625,593.3359 C255.8125,593.4922 255.6563,593.7891 255.6563,594.0703 C255.6563,594.3516 255.7969,594.6016 256.0156,594.7734 C256.1719,594.8828 256.3594,594.9141 256.7813,594.9141 L258.5,594.9141 L258.5,601.4297 L256.7813,601.4297 C256.3438,601.4297 256.2188,601.4453 256.0625,601.5547 C255.8125,601.7109 255.6563,601.9922 255.6563,602.2891 C255.6563,602.5391 255.7969,602.8047 256.0156,602.9609 C256.1719,603.0859 256.375,603.1328 256.7813,603.1328 L261.9219,603.1328 C262.6719,603.1328 263.0313,602.8516 263.0313,602.2891 C263.0313,602.0078 262.9219,601.7578 262.6875,601.5859 C262.5156,601.4609 262.375,601.4297 261.9219,601.4297 L260.2031,601.4297 L260.2031,594.9141 Z " fill="#000000"/><text fill="#000000" font-family="Verdana" font-size="12" font-style="italic" lengthAdjust="spacing" textLength="67" x="308.25" y="594.1387">«interface»</text><text fill="#000000" font-family="Verdana" font-size="14" font-style="italic" lengthAdjust="spacing" textLength="130" x="276.75" y="609.9639">FlashMapManager</text><line style="stroke:#000000;stroke-width:1.0;" x1="26.5" x2="629.5" y1="618.2656" y2="618.2656"/><line style="stroke:#000000;stroke-width:1.0;" x1="26.5" x2="629.5" y1="626.2656" y2="626.2656"/><ellipse cx="36.5" cy="639.9141" fill="#FFFFFF" rx="3" ry="3" style="stroke:#000000;stroke-width:1.0;"/><text fill="#000000" font-family="Verdana" font-size="14" lengthAdjust="spacing" textLength="539" x="43.5" y="643.2607">retrieveAndUpdate(HttpServletRequest, HttpServletResponse): FlashMap?</text><ellipse cx="36.5" cy="656.2109" fill="#FFFFFF" rx="3" ry="3" style="stroke:#000000;stroke-width:1.0;"/><text fill="#000000" font-family="Verdana" font-size="14" lengthAdjust="spacing" textLength="581" x="43.5" y="659.5576">saveOutputFlashMap(FlashMap, HttpServletRequest, HttpServletResponse): void</text></g><!--class SessionFlashMapManager--><g id="elem_SessionFlashMapManager"><rect codeLine="29" fill="#FFFFFF" height="109.1875" id="SessionFlashMapManager" rx="2.5" ry="2.5" style="stroke:#000000;stroke-width:1.0;" width="628" x="14" y="12"/><ellipse cx="233.75" cy="26" fill="#FFFFFF" rx="9" ry="9" style="stroke:#000000;stroke-width:1.0;"/><path d="M236.0938,21.6719 C235.1563,21.2344 234.5625,21.0938 233.6875,21.0938 C231.0625,21.0938 229.0625,23.1719 229.0625,25.8906 L229.0625,27.0156 C229.0625,29.5938 231.1719,31.4844 234.0625,31.4844 C235.2813,31.4844 236.4375,31.1875 237.1875,30.6406 C237.7656,30.2344 238.0938,29.7813 238.0938,29.3906 C238.0938,28.9375 237.7031,28.5469 237.2344,28.5469 C237.0156,28.5469 236.8125,28.625 236.625,28.8125 C236.1719,29.2969 236.1719,29.2969 235.9844,29.3906 C235.5625,29.6563 234.875,29.7813 234.1094,29.7813 C232.0625,29.7813 230.7656,28.6875 230.7656,26.9844 L230.7656,25.8906 C230.7656,24.1094 232.0156,22.7969 233.75,22.7969 C234.3281,22.7969 234.9375,22.9531 235.4063,23.2031 C235.8906,23.4844 236.0625,23.7031 236.1563,24.1094 C236.2188,24.5156 236.25,24.6406 236.3906,24.7656 C236.5313,24.9063 236.7656,25.0156 236.9844,25.0156 C237.25,25.0156 237.5156,24.875 237.6875,24.6563 C237.7969,24.5 237.8281,24.3125 237.8281,23.8906 L237.8281,22.4688 C237.8281,22.0313 237.8125,21.9063 237.7188,21.75 C237.5625,21.4844 237.2813,21.3438 236.9844,21.3438 C236.6875,21.3438 236.4844,21.4375 236.2656,21.75 L236.0938,21.6719 Z " fill="#000000"/><text fill="#000000" font-family="Verdana" font-size="14" lengthAdjust="spacing" textLength="181" x="251.25" y="30.8467">SessionFlashMapManager</text><line style="stroke:#000000;stroke-width:1.0;" x1="15" x2="641" y1="40" y2="40"/><rect fill="none" height="6" style="stroke:#000000;stroke-width:1.0;" width="6" x="22" y="50.6484"/><text fill="#000000" font-family="Verdana" font-size="14" lengthAdjust="spacing" textLength="299" x="32" y="56.9951">FLASH_MAPS_SESSION_ATTRIBUTE: String</text><line style="stroke:#000000;stroke-width:1.0;" x1="15" x2="641" y1="64.2969" y2="64.2969"/><polygon fill="#FFFFFF" points="25,72.9453,29,76.9453,25,80.9453,21,76.9453" style="stroke:#000000;stroke-width:1.0;"/><text fill="#000000" font-family="Verdana" font-size="14" lengthAdjust="spacing" textLength="604" x="32" y="81.292">updateFlashMaps(List&lt;FlashMap&gt;, HttpServletRequest, HttpServletResponse): void</text><polygon fill="#FFFFFF" points="25,89.2422,29,93.2422,25,97.2422,21,93.2422" style="stroke:#000000;stroke-width:1.0;"/><text fill="#000000" font-family="Verdana" font-size="14" lengthAdjust="spacing" textLength="416" x="32" y="97.5889">retrieveFlashMaps(HttpServletRequest): List&lt;FlashMap&gt;?</text><polygon fill="#FFFFFF" points="25,105.5391,29,109.5391,25,113.5391,21,109.5391" style="stroke:#000000;stroke-width:1.0;"/><text fill="#000000" font-family="Verdana" font-size="14" lengthAdjust="spacing" textLength="362" x="32" y="113.8857">getFlashMapsMutex(HttpServletRequest): Object?</text></g><!--link AbstractFlashMapManager to FlashMapManager--><g id="link_AbstractFlashMapManager_FlashMapManager"><path codeLine="36" d="M328,518.122 C328,518.122 328,557.835 328,557.835 " fill="none" id="AbstractFlashMapManager-to-FlashMapManager" style="stroke:#008200;stroke-width:1.0;stroke-dasharray:7.0,7.0;"/><polygon fill="none" points="335,557.835,328,577.835,321,557.835,335,557.835" style="stroke:#008200;stroke-width:1.0;"/></g><!--link SessionFlashMapManager to AbstractFlashMapManager--><g id="link_SessionFlashMapManager_AbstractFlashMapManager"><path codeLine="37" d="M328,121.065 C328,121.065 328,160.842 328,160.842 " fill="none" id="SessionFlashMapManager-to-AbstractFlashMapManager" style="stroke:#000082;stroke-width:1.0;"/><polygon fill="none" points="335,160.842,328,180.842,321,160.842,335,160.842" style="stroke:#000082;stroke-width:1.0;"/></g><!--SRC=[jLNRZjem47tFLqp5IrOB4kfJXH2hh0fY9RAW3LILgYuooMnmQsBNdg1jA_wzZac0SEbrcvTax3bpENF9ArhY2a49nZEFf0AIi914SWK9rnWJbvbdFlDCCSrM87Y6z5KXI4rBwNcnOCP0i32aMKm3Aor3faAMiHGrVFS0Ml1Kdaxv2cLE7U0PsOi629bQhGwCPEeKSoqcZ9P35AeudXsAJk5jVn3CHjFvO1H4mtaOJA9vE9lsttTWlFXaOtLMSvKmmYeKuu-ueMubzfem958HwhL0Ui0lEHewEZDAPWQlEh2MF75-KwInvYdF6F4iBL6JWX3Zdvgpo30NnDynaQFrsOr8MrWJjk-UCvbWB1CCikHUwXKJ_1iMkVfRbPjpKLgpvQqrS5t4DAWJwrzLr5w3OMiSvwJodP9VVVm50ur3RoRC2P_Fvxqjmus3S5CX1bANAZyDmk8NKWfacKj1eyqMrmL7CrTI__VZhjnigJAdL5cUzkavCclTLb1vsdvMg_-ix5GabxhBmke7ZeagaptgRF9rv2xqUc0rwQX7GqRnqZR8hkI_RlqQLnlFqeBwYSK8nwFSxSB-ijTpe_sYDNh1XjsKQob2O-pwEh-L3dP8r8-Yk_7zF9XE7-vkxKAf9kt_x9D_Q8W_7iIDvrrQpj3wq6Yttxnkjvk9lS7aO-iHJkfUFTu5CaipXQ6c-uauAnTy_W00]--></g></svg>