<?xml version="1.0" encoding="UTF-8" standalone="no"?><svg xmlns="http://www.w3.org/2000/svg" xmlns:xlink="http://www.w3.org/1999/xlink" contentStyleType="text/css" height="576px" preserveAspectRatio="none" style="width:4356px;height:576px;background:#FFFFFF;" version="1.1" viewBox="0 0 4356 576" width="4356px" zoomAndPan="magnify"><defs/><g><!--class AopNamespaceHandler--><g id="elem_AopNamespaceHandler"><rect codeLine="5" fill="#FFFFFF" height="60.2969" id="AopNamespaceHandler" rx="2.5" ry="2.5" style="stroke:#000000;stroke-width:1.0;" width="195" x="12" y="44.5"/><ellipse cx="25" cy="58.5" fill="#FFFFFF" rx="9" ry="9" style="stroke:#000000;stroke-width:1.0;"/><path d="M27.3438,54.1719 C26.4063,53.7344 25.8125,53.5938 24.9375,53.5938 C22.3125,53.5938 20.3125,55.6719 20.3125,58.3906 L20.3125,59.5156 C20.3125,62.0938 22.4219,63.9844 25.3125,63.9844 C26.5313,63.9844 27.6875,63.6875 28.4375,63.1406 C29.0156,62.7344 29.3438,62.2813 29.3438,61.8906 C29.3438,61.4375 28.9531,61.0469 28.4844,61.0469 C28.2656,61.0469 28.0625,61.125 27.875,61.3125 C27.4219,61.7969 27.4219,61.7969 27.2344,61.8906 C26.8125,62.1563 26.125,62.2813 25.3594,62.2813 C23.3125,62.2813 22.0156,61.1875 22.0156,59.4844 L22.0156,58.3906 C22.0156,56.6094 23.2656,55.2969 25,55.2969 C25.5781,55.2969 26.1875,55.4531 26.6563,55.7031 C27.1406,55.9844 27.3125,56.2031 27.4063,56.6094 C27.4688,57.0156 27.5,57.1406 27.6406,57.2656 C27.7813,57.4063 28.0156,57.5156 28.2344,57.5156 C28.5,57.5156 28.7656,57.375 28.9375,57.1563 C29.0469,57 29.0781,56.8125 29.0781,56.3906 L29.0781,54.9688 C29.0781,54.5313 29.0625,54.4063 28.9688,54.25 C28.8125,53.9844 28.5313,53.8438 28.2344,53.8438 C27.9375,53.8438 27.7344,53.9375 27.5156,54.25 L27.3438,54.1719 Z " fill="#000000"/><text fill="#000000" font-family="Verdana" font-size="14" lengthAdjust="spacing" textLength="167" x="37" y="63.3467">AopNamespaceHandler</text><line style="stroke:#000000;stroke-width:1.0;" x1="13" x2="206" y1="72.5" y2="72.5"/><line style="stroke:#000000;stroke-width:1.0;" x1="13" x2="206" y1="80.5" y2="80.5"/><ellipse cx="23" cy="94.1484" fill="#FFFFFF" rx="3" ry="3" style="stroke:#000000;stroke-width:1.0;"/><text fill="#000000" font-family="Verdana" font-size="14" lengthAdjust="spacing" textLength="73" x="30" y="97.4951">init(): void</text></g><!--class CacheNamespaceHandler--><g id="elem_CacheNamespaceHandler"><rect codeLine="8" fill="#FFFFFF" height="125.4844" id="CacheNamespaceHandler" rx="2.5" ry="2.5" style="stroke:#000000;stroke-width:1.0;" width="469" x="242" y="12"/><ellipse cx="381.75" cy="26" fill="#FFFFFF" rx="9" ry="9" style="stroke:#000000;stroke-width:1.0;"/><path d="M384.0938,21.6719 C383.1563,21.2344 382.5625,21.0938 381.6875,21.0938 C379.0625,21.0938 377.0625,23.1719 377.0625,25.8906 L377.0625,27.0156 C377.0625,29.5938 379.1719,31.4844 382.0625,31.4844 C383.2813,31.4844 384.4375,31.1875 385.1875,30.6406 C385.7656,30.2344 386.0938,29.7813 386.0938,29.3906 C386.0938,28.9375 385.7031,28.5469 385.2344,28.5469 C385.0156,28.5469 384.8125,28.625 384.625,28.8125 C384.1719,29.2969 384.1719,29.2969 383.9844,29.3906 C383.5625,29.6563 382.875,29.7813 382.1094,29.7813 C380.0625,29.7813 378.7656,28.6875 378.7656,26.9844 L378.7656,25.8906 C378.7656,24.1094 380.0156,22.7969 381.75,22.7969 C382.3281,22.7969 382.9375,22.9531 383.4063,23.2031 C383.8906,23.4844 384.0625,23.7031 384.1563,24.1094 C384.2188,24.5156 384.25,24.6406 384.3906,24.7656 C384.5313,24.9063 384.7656,25.0156 384.9844,25.0156 C385.25,25.0156 385.5156,24.875 385.6875,24.6563 C385.7969,24.5 385.8281,24.3125 385.8281,23.8906 L385.8281,22.4688 C385.8281,22.0313 385.8125,21.9063 385.7188,21.75 C385.5625,21.4844 385.2813,21.3438 384.9844,21.3438 C384.6875,21.3438 384.4844,21.4375 384.2656,21.75 L384.0938,21.6719 Z " fill="#000000"/><text fill="#000000" font-family="Verdana" font-size="14" lengthAdjust="spacing" textLength="182" x="399.25" y="30.8467">CacheNamespaceHandler</text><line style="stroke:#000000;stroke-width:1.0;" x1="243" x2="710" y1="40" y2="40"/><polygon fill="none" points="253,49.6484,249,55.6484,257,55.6484" style="stroke:#000000;stroke-width:1.0;"/><text fill="#000000" font-family="Verdana" font-size="14" lengthAdjust="spacing" textLength="346" x="260" y="56.9951">DEFAULT_CACHE_MANAGER_BEAN_NAME: String</text><polygon fill="none" points="253,65.9453,249,71.9453,257,71.9453" style="stroke:#000000;stroke-width:1.0;"/><text fill="#000000" font-family="Verdana" font-size="14" lengthAdjust="spacing" textLength="267" x="260" y="73.292">CACHE_MANAGER_ATTRIBUTE: String</text><line style="stroke:#000000;stroke-width:1.0;" x1="243" x2="710" y1="80.5938" y2="80.5938"/><polygon fill="#FFFFFF" points="253,90.2422,249,96.2422,257,96.2422" style="stroke:#000000;stroke-width:1.0;"/><text fill="#000000" font-family="Verdana" font-size="14" lengthAdjust="spacing" textLength="282" x="260" y="97.5889">extractCacheManager(Element): String</text><polygon fill="#FFFFFF" points="253,106.5391,249,112.5391,257,112.5391" style="stroke:#000000;stroke-width:1.0;"/><text fill="#000000" font-family="Verdana" font-size="14" lengthAdjust="spacing" textLength="445" x="260" y="113.8857">parseKeyGenerator(Element, BeanDefinition): BeanDefinition</text><ellipse cx="253" cy="126.8359" fill="#FFFFFF" rx="3" ry="3" style="stroke:#000000;stroke-width:1.0;"/><text fill="#000000" font-family="Verdana" font-size="14" lengthAdjust="spacing" textLength="73" x="260" y="130.1826">init(): void</text></g><!--class ComponentNamespaceHandler--><g id="elem_ComponentNamespaceHandler"><rect codeLine="15" fill="#FFFFFF" height="60.2969" id="ComponentNamespaceHandler" rx="2.5" ry="2.5" style="stroke:#000000;stroke-width:1.0;" width="252" x="746.5" y="44.5"/><ellipse cx="759.5" cy="58.5" fill="#FFFFFF" rx="9" ry="9" style="stroke:#000000;stroke-width:1.0;"/><path d="M761.8438,54.1719 C760.9063,53.7344 760.3125,53.5938 759.4375,53.5938 C756.8125,53.5938 754.8125,55.6719 754.8125,58.3906 L754.8125,59.5156 C754.8125,62.0938 756.9219,63.9844 759.8125,63.9844 C761.0313,63.9844 762.1875,63.6875 762.9375,63.1406 C763.5156,62.7344 763.8438,62.2813 763.8438,61.8906 C763.8438,61.4375 763.4531,61.0469 762.9844,61.0469 C762.7656,61.0469 762.5625,61.125 762.375,61.3125 C761.9219,61.7969 761.9219,61.7969 761.7344,61.8906 C761.3125,62.1563 760.625,62.2813 759.8594,62.2813 C757.8125,62.2813 756.5156,61.1875 756.5156,59.4844 L756.5156,58.3906 C756.5156,56.6094 757.7656,55.2969 759.5,55.2969 C760.0781,55.2969 760.6875,55.4531 761.1563,55.7031 C761.6406,55.9844 761.8125,56.2031 761.9063,56.6094 C761.9688,57.0156 762,57.1406 762.1406,57.2656 C762.2813,57.4063 762.5156,57.5156 762.7344,57.5156 C763,57.5156 763.2656,57.375 763.4375,57.1563 C763.5469,57 763.5781,56.8125 763.5781,56.3906 L763.5781,54.9688 C763.5781,54.5313 763.5625,54.4063 763.4688,54.25 C763.3125,53.9844 763.0313,53.8438 762.7344,53.8438 C762.4375,53.8438 762.2344,53.9375 762.0156,54.25 L761.8438,54.1719 Z " fill="#000000"/><text fill="#000000" font-family="Verdana" font-size="14" lengthAdjust="spacing" textLength="224" x="771.5" y="63.3467">ComponentNamespaceHandler</text><line style="stroke:#000000;stroke-width:1.0;" x1="747.5" x2="997.5" y1="72.5" y2="72.5"/><line style="stroke:#000000;stroke-width:1.0;" x1="747.5" x2="997.5" y1="80.5" y2="80.5"/><ellipse cx="757.5" cy="94.1484" fill="#FFFFFF" rx="3" ry="3" style="stroke:#000000;stroke-width:1.0;"/><text fill="#000000" font-family="Verdana" font-size="14" lengthAdjust="spacing" textLength="73" x="764.5" y="97.4951">init(): void</text></g><!--class ContextNamespaceHandler--><g id="elem_ContextNamespaceHandler"><rect codeLine="18" fill="#FFFFFF" height="60.2969" id="ContextNamespaceHandler" rx="2.5" ry="2.5" style="stroke:#000000;stroke-width:1.0;" width="225" x="1034" y="44.5"/><ellipse cx="1047" cy="58.5" fill="#FFFFFF" rx="9" ry="9" style="stroke:#000000;stroke-width:1.0;"/><path d="M1049.3438,54.1719 C1048.4063,53.7344 1047.8125,53.5938 1046.9375,53.5938 C1044.3125,53.5938 1042.3125,55.6719 1042.3125,58.3906 L1042.3125,59.5156 C1042.3125,62.0938 1044.4219,63.9844 1047.3125,63.9844 C1048.5313,63.9844 1049.6875,63.6875 1050.4375,63.1406 C1051.0156,62.7344 1051.3438,62.2813 1051.3438,61.8906 C1051.3438,61.4375 1050.9531,61.0469 1050.4844,61.0469 C1050.2656,61.0469 1050.0625,61.125 1049.875,61.3125 C1049.4219,61.7969 1049.4219,61.7969 1049.2344,61.8906 C1048.8125,62.1563 1048.125,62.2813 1047.3594,62.2813 C1045.3125,62.2813 1044.0156,61.1875 1044.0156,59.4844 L1044.0156,58.3906 C1044.0156,56.6094 1045.2656,55.2969 1047,55.2969 C1047.5781,55.2969 1048.1875,55.4531 1048.6563,55.7031 C1049.1406,55.9844 1049.3125,56.2031 1049.4063,56.6094 C1049.4688,57.0156 1049.5,57.1406 1049.6406,57.2656 C1049.7813,57.4063 1050.0156,57.5156 1050.2344,57.5156 C1050.5,57.5156 1050.7656,57.375 1050.9375,57.1563 C1051.0469,57 1051.0781,56.8125 1051.0781,56.3906 L1051.0781,54.9688 C1051.0781,54.5313 1051.0625,54.4063 1050.9688,54.25 C1050.8125,53.9844 1050.5313,53.8438 1050.2344,53.8438 C1049.9375,53.8438 1049.7344,53.9375 1049.5156,54.25 L1049.3438,54.1719 Z " fill="#000000"/><text fill="#000000" font-family="Verdana" font-size="14" lengthAdjust="spacing" textLength="197" x="1059" y="63.3467">ContextNamespaceHandler</text><line style="stroke:#000000;stroke-width:1.0;" x1="1035" x2="1258" y1="72.5" y2="72.5"/><line style="stroke:#000000;stroke-width:1.0;" x1="1035" x2="1258" y1="80.5" y2="80.5"/><ellipse cx="1045" cy="94.1484" fill="#FFFFFF" rx="3" ry="3" style="stroke:#000000;stroke-width:1.0;"/><text fill="#000000" font-family="Verdana" font-size="14" lengthAdjust="spacing" textLength="73" x="1052" y="97.4951">init(): void</text></g><!--class JdbcNamespaceHandler--><g id="elem_JdbcNamespaceHandler"><rect codeLine="21" fill="#FFFFFF" height="60.2969" id="JdbcNamespaceHandler" rx="2.5" ry="2.5" style="stroke:#000000;stroke-width:1.0;" width="197" x="1294" y="44.5"/><ellipse cx="1307" cy="58.5" fill="#FFFFFF" rx="9" ry="9" style="stroke:#000000;stroke-width:1.0;"/><path d="M1309.3438,54.1719 C1308.4063,53.7344 1307.8125,53.5938 1306.9375,53.5938 C1304.3125,53.5938 1302.3125,55.6719 1302.3125,58.3906 L1302.3125,59.5156 C1302.3125,62.0938 1304.4219,63.9844 1307.3125,63.9844 C1308.5313,63.9844 1309.6875,63.6875 1310.4375,63.1406 C1311.0156,62.7344 1311.3438,62.2813 1311.3438,61.8906 C1311.3438,61.4375 1310.9531,61.0469 1310.4844,61.0469 C1310.2656,61.0469 1310.0625,61.125 1309.875,61.3125 C1309.4219,61.7969 1309.4219,61.7969 1309.2344,61.8906 C1308.8125,62.1563 1308.125,62.2813 1307.3594,62.2813 C1305.3125,62.2813 1304.0156,61.1875 1304.0156,59.4844 L1304.0156,58.3906 C1304.0156,56.6094 1305.2656,55.2969 1307,55.2969 C1307.5781,55.2969 1308.1875,55.4531 1308.6563,55.7031 C1309.1406,55.9844 1309.3125,56.2031 1309.4063,56.6094 C1309.4688,57.0156 1309.5,57.1406 1309.6406,57.2656 C1309.7813,57.4063 1310.0156,57.5156 1310.2344,57.5156 C1310.5,57.5156 1310.7656,57.375 1310.9375,57.1563 C1311.0469,57 1311.0781,56.8125 1311.0781,56.3906 L1311.0781,54.9688 C1311.0781,54.5313 1311.0625,54.4063 1310.9688,54.25 C1310.8125,53.9844 1310.5313,53.8438 1310.2344,53.8438 C1309.9375,53.8438 1309.7344,53.9375 1309.5156,54.25 L1309.3438,54.1719 Z " fill="#000000"/><text fill="#000000" font-family="Verdana" font-size="14" lengthAdjust="spacing" textLength="169" x="1319" y="63.3467">JdbcNamespaceHandler</text><line style="stroke:#000000;stroke-width:1.0;" x1="1295" x2="1490" y1="72.5" y2="72.5"/><line style="stroke:#000000;stroke-width:1.0;" x1="1295" x2="1490" y1="80.5" y2="80.5"/><ellipse cx="1305" cy="94.1484" fill="#FFFFFF" rx="3" ry="3" style="stroke:#000000;stroke-width:1.0;"/><text fill="#000000" font-family="Verdana" font-size="14" lengthAdjust="spacing" textLength="73" x="1312" y="97.4951">init(): void</text></g><!--class JeeNamespaceHandler--><g id="elem_JeeNamespaceHandler"><rect codeLine="24" fill="#FFFFFF" height="60.2969" id="JeeNamespaceHandler" rx="2.5" ry="2.5" style="stroke:#000000;stroke-width:1.0;" width="188" x="1526.5" y="44.5"/><ellipse cx="1539.5" cy="58.5" fill="#FFFFFF" rx="9" ry="9" style="stroke:#000000;stroke-width:1.0;"/><path d="M1541.8438,54.1719 C1540.9063,53.7344 1540.3125,53.5938 1539.4375,53.5938 C1536.8125,53.5938 1534.8125,55.6719 1534.8125,58.3906 L1534.8125,59.5156 C1534.8125,62.0938 1536.9219,63.9844 1539.8125,63.9844 C1541.0313,63.9844 1542.1875,63.6875 1542.9375,63.1406 C1543.5156,62.7344 1543.8438,62.2813 1543.8438,61.8906 C1543.8438,61.4375 1543.4531,61.0469 1542.9844,61.0469 C1542.7656,61.0469 1542.5625,61.125 1542.375,61.3125 C1541.9219,61.7969 1541.9219,61.7969 1541.7344,61.8906 C1541.3125,62.1563 1540.625,62.2813 1539.8594,62.2813 C1537.8125,62.2813 1536.5156,61.1875 1536.5156,59.4844 L1536.5156,58.3906 C1536.5156,56.6094 1537.7656,55.2969 1539.5,55.2969 C1540.0781,55.2969 1540.6875,55.4531 1541.1563,55.7031 C1541.6406,55.9844 1541.8125,56.2031 1541.9063,56.6094 C1541.9688,57.0156 1542,57.1406 1542.1406,57.2656 C1542.2813,57.4063 1542.5156,57.5156 1542.7344,57.5156 C1543,57.5156 1543.2656,57.375 1543.4375,57.1563 C1543.5469,57 1543.5781,56.8125 1543.5781,56.3906 L1543.5781,54.9688 C1543.5781,54.5313 1543.5625,54.4063 1543.4688,54.25 C1543.3125,53.9844 1543.0313,53.8438 1542.7344,53.8438 C1542.4375,53.8438 1542.2344,53.9375 1542.0156,54.25 L1541.8438,54.1719 Z " fill="#000000"/><text fill="#000000" font-family="Verdana" font-size="14" lengthAdjust="spacing" textLength="160" x="1551.5" y="63.3467">JeeNamespaceHandler</text><line style="stroke:#000000;stroke-width:1.0;" x1="1527.5" x2="1713.5" y1="72.5" y2="72.5"/><line style="stroke:#000000;stroke-width:1.0;" x1="1527.5" x2="1713.5" y1="80.5" y2="80.5"/><ellipse cx="1537.5" cy="94.1484" fill="#FFFFFF" rx="3" ry="3" style="stroke:#000000;stroke-width:1.0;"/><text fill="#000000" font-family="Verdana" font-size="14" lengthAdjust="spacing" textLength="73" x="1544.5" y="97.4951">init(): void</text></g><!--class JmsNamespaceHandler--><g id="elem_JmsNamespaceHandler"><rect codeLine="27" fill="#FFFFFF" height="60.2969" id="JmsNamespaceHandler" rx="2.5" ry="2.5" style="stroke:#000000;stroke-width:1.0;" width="191" x="1750" y="44.5"/><ellipse cx="1763" cy="58.5" fill="#FFFFFF" rx="9" ry="9" style="stroke:#000000;stroke-width:1.0;"/><path d="M1765.3438,54.1719 C1764.4063,53.7344 1763.8125,53.5938 1762.9375,53.5938 C1760.3125,53.5938 1758.3125,55.6719 1758.3125,58.3906 L1758.3125,59.5156 C1758.3125,62.0938 1760.4219,63.9844 1763.3125,63.9844 C1764.5313,63.9844 1765.6875,63.6875 1766.4375,63.1406 C1767.0156,62.7344 1767.3438,62.2813 1767.3438,61.8906 C1767.3438,61.4375 1766.9531,61.0469 1766.4844,61.0469 C1766.2656,61.0469 1766.0625,61.125 1765.875,61.3125 C1765.4219,61.7969 1765.4219,61.7969 1765.2344,61.8906 C1764.8125,62.1563 1764.125,62.2813 1763.3594,62.2813 C1761.3125,62.2813 1760.0156,61.1875 1760.0156,59.4844 L1760.0156,58.3906 C1760.0156,56.6094 1761.2656,55.2969 1763,55.2969 C1763.5781,55.2969 1764.1875,55.4531 1764.6563,55.7031 C1765.1406,55.9844 1765.3125,56.2031 1765.4063,56.6094 C1765.4688,57.0156 1765.5,57.1406 1765.6406,57.2656 C1765.7813,57.4063 1766.0156,57.5156 1766.2344,57.5156 C1766.5,57.5156 1766.7656,57.375 1766.9375,57.1563 C1767.0469,57 1767.0781,56.8125 1767.0781,56.3906 L1767.0781,54.9688 C1767.0781,54.5313 1767.0625,54.4063 1766.9688,54.25 C1766.8125,53.9844 1766.5313,53.8438 1766.2344,53.8438 C1765.9375,53.8438 1765.7344,53.9375 1765.5156,54.25 L1765.3438,54.1719 Z " fill="#000000"/><text fill="#000000" font-family="Verdana" font-size="14" lengthAdjust="spacing" textLength="163" x="1775" y="63.3467">JmsNamespaceHandler</text><line style="stroke:#000000;stroke-width:1.0;" x1="1751" x2="1940" y1="72.5" y2="72.5"/><line style="stroke:#000000;stroke-width:1.0;" x1="1751" x2="1940" y1="80.5" y2="80.5"/><ellipse cx="1761" cy="94.1484" fill="#FFFFFF" rx="3" ry="3" style="stroke:#000000;stroke-width:1.0;"/><text fill="#000000" font-family="Verdana" font-size="14" lengthAdjust="spacing" textLength="73" x="1768" y="97.4951">init(): void</text></g><!--class LangNamespaceHandler--><g id="elem_LangNamespaceHandler"><rect codeLine="30" fill="#FFFFFF" height="76.5938" id="LangNamespaceHandler" rx="2.5" ry="2.5" style="stroke:#000000;stroke-width:1.0;" width="423" x="1976" y="36"/><ellipse cx="2097.75" cy="50" fill="#FFFFFF" rx="9" ry="9" style="stroke:#000000;stroke-width:1.0;"/><path d="M2100.0938,45.6719 C2099.1563,45.2344 2098.5625,45.0938 2097.6875,45.0938 C2095.0625,45.0938 2093.0625,47.1719 2093.0625,49.8906 L2093.0625,51.0156 C2093.0625,53.5938 2095.1719,55.4844 2098.0625,55.4844 C2099.2813,55.4844 2100.4375,55.1875 2101.1875,54.6406 C2101.7656,54.2344 2102.0938,53.7813 2102.0938,53.3906 C2102.0938,52.9375 2101.7031,52.5469 2101.2344,52.5469 C2101.0156,52.5469 2100.8125,52.625 2100.625,52.8125 C2100.1719,53.2969 2100.1719,53.2969 2099.9844,53.3906 C2099.5625,53.6563 2098.875,53.7813 2098.1094,53.7813 C2096.0625,53.7813 2094.7656,52.6875 2094.7656,50.9844 L2094.7656,49.8906 C2094.7656,48.1094 2096.0156,46.7969 2097.75,46.7969 C2098.3281,46.7969 2098.9375,46.9531 2099.4063,47.2031 C2099.8906,47.4844 2100.0625,47.7031 2100.1563,48.1094 C2100.2188,48.5156 2100.25,48.6406 2100.3906,48.7656 C2100.5313,48.9063 2100.7656,49.0156 2100.9844,49.0156 C2101.25,49.0156 2101.5156,48.875 2101.6875,48.6563 C2101.7969,48.5 2101.8281,48.3125 2101.8281,47.8906 L2101.8281,46.4688 C2101.8281,46.0313 2101.8125,45.9063 2101.7188,45.75 C2101.5625,45.4844 2101.2813,45.3438 2100.9844,45.3438 C2100.6875,45.3438 2100.4844,45.4375 2100.2656,45.75 L2100.0938,45.6719 Z " fill="#000000"/><text fill="#000000" font-family="Verdana" font-size="14" lengthAdjust="spacing" textLength="172" x="2115.25" y="54.8467">LangNamespaceHandler</text><line style="stroke:#000000;stroke-width:1.0;" x1="1977" x2="2398" y1="64" y2="64"/><line style="stroke:#000000;stroke-width:1.0;" x1="1977" x2="2398" y1="72" y2="72"/><ellipse cx="1987" cy="85.6484" fill="#FFFFFF" rx="3" ry="3" style="stroke:#000000;stroke-width:1.0;"/><text fill="#000000" font-family="Verdana" font-size="14" lengthAdjust="spacing" textLength="73" x="1994" y="88.9951">init(): void</text><rect fill="#FFFFFF" height="6" style="stroke:#000000;stroke-width:1.0;" width="6" x="1984" y="98.9453"/><text fill="#000000" font-family="Verdana" font-size="14" lengthAdjust="spacing" textLength="399" x="1994" y="105.292">registerScriptBeanDefinitionParser(String, String): void</text></g><!--class MvcNamespaceHandler--><g id="elem_MvcNamespaceHandler"><rect codeLine="34" fill="#FFFFFF" height="60.2969" id="MvcNamespaceHandler" rx="2.5" ry="2.5" style="stroke:#000000;stroke-width:1.0;" width="194" x="2434.5" y="44.5"/><ellipse cx="2447.5" cy="58.5" fill="#FFFFFF" rx="9" ry="9" style="stroke:#000000;stroke-width:1.0;"/><path d="M2449.8438,54.1719 C2448.9063,53.7344 2448.3125,53.5938 2447.4375,53.5938 C2444.8125,53.5938 2442.8125,55.6719 2442.8125,58.3906 L2442.8125,59.5156 C2442.8125,62.0938 2444.9219,63.9844 2447.8125,63.9844 C2449.0313,63.9844 2450.1875,63.6875 2450.9375,63.1406 C2451.5156,62.7344 2451.8438,62.2813 2451.8438,61.8906 C2451.8438,61.4375 2451.4531,61.0469 2450.9844,61.0469 C2450.7656,61.0469 2450.5625,61.125 2450.375,61.3125 C2449.9219,61.7969 2449.9219,61.7969 2449.7344,61.8906 C2449.3125,62.1563 2448.625,62.2813 2447.8594,62.2813 C2445.8125,62.2813 2444.5156,61.1875 2444.5156,59.4844 L2444.5156,58.3906 C2444.5156,56.6094 2445.7656,55.2969 2447.5,55.2969 C2448.0781,55.2969 2448.6875,55.4531 2449.1563,55.7031 C2449.6406,55.9844 2449.8125,56.2031 2449.9063,56.6094 C2449.9688,57.0156 2450,57.1406 2450.1406,57.2656 C2450.2813,57.4063 2450.5156,57.5156 2450.7344,57.5156 C2451,57.5156 2451.2656,57.375 2451.4375,57.1563 C2451.5469,57 2451.5781,56.8125 2451.5781,56.3906 L2451.5781,54.9688 C2451.5781,54.5313 2451.5625,54.4063 2451.4688,54.25 C2451.3125,53.9844 2451.0313,53.8438 2450.7344,53.8438 C2450.4375,53.8438 2450.2344,53.9375 2450.0156,54.25 L2449.8438,54.1719 Z " fill="#000000"/><text fill="#000000" font-family="Verdana" font-size="14" lengthAdjust="spacing" textLength="166" x="2459.5" y="63.3467">MvcNamespaceHandler</text><line style="stroke:#000000;stroke-width:1.0;" x1="2435.5" x2="2627.5" y1="72.5" y2="72.5"/><line style="stroke:#000000;stroke-width:1.0;" x1="2435.5" x2="2627.5" y1="80.5" y2="80.5"/><ellipse cx="2445.5" cy="94.1484" fill="#FFFFFF" rx="3" ry="3" style="stroke:#000000;stroke-width:1.0;"/><text fill="#000000" font-family="Verdana" font-size="14" lengthAdjust="spacing" textLength="73" x="2452.5" y="97.4951">init(): void</text></g><!--class NamespaceHandler--><g id="elem_NamespaceHandler"><rect codeLine="37" fill="#FFFFFF" height="105.1563" id="NamespaceHandler" rx="2.5" ry="2.5" style="stroke:#000000;stroke-width:1.0;" width="582" x="1896.5" y="464"/><ellipse cx="2113.25" cy="484.1328" fill="#FFFFFF" rx="9" ry="9" style="stroke:#000000;stroke-width:1.0;"/><path d="M2114.2031,480.9141 L2115.9219,480.9141 C2116.3125,480.9141 2116.5,480.8828 2116.625,480.8047 C2116.8906,480.6484 2117.0313,480.3672 2117.0313,480.0703 C2117.0313,479.8047 2116.9219,479.5391 2116.6875,479.3672 C2116.5156,479.2578 2116.375,479.2266 2115.9219,479.2266 L2110.7813,479.2266 C2110.3438,479.2266 2110.2188,479.2422 2110.0625,479.3359 C2109.8125,479.4922 2109.6563,479.7891 2109.6563,480.0703 C2109.6563,480.3516 2109.7969,480.6016 2110.0156,480.7734 C2110.1719,480.8828 2110.3594,480.9141 2110.7813,480.9141 L2112.5,480.9141 L2112.5,487.4297 L2110.7813,487.4297 C2110.3438,487.4297 2110.2188,487.4453 2110.0625,487.5547 C2109.8125,487.7109 2109.6563,487.9922 2109.6563,488.2891 C2109.6563,488.5391 2109.7969,488.8047 2110.0156,488.9609 C2110.1719,489.0859 2110.375,489.1328 2110.7813,489.1328 L2115.9219,489.1328 C2116.6719,489.1328 2117.0313,488.8516 2117.0313,488.2891 C2117.0313,488.0078 2116.9219,487.7578 2116.6875,487.5859 C2116.5156,487.4609 2116.375,487.4297 2115.9219,487.4297 L2114.2031,487.4297 L2114.2031,480.9141 Z " fill="#000000"/><text fill="#000000" font-family="Verdana" font-size="12" font-style="italic" lengthAdjust="spacing" textLength="67" x="2167.75" y="480.1387">«interface»</text><text fill="#000000" font-family="Verdana" font-size="14" font-style="italic" lengthAdjust="spacing" textLength="141" x="2130.75" y="495.9639">NamespaceHandler</text><line style="stroke:#000000;stroke-width:1.0;" x1="1897.5" x2="2477.5" y1="504.2656" y2="504.2656"/><line style="stroke:#000000;stroke-width:1.0;" x1="1897.5" x2="2477.5" y1="512.2656" y2="512.2656"/><ellipse cx="1907.5" cy="525.9141" fill="#FFFFFF" rx="3" ry="3" style="stroke:#000000;stroke-width:1.0;"/><text fill="#000000" font-family="Verdana" font-size="14" lengthAdjust="spacing" textLength="73" x="1914.5" y="529.2607">init(): void</text><ellipse cx="1907.5" cy="542.2109" fill="#FFFFFF" rx="3" ry="3" style="stroke:#000000;stroke-width:1.0;"/><text fill="#000000" font-family="Verdana" font-size="14" lengthAdjust="spacing" textLength="558" x="1914.5" y="545.5576">decorate(Node, BeanDefinitionHolder, ParserContext): BeanDefinitionHolder?</text><ellipse cx="1907.5" cy="558.5078" fill="#FFFFFF" rx="3" ry="3" style="stroke:#000000;stroke-width:1.0;"/><text fill="#000000" font-family="Verdana" font-size="14" lengthAdjust="spacing" textLength="347" x="1914.5" y="561.8545">parse(Element, ParserContext): BeanDefinition?</text></g><!--class NamespaceHandlerSupport--><g id="elem_NamespaceHandlerSupport"><rect codeLine="42" fill="#FFFFFF" height="206.9688" id="NamespaceHandlerSupport" rx="2.5" ry="2.5" style="stroke:#000000;stroke-width:1.0;" width="635" x="1870" y="197"/><ellipse cx="2085.25" cy="211" fill="#FFFFFF" rx="9" ry="9" style="stroke:#000000;stroke-width:1.0;"/><path d="M2087.5938,206.6719 C2086.6563,206.2344 2086.0625,206.0938 2085.1875,206.0938 C2082.5625,206.0938 2080.5625,208.1719 2080.5625,210.8906 L2080.5625,212.0156 C2080.5625,214.5938 2082.6719,216.4844 2085.5625,216.4844 C2086.7813,216.4844 2087.9375,216.1875 2088.6875,215.6406 C2089.2656,215.2344 2089.5938,214.7813 2089.5938,214.3906 C2089.5938,213.9375 2089.2031,213.5469 2088.7344,213.5469 C2088.5156,213.5469 2088.3125,213.625 2088.125,213.8125 C2087.6719,214.2969 2087.6719,214.2969 2087.4844,214.3906 C2087.0625,214.6563 2086.375,214.7813 2085.6094,214.7813 C2083.5625,214.7813 2082.2656,213.6875 2082.2656,211.9844 L2082.2656,210.8906 C2082.2656,209.1094 2083.5156,207.7969 2085.25,207.7969 C2085.8281,207.7969 2086.4375,207.9531 2086.9063,208.2031 C2087.3906,208.4844 2087.5625,208.7031 2087.6563,209.1094 C2087.7188,209.5156 2087.75,209.6406 2087.8906,209.7656 C2088.0313,209.9063 2088.2656,210.0156 2088.4844,210.0156 C2088.75,210.0156 2089.0156,209.875 2089.1875,209.6563 C2089.2969,209.5 2089.3281,209.3125 2089.3281,208.8906 L2089.3281,207.4688 C2089.3281,207.0313 2089.3125,206.9063 2089.2188,206.75 C2089.0625,206.4844 2088.7813,206.3438 2088.4844,206.3438 C2088.1875,206.3438 2087.9844,206.4375 2087.7656,206.75 L2087.5938,206.6719 Z " fill="#000000"/><text fill="#000000" font-family="Verdana" font-size="14" lengthAdjust="spacing" textLength="197" x="2102.75" y="215.8467">NamespaceHandlerSupport</text><line style="stroke:#000000;stroke-width:1.0;" x1="1871" x2="2504" y1="225" y2="225"/><rect fill="none" height="6" style="stroke:#000000;stroke-width:1.0;" width="6" x="1878" y="235.6484"/><text fill="#000000" font-family="Verdana" font-size="14" lengthAdjust="spacing" textLength="319" x="1888" y="241.9951">parsers: Map&lt;String, BeanDefinitionParser&gt;</text><rect fill="none" height="6" style="stroke:#000000;stroke-width:1.0;" width="6" x="1878" y="251.9453"/><text fill="#000000" font-family="Verdana" font-size="14" lengthAdjust="spacing" textLength="372" x="1888" y="258.292">decorators: Map&lt;String, BeanDefinitionDecorator&gt;</text><rect fill="none" height="6" style="stroke:#000000;stroke-width:1.0;" width="6" x="1878" y="268.2422"/><text fill="#000000" font-family="Verdana" font-size="14" lengthAdjust="spacing" textLength="440" x="1888" y="274.5889">attributeDecorators: Map&lt;String, BeanDefinitionDecorator&gt;</text><line style="stroke:#000000;stroke-width:1.0;" x1="1871" x2="2504" y1="281.8906" y2="281.8906"/><ellipse cx="1881" cy="295.5391" fill="#FFFFFF" rx="3" ry="3" style="stroke:#000000;stroke-width:1.0;"/><text fill="#000000" font-family="Verdana" font-size="14" lengthAdjust="spacing" textLength="347" x="1888" y="298.8857">parse(Element, ParserContext): BeanDefinition?</text><polygon fill="#FFFFFF" points="1881,306.8359,1885,310.8359,1881,314.8359,1877,310.8359" style="stroke:#000000;stroke-width:1.0;"/><text fill="#000000" font-family="Verdana" font-size="14" lengthAdjust="spacing" textLength="611" x="1888" y="315.1826">registerBeanDefinitionDecoratorForAttribute(String, BeanDefinitionDecorator): void</text><rect fill="#FFFFFF" height="6" style="stroke:#000000;stroke-width:1.0;" width="6" x="1878" y="325.1328"/><text fill="#000000" font-family="Verdana" font-size="14" lengthAdjust="spacing" textLength="509" x="1888" y="331.4795">findParserForElement(Element, ParserContext): BeanDefinitionParser?</text><ellipse cx="1881" cy="344.4297" fill="#FFFFFF" rx="3" ry="3" style="stroke:#000000;stroke-width:1.0;"/><text fill="#000000" font-family="Verdana" font-size="14" lengthAdjust="spacing" textLength="558" x="1888" y="347.7764">decorate(Node, BeanDefinitionHolder, ParserContext): BeanDefinitionHolder?</text><polygon fill="#FFFFFF" points="1881,355.7266,1885,359.7266,1881,363.7266,1877,359.7266" style="stroke:#000000;stroke-width:1.0;"/><text fill="#000000" font-family="Verdana" font-size="14" lengthAdjust="spacing" textLength="464" x="1888" y="364.0732">registerBeanDefinitionParser(String, BeanDefinitionParser): void</text><rect fill="#FFFFFF" height="6" style="stroke:#000000;stroke-width:1.0;" width="6" x="1878" y="374.0234"/><text fill="#000000" font-family="Verdana" font-size="14" lengthAdjust="spacing" textLength="517" x="1888" y="380.3701">findDecoratorForNode(Node, ParserContext): BeanDefinitionDecorator?</text><polygon fill="#FFFFFF" points="1881,388.3203,1885,392.3203,1881,396.3203,1877,392.3203" style="stroke:#000000;stroke-width:1.0;"/><text fill="#000000" font-family="Verdana" font-size="14" lengthAdjust="spacing" textLength="520" x="1888" y="396.667">registerBeanDefinitionDecorator(String, BeanDefinitionDecorator): void</text></g><!--class OxmNamespaceHandler--><g id="elem_OxmNamespaceHandler"><rect codeLine="54" fill="#FFFFFF" height="60.2969" id="OxmNamespaceHandler" rx="2.5" ry="2.5" style="stroke:#000000;stroke-width:1.0;" width="199" x="2664" y="44.5"/><ellipse cx="2677" cy="58.5" fill="#FFFFFF" rx="9" ry="9" style="stroke:#000000;stroke-width:1.0;"/><path d="M2679.3438,54.1719 C2678.4063,53.7344 2677.8125,53.5938 2676.9375,53.5938 C2674.3125,53.5938 2672.3125,55.6719 2672.3125,58.3906 L2672.3125,59.5156 C2672.3125,62.0938 2674.4219,63.9844 2677.3125,63.9844 C2678.5313,63.9844 2679.6875,63.6875 2680.4375,63.1406 C2681.0156,62.7344 2681.3438,62.2813 2681.3438,61.8906 C2681.3438,61.4375 2680.9531,61.0469 2680.4844,61.0469 C2680.2656,61.0469 2680.0625,61.125 2679.875,61.3125 C2679.4219,61.7969 2679.4219,61.7969 2679.2344,61.8906 C2678.8125,62.1563 2678.125,62.2813 2677.3594,62.2813 C2675.3125,62.2813 2674.0156,61.1875 2674.0156,59.4844 L2674.0156,58.3906 C2674.0156,56.6094 2675.2656,55.2969 2677,55.2969 C2677.5781,55.2969 2678.1875,55.4531 2678.6563,55.7031 C2679.1406,55.9844 2679.3125,56.2031 2679.4063,56.6094 C2679.4688,57.0156 2679.5,57.1406 2679.6406,57.2656 C2679.7813,57.4063 2680.0156,57.5156 2680.2344,57.5156 C2680.5,57.5156 2680.7656,57.375 2680.9375,57.1563 C2681.0469,57 2681.0781,56.8125 2681.0781,56.3906 L2681.0781,54.9688 C2681.0781,54.5313 2681.0625,54.4063 2680.9688,54.25 C2680.8125,53.9844 2680.5313,53.8438 2680.2344,53.8438 C2679.9375,53.8438 2679.7344,53.9375 2679.5156,54.25 L2679.3438,54.1719 Z " fill="#000000"/><text fill="#000000" font-family="Verdana" font-size="14" lengthAdjust="spacing" textLength="171" x="2689" y="63.3467">OxmNamespaceHandler</text><line style="stroke:#000000;stroke-width:1.0;" x1="2665" x2="2862" y1="72.5" y2="72.5"/><line style="stroke:#000000;stroke-width:1.0;" x1="2665" x2="2862" y1="80.5" y2="80.5"/><ellipse cx="2675" cy="94.1484" fill="#FFFFFF" rx="3" ry="3" style="stroke:#000000;stroke-width:1.0;"/><text fill="#000000" font-family="Verdana" font-size="14" lengthAdjust="spacing" textLength="73" x="2682" y="97.4951">init(): void</text></g><!--class TaskNamespaceHandler--><g id="elem_TaskNamespaceHandler"><rect codeLine="57" fill="#FFFFFF" height="60.2969" id="TaskNamespaceHandler" rx="2.5" ry="2.5" style="stroke:#000000;stroke-width:1.0;" width="199" x="2898" y="44.5"/><ellipse cx="2911" cy="58.5" fill="#FFFFFF" rx="9" ry="9" style="stroke:#000000;stroke-width:1.0;"/><path d="M2913.3438,54.1719 C2912.4063,53.7344 2911.8125,53.5938 2910.9375,53.5938 C2908.3125,53.5938 2906.3125,55.6719 2906.3125,58.3906 L2906.3125,59.5156 C2906.3125,62.0938 2908.4219,63.9844 2911.3125,63.9844 C2912.5313,63.9844 2913.6875,63.6875 2914.4375,63.1406 C2915.0156,62.7344 2915.3438,62.2813 2915.3438,61.8906 C2915.3438,61.4375 2914.9531,61.0469 2914.4844,61.0469 C2914.2656,61.0469 2914.0625,61.125 2913.875,61.3125 C2913.4219,61.7969 2913.4219,61.7969 2913.2344,61.8906 C2912.8125,62.1563 2912.125,62.2813 2911.3594,62.2813 C2909.3125,62.2813 2908.0156,61.1875 2908.0156,59.4844 L2908.0156,58.3906 C2908.0156,56.6094 2909.2656,55.2969 2911,55.2969 C2911.5781,55.2969 2912.1875,55.4531 2912.6563,55.7031 C2913.1406,55.9844 2913.3125,56.2031 2913.4063,56.6094 C2913.4688,57.0156 2913.5,57.1406 2913.6406,57.2656 C2913.7813,57.4063 2914.0156,57.5156 2914.2344,57.5156 C2914.5,57.5156 2914.7656,57.375 2914.9375,57.1563 C2915.0469,57 2915.0781,56.8125 2915.0781,56.3906 L2915.0781,54.9688 C2915.0781,54.5313 2915.0625,54.4063 2914.9688,54.25 C2914.8125,53.9844 2914.5313,53.8438 2914.2344,53.8438 C2913.9375,53.8438 2913.7344,53.9375 2913.5156,54.25 L2913.3438,54.1719 Z " fill="#000000"/><text fill="#000000" font-family="Verdana" font-size="14" lengthAdjust="spacing" textLength="171" x="2923" y="63.3467">TaskNamespaceHandler</text><line style="stroke:#000000;stroke-width:1.0;" x1="2899" x2="3096" y1="72.5" y2="72.5"/><line style="stroke:#000000;stroke-width:1.0;" x1="2899" x2="3096" y1="80.5" y2="80.5"/><ellipse cx="2909" cy="94.1484" fill="#FFFFFF" rx="3" ry="3" style="stroke:#000000;stroke-width:1.0;"/><text fill="#000000" font-family="Verdana" font-size="14" lengthAdjust="spacing" textLength="73" x="2916" y="97.4951">init(): void</text></g><!--class TestNamespaceHandler--><g id="elem_TestNamespaceHandler"><rect codeLine="60" fill="#FFFFFF" height="60.2969" id="TestNamespaceHandler" rx="2.5" ry="2.5" style="stroke:#000000;stroke-width:1.0;" width="198" x="3132.5" y="44.5"/><ellipse cx="3145.5" cy="58.5" fill="#FFFFFF" rx="9" ry="9" style="stroke:#000000;stroke-width:1.0;"/><path d="M3147.8438,54.1719 C3146.9063,53.7344 3146.3125,53.5938 3145.4375,53.5938 C3142.8125,53.5938 3140.8125,55.6719 3140.8125,58.3906 L3140.8125,59.5156 C3140.8125,62.0938 3142.9219,63.9844 3145.8125,63.9844 C3147.0313,63.9844 3148.1875,63.6875 3148.9375,63.1406 C3149.5156,62.7344 3149.8438,62.2813 3149.8438,61.8906 C3149.8438,61.4375 3149.4531,61.0469 3148.9844,61.0469 C3148.7656,61.0469 3148.5625,61.125 3148.375,61.3125 C3147.9219,61.7969 3147.9219,61.7969 3147.7344,61.8906 C3147.3125,62.1563 3146.625,62.2813 3145.8594,62.2813 C3143.8125,62.2813 3142.5156,61.1875 3142.5156,59.4844 L3142.5156,58.3906 C3142.5156,56.6094 3143.7656,55.2969 3145.5,55.2969 C3146.0781,55.2969 3146.6875,55.4531 3147.1563,55.7031 C3147.6406,55.9844 3147.8125,56.2031 3147.9063,56.6094 C3147.9688,57.0156 3148,57.1406 3148.1406,57.2656 C3148.2813,57.4063 3148.5156,57.5156 3148.7344,57.5156 C3149,57.5156 3149.2656,57.375 3149.4375,57.1563 C3149.5469,57 3149.5781,56.8125 3149.5781,56.3906 L3149.5781,54.9688 C3149.5781,54.5313 3149.5625,54.4063 3149.4688,54.25 C3149.3125,53.9844 3149.0313,53.8438 3148.7344,53.8438 C3148.4375,53.8438 3148.2344,53.9375 3148.0156,54.25 L3147.8438,54.1719 Z " fill="#000000"/><text fill="#000000" font-family="Verdana" font-size="14" lengthAdjust="spacing" textLength="170" x="3157.5" y="63.3467">TestNamespaceHandler</text><line style="stroke:#000000;stroke-width:1.0;" x1="3133.5" x2="3329.5" y1="72.5" y2="72.5"/><line style="stroke:#000000;stroke-width:1.0;" x1="3133.5" x2="3329.5" y1="80.5" y2="80.5"/><ellipse cx="3143.5" cy="94.1484" fill="#FFFFFF" rx="3" ry="3" style="stroke:#000000;stroke-width:1.0;"/><text fill="#000000" font-family="Verdana" font-size="14" lengthAdjust="spacing" textLength="73" x="3150.5" y="97.4951">init(): void</text></g><!--class TxNamespaceHandler--><g id="elem_TxNamespaceHandler"><rect codeLine="63" fill="#FFFFFF" height="109.1875" id="TxNamespaceHandler" rx="2.5" ry="2.5" style="stroke:#000000;stroke-width:1.0;" width="423" x="3366" y="20"/><ellipse cx="3496.25" cy="34" fill="#FFFFFF" rx="9" ry="9" style="stroke:#000000;stroke-width:1.0;"/><path d="M3498.5938,29.6719 C3497.6563,29.2344 3497.0625,29.0938 3496.1875,29.0938 C3493.5625,29.0938 3491.5625,31.1719 3491.5625,33.8906 L3491.5625,35.0156 C3491.5625,37.5938 3493.6719,39.4844 3496.5625,39.4844 C3497.7813,39.4844 3498.9375,39.1875 3499.6875,38.6406 C3500.2656,38.2344 3500.5938,37.7813 3500.5938,37.3906 C3500.5938,36.9375 3500.2031,36.5469 3499.7344,36.5469 C3499.5156,36.5469 3499.3125,36.625 3499.125,36.8125 C3498.6719,37.2969 3498.6719,37.2969 3498.4844,37.3906 C3498.0625,37.6563 3497.375,37.7813 3496.6094,37.7813 C3494.5625,37.7813 3493.2656,36.6875 3493.2656,34.9844 L3493.2656,33.8906 C3493.2656,32.1094 3494.5156,30.7969 3496.25,30.7969 C3496.8281,30.7969 3497.4375,30.9531 3497.9063,31.2031 C3498.3906,31.4844 3498.5625,31.7031 3498.6563,32.1094 C3498.7188,32.5156 3498.75,32.6406 3498.8906,32.7656 C3499.0313,32.9063 3499.2656,33.0156 3499.4844,33.0156 C3499.75,33.0156 3500.0156,32.875 3500.1875,32.6563 C3500.2969,32.5 3500.3281,32.3125 3500.3281,31.8906 L3500.3281,30.4688 C3500.3281,30.0313 3500.3125,29.9063 3500.2188,29.75 C3500.0625,29.4844 3499.7813,29.3438 3499.4844,29.3438 C3499.1875,29.3438 3498.9844,29.4375 3498.7656,29.75 L3498.5938,29.6719 Z " fill="#000000"/><text fill="#000000" font-family="Verdana" font-size="14" lengthAdjust="spacing" textLength="155" x="3513.75" y="38.8467">TxNamespaceHandler</text><line style="stroke:#000000;stroke-width:1.0;" x1="3367" x2="3788" y1="48" y2="48"/><polygon fill="none" points="3377,57.6484,3373,63.6484,3381,63.6484" style="stroke:#000000;stroke-width:1.0;"/><text fill="#000000" font-family="Verdana" font-size="14" lengthAdjust="spacing" textLength="399" x="3384" y="64.9951">DEFAULT_TRANSACTION_MANAGER_BEAN_NAME: String</text><polygon fill="none" points="3377,73.9453,3373,79.9453,3381,79.9453" style="stroke:#000000;stroke-width:1.0;"/><text fill="#000000" font-family="Verdana" font-size="14" lengthAdjust="spacing" textLength="320" x="3384" y="81.292">TRANSACTION_MANAGER_ATTRIBUTE: String</text><line style="stroke:#000000;stroke-width:1.0;" x1="3367" x2="3788" y1="88.5938" y2="88.5938"/><ellipse cx="3377" cy="102.2422" fill="#FFFFFF" rx="3" ry="3" style="stroke:#000000;stroke-width:1.0;"/><text fill="#000000" font-family="Verdana" font-size="14" lengthAdjust="spacing" textLength="73" x="3384" y="105.5889">init(): void</text><polygon fill="#FFFFFF" points="3377,114.5391,3373,120.5391,3381,120.5391" style="stroke:#000000;stroke-width:1.0;"/><text fill="#000000" font-family="Verdana" font-size="14" lengthAdjust="spacing" textLength="335" x="3384" y="121.8857">getTransactionManagerName(Element): String</text></g><!--class UtilNamespaceHandler--><g id="elem_UtilNamespaceHandler"><rect codeLine="69" fill="#FFFFFF" height="76.5938" id="UtilNamespaceHandler" rx="2.5" ry="2.5" style="stroke:#000000;stroke-width:1.0;" width="211" x="3824" y="36"/><ellipse cx="3846.45" cy="50" fill="#FFFFFF" rx="9" ry="9" style="stroke:#000000;stroke-width:1.0;"/><path d="M3848.7938,45.6719 C3847.8563,45.2344 3847.2625,45.0938 3846.3875,45.0938 C3843.7625,45.0938 3841.7625,47.1719 3841.7625,49.8906 L3841.7625,51.0156 C3841.7625,53.5938 3843.8719,55.4844 3846.7625,55.4844 C3847.9813,55.4844 3849.1375,55.1875 3849.8875,54.6406 C3850.4656,54.2344 3850.7938,53.7813 3850.7938,53.3906 C3850.7938,52.9375 3850.4031,52.5469 3849.9344,52.5469 C3849.7156,52.5469 3849.5125,52.625 3849.325,52.8125 C3848.8719,53.2969 3848.8719,53.2969 3848.6844,53.3906 C3848.2625,53.6563 3847.575,53.7813 3846.8094,53.7813 C3844.7625,53.7813 3843.4656,52.6875 3843.4656,50.9844 L3843.4656,49.8906 C3843.4656,48.1094 3844.7156,46.7969 3846.45,46.7969 C3847.0281,46.7969 3847.6375,46.9531 3848.1063,47.2031 C3848.5906,47.4844 3848.7625,47.7031 3848.8563,48.1094 C3848.9188,48.5156 3848.95,48.6406 3849.0906,48.7656 C3849.2313,48.9063 3849.4656,49.0156 3849.6844,49.0156 C3849.95,49.0156 3850.2156,48.875 3850.3875,48.6563 C3850.4969,48.5 3850.5281,48.3125 3850.5281,47.8906 L3850.5281,46.4688 C3850.5281,46.0313 3850.5125,45.9063 3850.4188,45.75 C3850.2625,45.4844 3849.9813,45.3438 3849.6844,45.3438 C3849.3875,45.3438 3849.1844,45.4375 3848.9656,45.75 L3848.7938,45.6719 Z " fill="#000000"/><text fill="#000000" font-family="Verdana" font-size="14" lengthAdjust="spacing" textLength="162" x="3860.55" y="54.8467">UtilNamespaceHandler</text><line style="stroke:#000000;stroke-width:1.0;" x1="3825" x2="4034" y1="64" y2="64"/><rect fill="none" height="6" style="stroke:#000000;stroke-width:1.0;" width="6" x="3832" y="74.6484"/><text fill="#000000" font-family="Verdana" font-size="14" lengthAdjust="spacing" textLength="187" x="3842" y="80.9951">SCOPE_ATTRIBUTE: String</text><line style="stroke:#000000;stroke-width:1.0;" x1="3825" x2="4034" y1="88.2969" y2="88.2969"/><ellipse cx="3835" cy="101.9453" fill="#FFFFFF" rx="3" ry="3" style="stroke:#000000;stroke-width:1.0;"/><text fill="#000000" font-family="Verdana" font-size="14" lengthAdjust="spacing" textLength="73" x="3842" y="105.292">init(): void</text></g><!--class WebSocketNamespaceHandler--><g id="elem_WebSocketNamespaceHandler"><rect codeLine="73" fill="#FFFFFF" height="76.5938" id="WebSocketNamespaceHandler" rx="2.5" ry="2.5" style="stroke:#000000;stroke-width:1.0;" width="279" x="4070" y="36"/><ellipse cx="4096.05" cy="50" fill="#FFFFFF" rx="9" ry="9" style="stroke:#000000;stroke-width:1.0;"/><path d="M4098.3938,45.6719 C4097.4563,45.2344 4096.8625,45.0938 4095.9875,45.0938 C4093.3625,45.0938 4091.3625,47.1719 4091.3625,49.8906 L4091.3625,51.0156 C4091.3625,53.5938 4093.4719,55.4844 4096.3625,55.4844 C4097.5813,55.4844 4098.7375,55.1875 4099.4875,54.6406 C4100.0656,54.2344 4100.3938,53.7813 4100.3938,53.3906 C4100.3938,52.9375 4100.0031,52.5469 4099.5344,52.5469 C4099.3156,52.5469 4099.1125,52.625 4098.925,52.8125 C4098.4719,53.2969 4098.4719,53.2969 4098.2844,53.3906 C4097.8625,53.6563 4097.175,53.7813 4096.4094,53.7813 C4094.3625,53.7813 4093.0656,52.6875 4093.0656,50.9844 L4093.0656,49.8906 C4093.0656,48.1094 4094.3156,46.7969 4096.05,46.7969 C4096.6281,46.7969 4097.2375,46.9531 4097.7063,47.2031 C4098.1906,47.4844 4098.3625,47.7031 4098.4563,48.1094 C4098.5188,48.5156 4098.55,48.6406 4098.6906,48.7656 C4098.8313,48.9063 4099.0656,49.0156 4099.2844,49.0156 C4099.55,49.0156 4099.8156,48.875 4099.9875,48.6563 C4100.0969,48.5 4100.1281,48.3125 4100.1281,47.8906 L4100.1281,46.4688 C4100.1281,46.0313 4100.1125,45.9063 4100.0188,45.75 C4099.8625,45.4844 4099.5813,45.3438 4099.2844,45.3438 C4098.9875,45.3438 4098.7844,45.4375 4098.5656,45.75 L4098.3938,45.6719 Z " fill="#000000"/><text fill="#000000" font-family="Verdana" font-size="14" lengthAdjust="spacing" textLength="222" x="4110.95" y="54.8467">WebSocketNamespaceHandler</text><line style="stroke:#000000;stroke-width:1.0;" x1="4071" x2="4348" y1="64" y2="64"/><rect fill="none" height="6" style="stroke:#000000;stroke-width:1.0;" width="6" x="4078" y="74.6484"/><text fill="#000000" font-family="Verdana" font-size="14" lengthAdjust="spacing" textLength="255" x="4088" y="80.9951">isSpringMessagingPresent: boolean</text><line style="stroke:#000000;stroke-width:1.0;" x1="4071" x2="4348" y1="88.2969" y2="88.2969"/><ellipse cx="4081" cy="101.9453" fill="#FFFFFF" rx="3" ry="3" style="stroke:#000000;stroke-width:1.0;"/><text fill="#000000" font-family="Verdana" font-size="14" lengthAdjust="spacing" textLength="73" x="4088" y="105.292">init(): void</text></g><!--link AopNamespaceHandler to NamespaceHandlerSupport--><g id="link_AopNamespaceHandler_NamespaceHandlerSupport"><path codeLine="78" d="M109.5,104.735 C109.5,180.048 109.5,370 109.5,370 C109.5,370 1849.92,370 1849.92,370 " fill="none" id="AopNamespaceHandler-to-NamespaceHandlerSupport" style="stroke:#000082;stroke-width:1.0;"/><polygon fill="none" points="1849.92,363,1869.92,370,1849.92,377,1849.92,363" style="stroke:#000082;stroke-width:1.0;"/></g><!--link CacheNamespaceHandler to NamespaceHandlerSupport--><g id="link_CacheNamespaceHandler_NamespaceHandlerSupport"><path codeLine="79" d="M711.311,133 C1114.06,133 1893.67,133 1893.67,133 C1893.67,133 1893.67,176.802 1893.67,176.802 " fill="none" id="CacheNamespaceHandler-to-NamespaceHandlerSupport" style="stroke:#000082;stroke-width:1.0;"/><polygon fill="none" points="1900.67,176.802,1893.67,196.802,1886.67,176.802,1900.67,176.802" style="stroke:#000082;stroke-width:1.0;"/></g><!--link ComponentNamespaceHandler to NamespaceHandlerSupport--><g id="link_ComponentNamespaceHandler_NamespaceHandlerSupport"><path codeLine="80" d="M872.5,104.637 C872.5,173.209 872.5,335 872.5,335 C872.5,335 1849.59,335 1849.59,335 " fill="none" id="ComponentNamespaceHandler-to-NamespaceHandlerSupport" style="stroke:#000082;stroke-width:1.0;"/><polygon fill="none" points="1849.59,328,1869.59,335,1849.59,342,1849.59,328" style="stroke:#000082;stroke-width:1.0;"/></g><!--link ContextNamespaceHandler to NamespaceHandlerSupport--><g id="link_ContextNamespaceHandler_NamespaceHandlerSupport"><path codeLine="81" d="M1146.5,104.577 C1146.5,166.19 1146.5,301 1146.5,301 C1146.5,301 1849.86,301 1849.86,301 " fill="none" id="ContextNamespaceHandler-to-NamespaceHandlerSupport" style="stroke:#000082;stroke-width:1.0;"/><polygon fill="none" points="1849.86,294,1869.86,301,1849.86,308,1849.86,294" style="stroke:#000082;stroke-width:1.0;"/></g><!--link JdbcNamespaceHandler to NamespaceHandlerSupport--><g id="link_JdbcNamespaceHandler_NamespaceHandlerSupport"><path codeLine="82" d="M1392.5,104.844 C1392.5,158.842 1392.5,266 1392.5,266 C1392.5,266 1849.87,266 1849.87,266 " fill="none" id="JdbcNamespaceHandler-to-NamespaceHandlerSupport" style="stroke:#000082;stroke-width:1.0;"/><polygon fill="none" points="1849.87,259,1869.87,266,1849.87,273,1849.87,259" style="stroke:#000082;stroke-width:1.0;"/></g><!--link JeeNamespaceHandler to NamespaceHandlerSupport--><g id="link_JeeNamespaceHandler_NamespaceHandlerSupport"><path codeLine="83" d="M1620.5,104.868 C1620.5,150.635 1620.5,232 1620.5,232 C1620.5,232 1849.61,232 1849.61,232 " fill="none" id="JeeNamespaceHandler-to-NamespaceHandlerSupport" style="stroke:#000082;stroke-width:1.0;"/><polygon fill="none" points="1849.61,225,1869.61,232,1849.61,239,1849.61,225" style="stroke:#000082;stroke-width:1.0;"/></g><!--link JmsNamespaceHandler to NamespaceHandlerSupport--><g id="link_JmsNamespaceHandler_NamespaceHandlerSupport"><path codeLine="84" d="M1917.33,104.511 C1917.33,104.511 1917.33,176.852 1917.33,176.852 " fill="none" id="JmsNamespaceHandler-to-NamespaceHandlerSupport" style="stroke:#000082;stroke-width:1.0;"/><polygon fill="none" points="1924.33,176.853,1917.33,196.852,1910.33,176.852,1924.33,176.853" style="stroke:#000082;stroke-width:1.0;"/></g><!--link LangNamespaceHandler to NamespaceHandlerSupport--><g id="link_LangNamespaceHandler_NamespaceHandlerSupport"><path codeLine="85" d="M2187.5,113.094 C2187.5,113.094 2187.5,176.869 2187.5,176.869 " fill="none" id="LangNamespaceHandler-to-NamespaceHandlerSupport" style="stroke:#000082;stroke-width:1.0;"/><polygon fill="none" points="2194.5,176.869,2187.5,196.869,2180.5,176.869,2194.5,176.869" style="stroke:#000082;stroke-width:1.0;"/></g><!--link MvcNamespaceHandler to NamespaceHandlerSupport--><g id="link_MvcNamespaceHandler_NamespaceHandlerSupport"><path codeLine="86" d="M2458,104.511 C2458,104.511 2458,176.852 2458,176.852 " fill="none" id="MvcNamespaceHandler-to-NamespaceHandlerSupport" style="stroke:#000082;stroke-width:1.0;"/><polygon fill="none" points="2465,176.853,2458,196.852,2451,176.852,2465,176.853" style="stroke:#000082;stroke-width:1.0;"/></g><!--link NamespaceHandlerSupport to NamespaceHandler--><g id="link_NamespaceHandlerSupport_NamespaceHandler"><path codeLine="87" d="M2187.5,404.071 C2187.5,404.071 2187.5,443.722 2187.5,443.722 " fill="none" id="NamespaceHandlerSupport-to-NamespaceHandler" style="stroke:#008200;stroke-width:1.0;stroke-dasharray:7.0,7.0;"/><polygon fill="none" points="2194.5,443.722,2187.5,463.722,2180.5,443.722,2194.5,443.722" style="stroke:#008200;stroke-width:1.0;"/></g><!--link OxmNamespaceHandler to NamespaceHandlerSupport--><g id="link_OxmNamespaceHandler_NamespaceHandlerSupport"><path codeLine="88" d="M2763.5,104.868 C2763.5,150.635 2763.5,232 2763.5,232 C2763.5,232 2525.41,232 2525.41,232 " fill="none" id="OxmNamespaceHandler-to-NamespaceHandlerSupport" style="stroke:#000082;stroke-width:1.0;"/><polygon fill="none" points="2525.41,239,2505.41,232,2525.41,225,2525.41,239" style="stroke:#000082;stroke-width:1.0;"/></g><!--link TaskNamespaceHandler to NamespaceHandlerSupport--><g id="link_TaskNamespaceHandler_NamespaceHandlerSupport"><path codeLine="89" d="M2997.5,104.844 C2997.5,158.842 2997.5,266 2997.5,266 C2997.5,266 2525.02,266 2525.02,266 " fill="none" id="TaskNamespaceHandler-to-NamespaceHandlerSupport" style="stroke:#000082;stroke-width:1.0;"/><polygon fill="none" points="2525.02,273,2505.02,266,2525.02,259,2525.02,273" style="stroke:#000082;stroke-width:1.0;"/></g><!--link TestNamespaceHandler to NamespaceHandlerSupport--><g id="link_TestNamespaceHandler_NamespaceHandlerSupport"><path codeLine="90" d="M3231.5,104.577 C3231.5,166.19 3231.5,301 3231.5,301 C3231.5,301 2525.34,301 2525.34,301 " fill="none" id="TestNamespaceHandler-to-NamespaceHandlerSupport" style="stroke:#000082;stroke-width:1.0;"/><polygon fill="none" points="2525.34,308,2505.34,301,2525.34,294,2525.34,308" style="stroke:#000082;stroke-width:1.0;"/></g><!--link TxNamespaceHandler to NamespaceHandlerSupport--><g id="link_TxNamespaceHandler_NamespaceHandlerSupport"><path codeLine="91" d="M3365.86,121 C3047.31,121 2481.5,121 2481.5,121 C2481.5,121 2481.5,176.864 2481.5,176.864 " fill="none" id="TxNamespaceHandler-to-NamespaceHandlerSupport" style="stroke:#000082;stroke-width:1.0;"/><polygon fill="none" points="2488.5,176.864,2481.5,196.864,2474.5,176.864,2488.5,176.864" style="stroke:#000082;stroke-width:1.0;"/></g><!--link UtilNamespaceHandler to NamespaceHandlerSupport--><g id="link_UtilNamespaceHandler_NamespaceHandlerSupport"><path codeLine="92" d="M3929.5,113.218 C3929.5,185.785 3929.5,335 3929.5,335 C3929.5,335 2525.24,335 2525.24,335 " fill="none" id="UtilNamespaceHandler-to-NamespaceHandlerSupport" style="stroke:#000082;stroke-width:1.0;"/><polygon fill="none" points="2525.24,342,2505.24,335,2525.24,328,2525.24,342" style="stroke:#000082;stroke-width:1.0;"/></g><!--link WebSocketNamespaceHandler to NamespaceHandlerSupport--><g id="link_WebSocketNamespaceHandler_NamespaceHandlerSupport"><path codeLine="93" d="M4209.5,113.131 C4209.5,193.23 4209.5,370 4209.5,370 C4209.5,370 2525.11,370 2525.11,370 " fill="none" id="WebSocketNamespaceHandler-to-NamespaceHandlerSupport" style="stroke:#000082;stroke-width:1.0;"/><polygon fill="none" points="2525.11,377,2505.11,370,2525.11,363,2525.11,377" style="stroke:#000082;stroke-width:1.0;"/></g><!--SRC=[hLR1Rk8m4BtdAsRL2rL1GZrLg6eL82tTBMb5WlQmsaKccOBLn8vijwAgjj- -9WcqW0CuMfyGVlFyPZoPvszgZYb2bX3A7CKpK1ocN2cUGam5HefoviXdoZ8YI0e9PQZUCWGkr9mxJfGGAS7bcKzIb1c9S41OdA20TmVW32YZgd7QWLTEO-Tl2U-HQ8x6W0_eUpVk-3wSzDpUm9iCNT-zzKQJhkVw4zyTUXq8bA1ibcCtCMuOZkwwut0JWmibIAJo8uU4aHcAXfVeb9awtG3g_2J-mBTRP2Y8ucjO4xf8M1-VbhdeQkYmpJ_s9ChJZ3FDOLKTpfHMRHFoFPv6LdX4AtWgRU3tXCsEmGEqGE2CIeKYY0JDr6PT7vSt8Xh57JNBkze-RFXwPEPKLrKyQHJiu2yluNFtwigizGnYZBZk36puFCRjhXZm94RHX49qUOSxhLAWhdEwlE4-csn_uFKwuMtrmKkMwOyn5zqgI8Nim91abwlAcSfwbSFBbFZ-YFuALGGHfL7J5uLz-sZhj05ErarImNl3XRkIr3YWuMllwSsuE5upb8AE5LRiNl__lgZATkjZC6rkv_QrG4jffRxzIjP1HvN-s7AlclTXaTfCaf38PoiyIgkv6IuEk50uSlt0xOLt3_u1Bp8XJOwqCrS-O8Og58H9afjjQL9BORj6jH8-LZGnIcz1q7juz8uvUiNr4wS1ZvvHLH1I6MHBXY5AIMRwnwD0gLLrz3k19_hUJTIEwKbGhjQlaxPU5-VD_DNnk_K7AgSQW6D-BTHYghHZUoQpHzjhCbfthUnCfbwJoU3tzPYCJu5QJ2QVhyTKlLKmNPotsysOo3d6HYfOBySqpkg9CawwUaoc6LYFQL6PkYMJSLpLOgeULZPC_m00]--></g></svg>