<?xml version="1.0" encoding="UTF-8" standalone="no"?><svg xmlns="http://www.w3.org/2000/svg" xmlns:xlink="http://www.w3.org/1999/xlink" contentStyleType="text/css" height="1055px" preserveAspectRatio="none" style="width:1653px;height:1055px;background:#FFFFFF;" version="1.1" viewBox="0 0 1653 1055" width="1653px" zoomAndPan="magnify"><defs/><g><!--class AbstractMessageConverterMethodArgumentResolver--><g id="elem_AbstractMessageConverterMethodArgumentResolver"><rect codeLine="5" fill="#FFFFFF" height="255.8594" id="AbstractMessageConverterMethodArgumentResolver" rx="2.5" ry="2.5" style="stroke:#000000;stroke-width:1.0;" width="627" x="895.5" y="644"/><ellipse cx="1012.25" cy="658" fill="#FFFFFF" rx="9" ry="9" style="stroke:#000000;stroke-width:1.0;"/><path d="M1014.5938,653.6719 C1013.6563,653.2344 1013.0625,653.0938 1012.1875,653.0938 C1009.5625,653.0938 1007.5625,655.1719 1007.5625,657.8906 L1007.5625,659.0156 C1007.5625,661.5938 1009.6719,663.4844 1012.5625,663.4844 C1013.7813,663.4844 1014.9375,663.1875 1015.6875,662.6406 C1016.2656,662.2344 1016.5938,661.7813 1016.5938,661.3906 C1016.5938,660.9375 1016.2031,660.5469 1015.7344,660.5469 C1015.5156,660.5469 1015.3125,660.625 1015.125,660.8125 C1014.6719,661.2969 1014.6719,661.2969 1014.4844,661.3906 C1014.0625,661.6563 1013.375,661.7813 1012.6094,661.7813 C1010.5625,661.7813 1009.2656,660.6875 1009.2656,658.9844 L1009.2656,657.8906 C1009.2656,656.1094 1010.5156,654.7969 1012.25,654.7969 C1012.8281,654.7969 1013.4375,654.9531 1013.9063,655.2031 C1014.3906,655.4844 1014.5625,655.7031 1014.6563,656.1094 C1014.7188,656.5156 1014.75,656.6406 1014.8906,656.7656 C1015.0313,656.9063 1015.2656,657.0156 1015.4844,657.0156 C1015.75,657.0156 1016.0156,656.875 1016.1875,656.6563 C1016.2969,656.5 1016.3281,656.3125 1016.3281,655.8906 L1016.3281,654.4688 C1016.3281,654.0313 1016.3125,653.9063 1016.2188,653.75 C1016.0625,653.4844 1015.7813,653.3438 1015.4844,653.3438 C1015.1875,653.3438 1014.9844,653.4375 1014.7656,653.75 L1014.5938,653.6719 Z " fill="#000000"/><text fill="#000000" font-family="Verdana" font-size="14" lengthAdjust="spacing" textLength="386" x="1029.75" y="662.8467">AbstractMessageConverterMethodArgumentResolver</text><line style="stroke:#000000;stroke-width:1.0;" x1="896.5" x2="1521.5" y1="672" y2="672"/><rect fill="none" height="6" style="stroke:#000000;stroke-width:1.0;" width="6" x="903.5" y="682.6484"/><text fill="#000000" font-family="Verdana" font-size="14" lengthAdjust="spacing" textLength="309" x="913.5" y="688.9951">SUPPORTED_METHODS: Set&lt;HttpMethod&gt;</text><polygon fill="none" points="906.5,696.9453,910.5,700.9453,906.5,704.9453,902.5,700.9453" style="stroke:#000000;stroke-width:1.0;"/><text fill="#000000" font-family="Verdana" font-size="14" lengthAdjust="spacing" textLength="81" x="913.5" y="705.292">logger: Log</text><polygon fill="none" points="906.5,713.2422,910.5,717.2422,906.5,721.2422,902.5,717.2422" style="stroke:#000000;stroke-width:1.0;"/><text fill="#000000" font-family="Verdana" font-size="14" lengthAdjust="spacing" textLength="397" x="913.5" y="721.5889">messageConverters: List&lt;HttpMessageConverter&lt;?&gt;&gt;</text><rect fill="none" height="6" style="stroke:#000000;stroke-width:1.0;" width="6" x="903.5" y="731.5391"/><text fill="#000000" font-family="Verdana" font-size="14" lengthAdjust="spacing" textLength="308" x="913.5" y="737.8857">advice: RequestResponseBodyAdviceChain</text><rect fill="none" height="6" style="stroke:#000000;stroke-width:1.0;" width="6" x="903.5" y="747.8359"/><text fill="#000000" font-family="Verdana" font-size="14" lengthAdjust="spacing" textLength="132" x="913.5" y="754.1826">NO_VALUE: Object</text><line style="stroke:#000000;stroke-width:1.0;" x1="896.5" x2="1521.5" y1="761.4844" y2="761.4844"/><polygon fill="#FFFFFF" points="906.5,770.1328,910.5,774.1328,906.5,778.1328,902.5,774.1328" style="stroke:#000000;stroke-width:1.0;"/><text fill="#000000" font-family="Verdana" font-size="14" lengthAdjust="spacing" textLength="510" x="913.5" y="778.4795">isBindExceptionRequired(WebDataBinder, MethodParameter): boolean</text><polygon fill="#FFFFFF" points="906.5,786.4297,910.5,790.4297,906.5,794.4297,902.5,790.4297" style="stroke:#000000;stroke-width:1.0;"/><text fill="#000000" font-family="Verdana" font-size="14" lengthAdjust="spacing" textLength="598" x="913.5" y="794.7764">readWithMessageConverters(HttpInputMessage, MethodParameter, Type): Object?</text><polygon fill="#FFFFFF" points="906.5,803.7266,902.5,809.7266,910.5,809.7266" style="stroke:#000000;stroke-width:1.0;"/><text fill="#000000" font-family="Verdana" font-size="14" lengthAdjust="spacing" textLength="345" x="913.5" y="811.0732">getAdvice(): RequestResponseBodyAdviceChain</text><polygon fill="#FFFFFF" points="906.5,819.0234,910.5,823.0234,906.5,827.0234,902.5,823.0234" style="stroke:#000000;stroke-width:1.0;"/><text fill="#000000" font-family="Verdana" font-size="14" lengthAdjust="spacing" textLength="446" x="913.5" y="827.3701">validateIfApplicable(WebDataBinder, MethodParameter): void</text><polygon fill="#FFFFFF" points="906.5,835.3203,910.5,839.3203,906.5,843.3203,902.5,839.3203" style="stroke:#000000;stroke-width:1.0;"/><text fill="#000000" font-family="Verdana" font-size="14" lengthAdjust="spacing" textLength="466" x="913.5" y="843.667">adaptArgumentIfNecessary(Object?, MethodParameter): Object?</text><polygon fill="#FFFFFF" points="906.5,851.6172,910.5,855.6172,906.5,859.6172,902.5,855.6172" style="stroke:#000000;stroke-width:1.0;"/><text fill="#000000" font-family="Verdana" font-size="14" lengthAdjust="spacing" textLength="495" x="913.5" y="859.9639">createInputMessage(NativeWebRequest): ServletServerHttpRequest</text><polygon fill="#FFFFFF" points="906.5,867.9141,910.5,871.9141,906.5,875.9141,902.5,871.9141" style="stroke:#000000;stroke-width:1.0;"/><text fill="#000000" font-family="Verdana" font-size="14" lengthAdjust="spacing" textLength="603" x="913.5" y="876.2607">readWithMessageConverters(NativeWebRequest, MethodParameter, Type): Object?</text><polygon fill="#FFFFFF" points="906.5,884.2109,910.5,888.2109,906.5,892.2109,902.5,888.2109" style="stroke:#000000;stroke-width:1.0;"/><text fill="#000000" font-family="Verdana" font-size="14" lengthAdjust="spacing" textLength="397" x="913.5" y="892.5576">getSupportedMediaTypes(Class&lt;?&gt;): List&lt;MediaType&gt;</text></g><!--class AbstractMessageConverterMethodProcessor--><g id="elem_AbstractMessageConverterMethodProcessor"><rect codeLine="20" fill="#FFFFFF" height="369.9375" id="AbstractMessageConverterMethodProcessor" rx="2.5" ry="2.5" style="stroke:#000000;stroke-width:1.0;" width="851" x="783.5" y="214"/><ellipse cx="1044.25" cy="228" fill="#FFFFFF" rx="9" ry="9" style="stroke:#000000;stroke-width:1.0;"/><path d="M1046.5938,223.6719 C1045.6563,223.2344 1045.0625,223.0938 1044.1875,223.0938 C1041.5625,223.0938 1039.5625,225.1719 1039.5625,227.8906 L1039.5625,229.0156 C1039.5625,231.5938 1041.6719,233.4844 1044.5625,233.4844 C1045.7813,233.4844 1046.9375,233.1875 1047.6875,232.6406 C1048.2656,232.2344 1048.5938,231.7813 1048.5938,231.3906 C1048.5938,230.9375 1048.2031,230.5469 1047.7344,230.5469 C1047.5156,230.5469 1047.3125,230.625 1047.125,230.8125 C1046.6719,231.2969 1046.6719,231.2969 1046.4844,231.3906 C1046.0625,231.6563 1045.375,231.7813 1044.6094,231.7813 C1042.5625,231.7813 1041.2656,230.6875 1041.2656,228.9844 L1041.2656,227.8906 C1041.2656,226.1094 1042.5156,224.7969 1044.25,224.7969 C1044.8281,224.7969 1045.4375,224.9531 1045.9063,225.2031 C1046.3906,225.4844 1046.5625,225.7031 1046.6563,226.1094 C1046.7188,226.5156 1046.75,226.6406 1046.8906,226.7656 C1047.0313,226.9063 1047.2656,227.0156 1047.4844,227.0156 C1047.75,227.0156 1048.0156,226.875 1048.1875,226.6563 C1048.2969,226.5 1048.3281,226.3125 1048.3281,225.8906 L1048.3281,224.4688 C1048.3281,224.0313 1048.3125,223.9063 1048.2188,223.75 C1048.0625,223.4844 1047.7813,223.3438 1047.4844,223.3438 C1047.1875,223.3438 1046.9844,223.4375 1046.7656,223.75 L1046.5938,223.6719 Z " fill="#000000"/><text fill="#000000" font-family="Verdana" font-size="14" lengthAdjust="spacing" textLength="322" x="1061.75" y="232.8467">AbstractMessageConverterMethodProcessor</text><line style="stroke:#000000;stroke-width:1.0;" x1="784.5" x2="1633.5" y1="242" y2="242"/><rect fill="none" height="6" style="stroke:#000000;stroke-width:1.0;" width="6" x="791.5" y="252.6484"/><text fill="#000000" font-family="Verdana" font-size="14" lengthAdjust="spacing" textLength="233" x="801.5" y="258.9951">SAFE_EXTENSIONS: Set&lt;String&gt;</text><rect fill="none" height="6" style="stroke:#000000;stroke-width:1.0;" width="6" x="791.5" y="268.9453"/><text fill="#000000" font-family="Verdana" font-size="14" lengthAdjust="spacing" textLength="264" x="801.5" y="275.292">RESOURCE_REGION_LIST_TYPE: Type</text><rect fill="none" height="6" style="stroke:#000000;stroke-width:1.0;" width="6" x="791.5" y="285.2422"/><text fill="#000000" font-family="Verdana" font-size="14" lengthAdjust="spacing" textLength="367" x="801.5" y="291.5889">ALL_APPLICATION_MEDIA_TYPES: List&lt;MediaType&gt;</text><rect fill="none" height="6" style="stroke:#000000;stroke-width:1.0;" width="6" x="791.5" y="301.5391"/><text fill="#000000" font-family="Verdana" font-size="14" lengthAdjust="spacing" textLength="208" x="801.5" y="307.8857">safeExtensions: Set&lt;String&gt;</text><rect fill="none" height="6" style="stroke:#000000;stroke-width:1.0;" width="6" x="791.5" y="317.8359"/><text fill="#000000" font-family="Verdana" font-size="14" lengthAdjust="spacing" textLength="286" x="801.5" y="324.1826">SAFE_MEDIA_BASE_TYPES: Set&lt;String&gt;</text><rect fill="none" height="6" style="stroke:#000000;stroke-width:1.0;" width="6" x="791.5" y="334.1328"/><text fill="#000000" font-family="Verdana" font-size="14" lengthAdjust="spacing" textLength="419" x="801.5" y="340.4795">contentNegotiationManager: ContentNegotiationManager</text><line style="stroke:#000000;stroke-width:1.0;" x1="784.5" x2="1633.5" y1="347.7813" y2="347.7813"/><polygon fill="#FFFFFF" points="794.5,356.4297,798.5,360.4297,794.5,364.4297,790.5,360.4297" style="stroke:#000000;stroke-width:1.0;"/><text fill="#000000" font-family="Verdana" font-size="14" lengthAdjust="spacing" textLength="555" x="801.5" y="364.7764">writeWithMessageConverters(T, MethodParameter, NativeWebRequest): void</text><polygon fill="#FFFFFF" points="794.5,372.7266,798.5,376.7266,794.5,380.7266,790.5,376.7266" style="stroke:#000000;stroke-width:1.0;"/><text fill="#000000" font-family="Verdana" font-size="14" lengthAdjust="spacing" textLength="549" x="801.5" y="381.0732">getProducibleMediaTypes(HttpServletRequest, Class&lt;?&gt;): List&lt;MediaType&gt;</text><rect fill="#FFFFFF" height="6" style="stroke:#000000;stroke-width:1.0;" width="6" x="791.5" y="391.0234"/><text fill="#000000" font-family="Verdana" font-size="14" lengthAdjust="spacing" textLength="483" x="801.5" y="397.3701">getAcceptableMediaTypes(HttpServletRequest): List&lt;MediaType&gt;</text><polygon fill="#FFFFFF" points="794.5,405.3203,798.5,409.3203,794.5,413.3203,790.5,409.3203" style="stroke:#000000;stroke-width:1.0;"/><text fill="#000000" font-family="Verdana" font-size="14" lengthAdjust="spacing" textLength="827" x="801.5" y="413.667">writeWithMessageConverters(T?, MethodParameter, ServletServerHttpRequest, ServletServerHttpResponse): void</text><polygon fill="#FFFFFF" points="794.5,421.6172,798.5,425.6172,794.5,429.6172,790.5,425.6172" style="stroke:#000000;stroke-width:1.0;"/><text fill="#000000" font-family="Verdana" font-size="14" lengthAdjust="spacing" textLength="385" x="801.5" y="429.9639">isResourceType(Object?, MethodParameter): boolean</text><rect fill="#FFFFFF" height="6" style="stroke:#000000;stroke-width:1.0;" width="6" x="791.5" y="439.9141"/><text fill="#000000" font-family="Verdana" font-size="14" lengthAdjust="spacing" textLength="457" x="801.5" y="446.2607">getMostSpecificMediaType(MediaType, MediaType): MediaType</text><polygon fill="#FFFFFF" points="794.5,454.2109,798.5,458.2109,794.5,462.2109,790.5,458.2109" style="stroke:#000000;stroke-width:1.0;"/><text fill="#000000" font-family="Verdana" font-size="14" lengthAdjust="spacing" textLength="428" x="801.5" y="462.5576">getReturnValueType(Object?, MethodParameter): Class&lt;?&gt;</text><rect fill="#FFFFFF" height="6" style="stroke:#000000;stroke-width:1.0;" width="6" x="791.5" y="472.5078"/><text fill="#000000" font-family="Verdana" font-size="14" lengthAdjust="spacing" textLength="303" x="801.5" y="478.8545">getGenericType(MethodParameter): Type</text><rect fill="#FFFFFF" height="6" style="stroke:#000000;stroke-width:1.0;" width="6" x="791.5" y="488.8047"/><text fill="#000000" font-family="Verdana" font-size="14" lengthAdjust="spacing" textLength="670" x="801.5" y="495.1514">addContentDispositionHeader(ServletServerHttpRequest, ServletServerHttpResponse): void</text><polygon fill="#FFFFFF" points="794.5,503.1016,798.5,507.1016,794.5,511.1016,790.5,507.1016" style="stroke:#000000;stroke-width:1.0;"/><text fill="#000000" font-family="Verdana" font-size="14" lengthAdjust="spacing" textLength="519" x="801.5" y="511.4482">createOutputMessage(NativeWebRequest): ServletServerHttpResponse</text><rect fill="#FFFFFF" height="6" style="stroke:#000000;stroke-width:1.0;" width="6" x="791.5" y="521.3984"/><text fill="#000000" font-family="Verdana" font-size="14" lengthAdjust="spacing" textLength="382" x="801.5" y="527.7451">safeExtension(HttpServletRequest, String?): boolean</text><rect fill="#FFFFFF" height="6" style="stroke:#000000;stroke-width:1.0;" width="6" x="791.5" y="537.6953"/><text fill="#000000" font-family="Verdana" font-size="14" lengthAdjust="spacing" textLength="263" x="801.5" y="544.042">safeMediaType(MediaType): boolean</text><polygon fill="#FFFFFF" points="794.5,551.9922,798.5,555.9922,794.5,559.9922,790.5,555.9922" style="stroke:#000000;stroke-width:1.0;"/><text fill="#000000" font-family="Verdana" font-size="14" lengthAdjust="spacing" textLength="600" x="801.5" y="560.3389">getProducibleMediaTypes(HttpServletRequest, Class&lt;?&gt;, Type?): List&lt;MediaType&gt;</text><rect fill="#FFFFFF" height="6" style="stroke:#000000;stroke-width:1.0;" width="6" x="791.5" y="570.2891"/><text fill="#000000" font-family="Verdana" font-size="14" lengthAdjust="spacing" textLength="397" x="801.5" y="576.6357">resolveMediaType(ServletRequest, String): MediaType?</text></g><!--class HandlerMethodArgumentResolver--><g id="elem_HandlerMethodArgumentResolver"><rect codeLine="42" fill="#FFFFFF" height="88.8594" id="HandlerMethodArgumentResolver" rx="2.5" ry="2.5" style="stroke:#000000;stroke-width:1.0;" width="874" x="772" y="960"/><ellipse cx="1083.75" cy="980.1328" fill="#FFFFFF" rx="9" ry="9" style="stroke:#000000;stroke-width:1.0;"/><path d="M1084.7031,976.9141 L1086.4219,976.9141 C1086.8125,976.9141 1087,976.8828 1087.125,976.8047 C1087.3906,976.6484 1087.5313,976.3672 1087.5313,976.0703 C1087.5313,975.8047 1087.4219,975.5391 1087.1875,975.3672 C1087.0156,975.2578 1086.875,975.2266 1086.4219,975.2266 L1081.2813,975.2266 C1080.8438,975.2266 1080.7188,975.2422 1080.5625,975.3359 C1080.3125,975.4922 1080.1563,975.7891 1080.1563,976.0703 C1080.1563,976.3516 1080.2969,976.6016 1080.5156,976.7734 C1080.6719,976.8828 1080.8594,976.9141 1081.2813,976.9141 L1083,976.9141 L1083,983.4297 L1081.2813,983.4297 C1080.8438,983.4297 1080.7188,983.4453 1080.5625,983.5547 C1080.3125,983.7109 1080.1563,983.9922 1080.1563,984.2891 C1080.1563,984.5391 1080.2969,984.8047 1080.5156,984.9609 C1080.6719,985.0859 1080.875,985.1328 1081.2813,985.1328 L1086.4219,985.1328 C1087.1719,985.1328 1087.5313,984.8516 1087.5313,984.2891 C1087.5313,984.0078 1087.4219,983.7578 1087.1875,983.5859 C1087.0156,983.4609 1086.875,983.4297 1086.4219,983.4297 L1084.7031,983.4297 L1084.7031,976.9141 Z " fill="#000000"/><text fill="#000000" font-family="Verdana" font-size="12" font-style="italic" lengthAdjust="spacing" textLength="67" x="1189.25" y="976.1387">«interface»</text><text fill="#000000" font-family="Verdana" font-size="14" font-style="italic" lengthAdjust="spacing" textLength="243" x="1101.25" y="991.9639">HandlerMethodArgumentResolver</text><line style="stroke:#000000;stroke-width:1.0;" x1="773" x2="1645" y1="1000.2656" y2="1000.2656"/><line style="stroke:#000000;stroke-width:1.0;" x1="773" x2="1645" y1="1008.2656" y2="1008.2656"/><ellipse cx="783" cy="1021.9141" fill="#FFFFFF" rx="3" ry="3" style="stroke:#000000;stroke-width:1.0;"/><text fill="#000000" font-family="Verdana" font-size="14" lengthAdjust="spacing" textLength="850" x="790" y="1025.2607">resolveArgument(MethodParameter, ModelAndViewContainer?, NativeWebRequest, WebDataBinderFactory?): Object?</text><ellipse cx="783" cy="1038.2109" fill="#FFFFFF" rx="3" ry="3" style="stroke:#000000;stroke-width:1.0;"/><text fill="#000000" font-family="Verdana" font-size="14" lengthAdjust="spacing" textLength="348" x="790" y="1041.5576">supportsParameter(MethodParameter): boolean</text></g><!--class HandlerMethodReturnValueHandler--><g id="elem_HandlerMethodReturnValueHandler"><rect codeLine="46" fill="#FFFFFF" height="88.8594" id="HandlerMethodReturnValueHandler" rx="2.5" ry="2.5" style="stroke:#000000;stroke-width:1.0;" width="734" x="70" y="727.5"/><ellipse cx="305.25" cy="747.6328" fill="#FFFFFF" rx="9" ry="9" style="stroke:#000000;stroke-width:1.0;"/><path d="M306.2031,744.4141 L307.9219,744.4141 C308.3125,744.4141 308.5,744.3828 308.625,744.3047 C308.8906,744.1484 309.0313,743.8672 309.0313,743.5703 C309.0313,743.3047 308.9219,743.0391 308.6875,742.8672 C308.5156,742.7578 308.375,742.7266 307.9219,742.7266 L302.7813,742.7266 C302.3438,742.7266 302.2188,742.7422 302.0625,742.8359 C301.8125,742.9922 301.6563,743.2891 301.6563,743.5703 C301.6563,743.8516 301.7969,744.1016 302.0156,744.2734 C302.1719,744.3828 302.3594,744.4141 302.7813,744.4141 L304.5,744.4141 L304.5,750.9297 L302.7813,750.9297 C302.3438,750.9297 302.2188,750.9453 302.0625,751.0547 C301.8125,751.2109 301.6563,751.4922 301.6563,751.7891 C301.6563,752.0391 301.7969,752.3047 302.0156,752.4609 C302.1719,752.5859 302.375,752.6328 302.7813,752.6328 L307.9219,752.6328 C308.6719,752.6328 309.0313,752.3516 309.0313,751.7891 C309.0313,751.5078 308.9219,751.2578 308.6875,751.0859 C308.5156,750.9609 308.375,750.9297 307.9219,750.9297 L306.2031,750.9297 L306.2031,744.4141 Z " fill="#000000"/><text fill="#000000" font-family="Verdana" font-size="12" font-style="italic" lengthAdjust="spacing" textLength="67" x="417.25" y="743.6387">«interface»</text><text fill="#000000" font-family="Verdana" font-size="14" font-style="italic" lengthAdjust="spacing" textLength="256" x="322.75" y="759.4639">HandlerMethodReturnValueHandler</text><line style="stroke:#000000;stroke-width:1.0;" x1="71" x2="803" y1="767.7656" y2="767.7656"/><line style="stroke:#000000;stroke-width:1.0;" x1="71" x2="803" y1="775.7656" y2="775.7656"/><ellipse cx="81" cy="789.4141" fill="#FFFFFF" rx="3" ry="3" style="stroke:#000000;stroke-width:1.0;"/><text fill="#000000" font-family="Verdana" font-size="14" lengthAdjust="spacing" textLength="357" x="88" y="792.7607">supportsReturnType(MethodParameter): boolean</text><ellipse cx="81" cy="805.7109" fill="#FFFFFF" rx="3" ry="3" style="stroke:#000000;stroke-width:1.0;"/><text fill="#000000" font-family="Verdana" font-size="14" lengthAdjust="spacing" textLength="710" x="88" y="809.0576">handleReturnValue(Object?, MethodParameter, ModelAndViewContainer, NativeWebRequest): void</text></g><!--class ModelAndViewMethodReturnValueHandler--><g id="elem_ModelAndViewMethodReturnValueHandler"><rect codeLine="50" fill="#FFFFFF" height="141.7813" id="ModelAndViewMethodReturnValueHandler" rx="2.5" ry="2.5" style="stroke:#000000;stroke-width:1.0;" width="734" x="14" y="328"/><ellipse cx="225.75" cy="342" fill="#FFFFFF" rx="9" ry="9" style="stroke:#000000;stroke-width:1.0;"/><path d="M228.0938,337.6719 C227.1563,337.2344 226.5625,337.0938 225.6875,337.0938 C223.0625,337.0938 221.0625,339.1719 221.0625,341.8906 L221.0625,343.0156 C221.0625,345.5938 223.1719,347.4844 226.0625,347.4844 C227.2813,347.4844 228.4375,347.1875 229.1875,346.6406 C229.7656,346.2344 230.0938,345.7813 230.0938,345.3906 C230.0938,344.9375 229.7031,344.5469 229.2344,344.5469 C229.0156,344.5469 228.8125,344.625 228.625,344.8125 C228.1719,345.2969 228.1719,345.2969 227.9844,345.3906 C227.5625,345.6563 226.875,345.7813 226.1094,345.7813 C224.0625,345.7813 222.7656,344.6875 222.7656,342.9844 L222.7656,341.8906 C222.7656,340.1094 224.0156,338.7969 225.75,338.7969 C226.3281,338.7969 226.9375,338.9531 227.4063,339.2031 C227.8906,339.4844 228.0625,339.7031 228.1563,340.1094 C228.2188,340.5156 228.25,340.6406 228.3906,340.7656 C228.5313,340.9063 228.7656,341.0156 228.9844,341.0156 C229.25,341.0156 229.5156,340.875 229.6875,340.6563 C229.7969,340.5 229.8281,340.3125 229.8281,339.8906 L229.8281,338.4688 C229.8281,338.0313 229.8125,337.9063 229.7188,337.75 C229.5625,337.4844 229.2813,337.3438 228.9844,337.3438 C228.6875,337.3438 228.4844,337.4375 228.2656,337.75 L228.0938,337.6719 Z " fill="#000000"/><text fill="#000000" font-family="Verdana" font-size="14" lengthAdjust="spacing" textLength="303" x="243.25" y="346.8467">ModelAndViewMethodReturnValueHandler</text><line style="stroke:#000000;stroke-width:1.0;" x1="15" x2="747" y1="356" y2="356"/><rect fill="none" height="6" style="stroke:#000000;stroke-width:1.0;" width="6" x="22" y="366.6484"/><text fill="#000000" font-family="Verdana" font-size="14" lengthAdjust="spacing" textLength="190" x="32" y="372.9951">redirectPatterns: String[]?</text><line style="stroke:#000000;stroke-width:1.0;" x1="15" x2="747" y1="380.2969" y2="380.2969"/><ellipse cx="25" cy="393.9453" fill="#FFFFFF" rx="3" ry="3" style="stroke:#000000;stroke-width:1.0;"/><text fill="#000000" font-family="Verdana" font-size="14" lengthAdjust="spacing" textLength="710" x="32" y="397.292">handleReturnValue(Object?, MethodParameter, ModelAndViewContainer, NativeWebRequest): void</text><ellipse cx="25" cy="410.2422" fill="#FFFFFF" rx="3" ry="3" style="stroke:#000000;stroke-width:1.0;"/><text fill="#000000" font-family="Verdana" font-size="14" lengthAdjust="spacing" textLength="229" x="32" y="413.5889">getRedirectPatterns(): String[]?</text><ellipse cx="25" cy="426.5391" fill="#FFFFFF" rx="3" ry="3" style="stroke:#000000;stroke-width:1.0;"/><text fill="#000000" font-family="Verdana" font-size="14" lengthAdjust="spacing" textLength="357" x="32" y="429.8857">supportsReturnType(MethodParameter): boolean</text><ellipse cx="25" cy="442.8359" fill="#FFFFFF" rx="3" ry="3" style="stroke:#000000;stroke-width:1.0;"/><text fill="#000000" font-family="Verdana" font-size="14" lengthAdjust="spacing" textLength="257" x="32" y="446.1826">setRedirectPatterns(String[]?): void</text><polygon fill="#FFFFFF" points="25,454.1328,29,458.1328,25,462.1328,21,458.1328" style="stroke:#000000;stroke-width:1.0;"/><text fill="#000000" font-family="Verdana" font-size="14" lengthAdjust="spacing" textLength="269" x="32" y="462.4795">isRedirectViewName(String): boolean</text></g><!--class RequestResponseBodyMethodProcessor--><g id="elem_RequestResponseBodyMethodProcessor"><rect codeLine="58" fill="#FFFFFF" height="141.7813" id="RequestResponseBodyMethodProcessor" rx="2.5" ry="2.5" style="stroke:#000000;stroke-width:1.0;" width="874" x="772" y="12"/><ellipse cx="1060.25" cy="26" fill="#FFFFFF" rx="9" ry="9" style="stroke:#000000;stroke-width:1.0;"/><path d="M1062.5938,21.6719 C1061.6563,21.2344 1061.0625,21.0938 1060.1875,21.0938 C1057.5625,21.0938 1055.5625,23.1719 1055.5625,25.8906 L1055.5625,27.0156 C1055.5625,29.5938 1057.6719,31.4844 1060.5625,31.4844 C1061.7813,31.4844 1062.9375,31.1875 1063.6875,30.6406 C1064.2656,30.2344 1064.5938,29.7813 1064.5938,29.3906 C1064.5938,28.9375 1064.2031,28.5469 1063.7344,28.5469 C1063.5156,28.5469 1063.3125,28.625 1063.125,28.8125 C1062.6719,29.2969 1062.6719,29.2969 1062.4844,29.3906 C1062.0625,29.6563 1061.375,29.7813 1060.6094,29.7813 C1058.5625,29.7813 1057.2656,28.6875 1057.2656,26.9844 L1057.2656,25.8906 C1057.2656,24.1094 1058.5156,22.7969 1060.25,22.7969 C1060.8281,22.7969 1061.4375,22.9531 1061.9063,23.2031 C1062.3906,23.4844 1062.5625,23.7031 1062.6563,24.1094 C1062.7188,24.5156 1062.75,24.6406 1062.8906,24.7656 C1063.0313,24.9063 1063.2656,25.0156 1063.4844,25.0156 C1063.75,25.0156 1064.0156,24.875 1064.1875,24.6563 C1064.2969,24.5 1064.3281,24.3125 1064.3281,23.8906 L1064.3281,22.4688 C1064.3281,22.0313 1064.3125,21.9063 1064.2188,21.75 C1064.0625,21.4844 1063.7813,21.3438 1063.4844,21.3438 C1063.1875,21.3438 1062.9844,21.4375 1062.7656,21.75 L1062.5938,21.6719 Z " fill="#000000"/><text fill="#000000" font-family="Verdana" font-size="14" lengthAdjust="spacing" textLength="290" x="1077.75" y="30.8467">RequestResponseBodyMethodProcessor</text><line style="stroke:#000000;stroke-width:1.0;" x1="773" x2="1645" y1="40" y2="40"/><line style="stroke:#000000;stroke-width:1.0;" x1="773" x2="1645" y1="48" y2="48"/><polygon fill="#FFFFFF" points="783,56.6484,787,60.6484,783,64.6484,779,60.6484" style="stroke:#000000;stroke-width:1.0;"/><text fill="#000000" font-family="Verdana" font-size="14" lengthAdjust="spacing" textLength="315" x="790" y="64.9951">checkRequired(MethodParameter): boolean</text><ellipse cx="783" cy="77.9453" fill="#FFFFFF" rx="3" ry="3" style="stroke:#000000;stroke-width:1.0;"/><text fill="#000000" font-family="Verdana" font-size="14" lengthAdjust="spacing" textLength="850" x="790" y="81.292">resolveArgument(MethodParameter, ModelAndViewContainer?, NativeWebRequest, WebDataBinderFactory?): Object?</text><ellipse cx="783" cy="94.2422" fill="#FFFFFF" rx="3" ry="3" style="stroke:#000000;stroke-width:1.0;"/><text fill="#000000" font-family="Verdana" font-size="14" lengthAdjust="spacing" textLength="357" x="790" y="97.5889">supportsReturnType(MethodParameter): boolean</text><polygon fill="#FFFFFF" points="783,105.5391,787,109.5391,783,113.5391,779,109.5391" style="stroke:#000000;stroke-width:1.0;"/><text fill="#000000" font-family="Verdana" font-size="14" lengthAdjust="spacing" textLength="603" x="790" y="113.8857">readWithMessageConverters(NativeWebRequest, MethodParameter, Type): Object?</text><ellipse cx="783" cy="126.8359" fill="#FFFFFF" rx="3" ry="3" style="stroke:#000000;stroke-width:1.0;"/><text fill="#000000" font-family="Verdana" font-size="14" lengthAdjust="spacing" textLength="348" x="790" y="130.1826">supportsParameter(MethodParameter): boolean</text><ellipse cx="783" cy="143.1328" fill="#FFFFFF" rx="3" ry="3" style="stroke:#000000;stroke-width:1.0;"/><text fill="#000000" font-family="Verdana" font-size="14" lengthAdjust="spacing" textLength="710" x="790" y="146.4795">handleReturnValue(Object?, MethodParameter, ModelAndViewContainer, NativeWebRequest): void</text></g><!--link AbstractMessageConverterMethodArgumentResolver to HandlerMethodArgumentResolver--><g id="link_AbstractMessageConverterMethodArgumentResolver_HandlerMethodArgumentResolver"><path codeLine="67" d="M1209,900.152 C1209,900.152 1209,939.962 1209,939.962 " fill="none" id="AbstractMessageConverterMethodArgumentResolver-to-HandlerMethodArgumentResolver" style="stroke:#008200;stroke-width:1.0;stroke-dasharray:7.0,7.0;"/><polygon fill="none" points="1216,939.962,1209,959.9618,1202,939.962,1216,939.962" style="stroke:#008200;stroke-width:1.0;"/></g><!--link AbstractMessageConverterMethodProcessor to AbstractMessageConverterMethodArgumentResolver--><g id="link_AbstractMessageConverterMethodProcessor_AbstractMessageConverterMethodArgumentResolver"><path codeLine="68" d="M1209,584.134 C1209,584.134 1209,623.916 1209,623.916 " fill="none" id="AbstractMessageConverterMethodProcessor-to-AbstractMessageConverterMethodArgumentResolver" style="stroke:#000082;stroke-width:1.0;"/><polygon fill="none" points="1216,623.916,1209,643.916,1202,623.916,1216,623.916" style="stroke:#000082;stroke-width:1.0;"/></g><!--link AbstractMessageConverterMethodProcessor to HandlerMethodReturnValueHandler--><g id="link_AbstractMessageConverterMethodProcessor_HandlerMethodReturnValueHandler"><path codeLine="69" d="M793.75,584.134 C793.75,584.134 793.75,707.351 793.75,707.351 " fill="none" id="AbstractMessageConverterMethodProcessor-to-HandlerMethodReturnValueHandler" style="stroke:#008200;stroke-width:1.0;stroke-dasharray:7.0,7.0;"/><polygon fill="none" points="800.75,707.351,793.75,727.351,786.75,707.35,800.75,707.351" style="stroke:#008200;stroke-width:1.0;"/></g><!--link ModelAndViewMethodReturnValueHandler to HandlerMethodReturnValueHandler--><g id="link_ModelAndViewMethodReturnValueHandler_HandlerMethodReturnValueHandler"><path codeLine="70" d="M409,470.036 C409,470.036 409,707.283 409,707.283 " fill="none" id="ModelAndViewMethodReturnValueHandler-to-HandlerMethodReturnValueHandler" style="stroke:#008200;stroke-width:1.0;stroke-dasharray:7.0,7.0;"/><polygon fill="none" points="416,707.283,409,727.283,402,707.283,416,707.283" style="stroke:#008200;stroke-width:1.0;"/></g><!--link RequestResponseBodyMethodProcessor to AbstractMessageConverterMethodProcessor--><g id="link_RequestResponseBodyMethodProcessor_AbstractMessageConverterMethodProcessor"><path codeLine="71" d="M1209,154.311 C1209,154.311 1209,193.712 1209,193.712 " fill="none" id="RequestResponseBodyMethodProcessor-to-AbstractMessageConverterMethodProcessor" style="stroke:#000082;stroke-width:1.0;"/><polygon fill="none" points="1216,193.712,1209,213.712,1202,193.712,1216,193.712" style="stroke:#000082;stroke-width:1.0;"/></g><!--SRC=[nLTRZzew47xdL_Y8bw1bfLMVZj2AA0jf5ucR2BizHrMBJ3o0JuETOnlQLTN-zjhE1GW9brxKl13mUEQRRxuPcx_K2jQ0uWXJLbCyHegZELUAhn6X0a95EQl9ZvJ5ME0rYYW3zH83uaAjUAqMHbXAvCsb4ZXK0v0IBw73sHQ40Z40RKGyiToiWQa9I1xf1VIbXj0j2fx6uz5awdTd0t_wEEe6BHI0kdzKAaxsjRLP7KLykGJHGds-jD_NXHXIBr6PxJjSktVRRHiBaoqDeOKcyFy6f44ISoRXWPCNpovrLYP_OpeSpPwz_fFVGgFvVpf_6vJA1yg8_pc4s11Yt6XoYFCMvbsii5a4qKG9xh5X2dJuHajJoIF0p3eHWCbRgbP5bD8ns7iitcG47dbgegaclP5XShM_RsW9AW7lD2x8h8wsEA84A-Wjl3YEQ8Zd4PpFOCifiTinmR7AQjbR324qOCMBas8gsxo3MqUXpby7tqlJ6M95jw0XfEWRHW9Y6u4o7o0CB-dI6GQBdYvXi6uO33PnhBKCP024OcCZdOuHjTPE8vLMljIkVRr8yMF13Jaybxhtsf_v_qpzOT0R3LEX1qfGjapqEV63qTEauyyc_XjjCUltWkbi-kzOgz34jJPUlp_pnkD-h-DDZSt0x_OyQnGSupGR95w0_ra1argoyZYeHPLuUV02FtDLD0ivqpxK49PSKMpaFy0CsvxiL2rPTZy9gg2yNDEI-fI88TUUBfJcb6n2gZMxLoaZa5GnUU5FLC-aOxecD7sCpxagTN0wBRSahof5bwuatRkVEfLcRcv420R2gMRRpHgRvO1B5SGGqWKDynIS_CruI5_rtlmzeti2QYFOCuusP-DcX6U1tm03GSCqND4wrpCc9DLFb-gq9JNwUTGT3iBvISwIKJFQgAjdJUBhk7rAbPPqYLkWtkmhuRjm6Fo8efCPvbO8MoJ7wovqETpzOhjwdb5T0h708Q17p4XKUMZVtwETQRjj9zjD5ZIpTexKF-048e-HPmgVJBdrOGJ2FUxs9ZeuYLxhsSh5Ytimi6-GJAQrp0CurMrGcTgUjDFVAvBBeYKRAlIyA-eDMbbtU_uhswQ2cEefc1qy-zigq_cI2YAvmOsnqX7j2M0LyEwz-xlH6lTsY1mYC1ULGmnNKonBlEOkYtCpiJEOXzgPapV0JY89gIMNfxA3N0-M5OGVyzlVQQH_g3KkPF9NNwQkwytVtYorA_-IeDjtzRkxlr_TtJK9bYiWxsy_e3CJyUYfNNehp1uRr8HjslzVDkQLm7yivib4ImPACT6Bfj3Uyqk2Nj2bw2ZeLUpcZhu3]--></g></svg>