<?xml version="1.0" encoding="UTF-8" standalone="no"?><svg xmlns="http://www.w3.org/2000/svg" xmlns:xlink="http://www.w3.org/1999/xlink" contentStyleType="text/css" height="706px" preserveAspectRatio="none" style="width:2625px;height:706px;background:#FFFFFF;" version="1.1" viewBox="0 0 2625 706" width="2625px" zoomAndPan="magnify"><defs/><g><!--class AbstractMessageConverterMethodArgumentResolver--><g id="elem_AbstractMessageConverterMethodArgumentResolver"><rect codeLine="5" fill="#FFFFFF" height="255.8594" id="AbstractMessageConverterMethodArgumentResolver" rx="2.5" ry="2.5" style="stroke:#000000;stroke-width:1.0;" width="627" x="1867.5" y="287"/><ellipse cx="1984.25" cy="301" fill="#FFFFFF" rx="9" ry="9" style="stroke:#000000;stroke-width:1.0;"/><path d="M1986.5938,296.6719 C1985.6563,296.2344 1985.0625,296.0938 1984.1875,296.0938 C1981.5625,296.0938 1979.5625,298.1719 1979.5625,300.8906 L1979.5625,302.0156 C1979.5625,304.5938 1981.6719,306.4844 1984.5625,306.4844 C1985.7813,306.4844 1986.9375,306.1875 1987.6875,305.6406 C1988.2656,305.2344 1988.5938,304.7813 1988.5938,304.3906 C1988.5938,303.9375 1988.2031,303.5469 1987.7344,303.5469 C1987.5156,303.5469 1987.3125,303.625 1987.125,303.8125 C1986.6719,304.2969 1986.6719,304.2969 1986.4844,304.3906 C1986.0625,304.6563 1985.375,304.7813 1984.6094,304.7813 C1982.5625,304.7813 1981.2656,303.6875 1981.2656,301.9844 L1981.2656,300.8906 C1981.2656,299.1094 1982.5156,297.7969 1984.25,297.7969 C1984.8281,297.7969 1985.4375,297.9531 1985.9063,298.2031 C1986.3906,298.4844 1986.5625,298.7031 1986.6563,299.1094 C1986.7188,299.5156 1986.75,299.6406 1986.8906,299.7656 C1987.0313,299.9063 1987.2656,300.0156 1987.4844,300.0156 C1987.75,300.0156 1988.0156,299.875 1988.1875,299.6563 C1988.2969,299.5 1988.3281,299.3125 1988.3281,298.8906 L1988.3281,297.4688 C1988.3281,297.0313 1988.3125,296.9063 1988.2188,296.75 C1988.0625,296.4844 1987.7813,296.3438 1987.4844,296.3438 C1987.1875,296.3438 1986.9844,296.4375 1986.7656,296.75 L1986.5938,296.6719 Z " fill="#000000"/><text fill="#000000" font-family="Verdana" font-size="14" lengthAdjust="spacing" textLength="386" x="2001.75" y="305.8467">AbstractMessageConverterMethodArgumentResolver</text><line style="stroke:#000000;stroke-width:1.0;" x1="1868.5" x2="2493.5" y1="315" y2="315"/><rect fill="none" height="6" style="stroke:#000000;stroke-width:1.0;" width="6" x="1875.5" y="325.6484"/><text fill="#000000" font-family="Verdana" font-size="14" lengthAdjust="spacing" textLength="309" x="1885.5" y="331.9951">SUPPORTED_METHODS: Set&lt;HttpMethod&gt;</text><polygon fill="none" points="1878.5,339.9453,1882.5,343.9453,1878.5,347.9453,1874.5,343.9453" style="stroke:#000000;stroke-width:1.0;"/><text fill="#000000" font-family="Verdana" font-size="14" lengthAdjust="spacing" textLength="81" x="1885.5" y="348.292">logger: Log</text><polygon fill="none" points="1878.5,356.2422,1882.5,360.2422,1878.5,364.2422,1874.5,360.2422" style="stroke:#000000;stroke-width:1.0;"/><text fill="#000000" font-family="Verdana" font-size="14" lengthAdjust="spacing" textLength="397" x="1885.5" y="364.5889">messageConverters: List&lt;HttpMessageConverter&lt;?&gt;&gt;</text><rect fill="none" height="6" style="stroke:#000000;stroke-width:1.0;" width="6" x="1875.5" y="374.5391"/><text fill="#000000" font-family="Verdana" font-size="14" lengthAdjust="spacing" textLength="308" x="1885.5" y="380.8857">advice: RequestResponseBodyAdviceChain</text><rect fill="none" height="6" style="stroke:#000000;stroke-width:1.0;" width="6" x="1875.5" y="390.8359"/><text fill="#000000" font-family="Verdana" font-size="14" lengthAdjust="spacing" textLength="132" x="1885.5" y="397.1826">NO_VALUE: Object</text><line style="stroke:#000000;stroke-width:1.0;" x1="1868.5" x2="2493.5" y1="404.4844" y2="404.4844"/><polygon fill="#FFFFFF" points="1878.5,413.1328,1882.5,417.1328,1878.5,421.1328,1874.5,417.1328" style="stroke:#000000;stroke-width:1.0;"/><text fill="#000000" font-family="Verdana" font-size="14" lengthAdjust="spacing" textLength="510" x="1885.5" y="421.4795">isBindExceptionRequired(WebDataBinder, MethodParameter): boolean</text><polygon fill="#FFFFFF" points="1878.5,429.4297,1882.5,433.4297,1878.5,437.4297,1874.5,433.4297" style="stroke:#000000;stroke-width:1.0;"/><text fill="#000000" font-family="Verdana" font-size="14" lengthAdjust="spacing" textLength="598" x="1885.5" y="437.7764">readWithMessageConverters(HttpInputMessage, MethodParameter, Type): Object?</text><polygon fill="#FFFFFF" points="1878.5,446.7266,1874.5,452.7266,1882.5,452.7266" style="stroke:#000000;stroke-width:1.0;"/><text fill="#000000" font-family="Verdana" font-size="14" lengthAdjust="spacing" textLength="345" x="1885.5" y="454.0732">getAdvice(): RequestResponseBodyAdviceChain</text><polygon fill="#FFFFFF" points="1878.5,462.0234,1882.5,466.0234,1878.5,470.0234,1874.5,466.0234" style="stroke:#000000;stroke-width:1.0;"/><text fill="#000000" font-family="Verdana" font-size="14" lengthAdjust="spacing" textLength="446" x="1885.5" y="470.3701">validateIfApplicable(WebDataBinder, MethodParameter): void</text><polygon fill="#FFFFFF" points="1878.5,478.3203,1882.5,482.3203,1878.5,486.3203,1874.5,482.3203" style="stroke:#000000;stroke-width:1.0;"/><text fill="#000000" font-family="Verdana" font-size="14" lengthAdjust="spacing" textLength="466" x="1885.5" y="486.667">adaptArgumentIfNecessary(Object?, MethodParameter): Object?</text><polygon fill="#FFFFFF" points="1878.5,494.6172,1882.5,498.6172,1878.5,502.6172,1874.5,498.6172" style="stroke:#000000;stroke-width:1.0;"/><text fill="#000000" font-family="Verdana" font-size="14" lengthAdjust="spacing" textLength="495" x="1885.5" y="502.9639">createInputMessage(NativeWebRequest): ServletServerHttpRequest</text><polygon fill="#FFFFFF" points="1878.5,510.9141,1882.5,514.9141,1878.5,518.9141,1874.5,514.9141" style="stroke:#000000;stroke-width:1.0;"/><text fill="#000000" font-family="Verdana" font-size="14" lengthAdjust="spacing" textLength="603" x="1885.5" y="519.2607">readWithMessageConverters(NativeWebRequest, MethodParameter, Type): Object?</text><polygon fill="#FFFFFF" points="1878.5,527.2109,1882.5,531.2109,1878.5,535.2109,1874.5,531.2109" style="stroke:#000000;stroke-width:1.0;"/><text fill="#000000" font-family="Verdana" font-size="14" lengthAdjust="spacing" textLength="397" x="1885.5" y="535.5576">getSupportedMediaTypes(Class&lt;?&gt;): List&lt;MediaType&gt;</text></g><!--class AbstractNamedValueMethodArgumentResolver--><g id="elem_AbstractNamedValueMethodArgumentResolver"><rect codeLine="20" fill="#FFFFFF" height="272.1563" id="AbstractNamedValueMethodArgumentResolver" rx="2.5" ry="2.5" style="stroke:#000000;stroke-width:1.0;" width="874" x="49" y="279"/><ellipse cx="311.75" cy="293" fill="#FFFFFF" rx="9" ry="9" style="stroke:#000000;stroke-width:1.0;"/><path d="M314.0938,288.6719 C313.1563,288.2344 312.5625,288.0938 311.6875,288.0938 C309.0625,288.0938 307.0625,290.1719 307.0625,292.8906 L307.0625,294.0156 C307.0625,296.5938 309.1719,298.4844 312.0625,298.4844 C313.2813,298.4844 314.4375,298.1875 315.1875,297.6406 C315.7656,297.2344 316.0938,296.7813 316.0938,296.3906 C316.0938,295.9375 315.7031,295.5469 315.2344,295.5469 C315.0156,295.5469 314.8125,295.625 314.625,295.8125 C314.1719,296.2969 314.1719,296.2969 313.9844,296.3906 C313.5625,296.6563 312.875,296.7813 312.1094,296.7813 C310.0625,296.7813 308.7656,295.6875 308.7656,293.9844 L308.7656,292.8906 C308.7656,291.1094 310.0156,289.7969 311.75,289.7969 C312.3281,289.7969 312.9375,289.9531 313.4063,290.2031 C313.8906,290.4844 314.0625,290.7031 314.1563,291.1094 C314.2188,291.5156 314.25,291.6406 314.3906,291.7656 C314.5313,291.9063 314.7656,292.0156 314.9844,292.0156 C315.25,292.0156 315.5156,291.875 315.6875,291.6563 C315.7969,291.5 315.8281,291.3125 315.8281,290.8906 L315.8281,289.4688 C315.8281,289.0313 315.8125,288.9063 315.7188,288.75 C315.5625,288.4844 315.2813,288.3438 314.9844,288.3438 C314.6875,288.3438 314.4844,288.4375 314.2656,288.75 L314.0938,288.6719 Z " fill="#000000"/><text fill="#000000" font-family="Verdana" font-size="14" lengthAdjust="spacing" textLength="341" x="329.25" y="297.8467">AbstractNamedValueMethodArgumentResolver</text><line style="stroke:#000000;stroke-width:1.0;" x1="50" x2="922" y1="307" y2="307"/><rect fill="none" height="6" style="stroke:#000000;stroke-width:1.0;" width="6" x="57" y="317.6484"/><text fill="#000000" font-family="Verdana" font-size="14" lengthAdjust="spacing" textLength="378" x="67" y="323.9951">configurableBeanFactory: ConfigurableBeanFactory?</text><rect fill="none" height="6" style="stroke:#000000;stroke-width:1.0;" width="6" x="57" y="333.9453"/><text fill="#000000" font-family="Verdana" font-size="14" lengthAdjust="spacing" textLength="326" x="67" y="340.292">expressionContext: BeanExpressionContext?</text><rect fill="none" height="6" style="stroke:#000000;stroke-width:1.0;" width="6" x="57" y="350.2422"/><text fill="#000000" font-family="Verdana" font-size="14" lengthAdjust="spacing" textLength="477" x="67" y="356.5889">namedValueInfoCache: Map&lt;MethodParameter, NamedValueInfo&gt;</text><line style="stroke:#000000;stroke-width:1.0;" x1="50" x2="922" y1="363.8906" y2="363.8906"/><polygon fill="#FFFFFF" points="60,372.5391,64,376.5391,60,380.5391,56,376.5391" style="stroke:#000000;stroke-width:1.0;"/><text fill="#000000" font-family="Verdana" font-size="14" lengthAdjust="spacing" textLength="431" x="67" y="380.8857">createNamedValueInfo(MethodParameter): NamedValueInfo</text><ellipse cx="60" cy="393.8359" fill="#FFFFFF" rx="3" ry="3" style="stroke:#000000;stroke-width:1.0;"/><text fill="#000000" font-family="Verdana" font-size="14" lengthAdjust="spacing" textLength="850" x="67" y="397.1826">resolveArgument(MethodParameter, ModelAndViewContainer?, NativeWebRequest, WebDataBinderFactory?): Object?</text><polygon fill="#FFFFFF" points="60,405.1328,64,409.1328,60,413.1328,56,409.1328" style="stroke:#000000;stroke-width:1.0;"/><text fill="#000000" font-family="Verdana" font-size="14" lengthAdjust="spacing" textLength="371" x="67" y="413.4795">handleMissingValue(String, MethodParameter): void</text><rect fill="#FFFFFF" height="6" style="stroke:#000000;stroke-width:1.0;" width="6" x="57" y="423.4297"/><text fill="#000000" font-family="Verdana" font-size="14" lengthAdjust="spacing" textLength="408" x="67" y="429.7764">resolveEmbeddedValuesAndExpressions(String): Object?</text><polygon fill="#FFFFFF" points="60,437.7266,64,441.7266,60,445.7266,56,441.7266" style="stroke:#000000;stroke-width:1.0;"/><text fill="#000000" font-family="Verdana" font-size="14" lengthAdjust="spacing" textLength="497" x="67" y="446.0732">resolveName(String, MethodParameter, NativeWebRequest): Object?</text><rect fill="#FFFFFF" height="6" style="stroke:#000000;stroke-width:1.0;" width="6" x="57" y="456.0234"/><text fill="#000000" font-family="Verdana" font-size="14" lengthAdjust="spacing" textLength="560" x="67" y="462.3701">updateNamedValueInfo(MethodParameter, NamedValueInfo): NamedValueInfo</text><polygon fill="#FFFFFF" points="60,470.3203,64,474.3203,60,478.3203,56,474.3203" style="stroke:#000000;stroke-width:1.0;"/><text fill="#000000" font-family="Verdana" font-size="14" lengthAdjust="spacing" textLength="785" x="67" y="478.667">handleResolvedValue(Object?, String, MethodParameter, ModelAndViewContainer?, NativeWebRequest): void</text><rect fill="#FFFFFF" height="6" style="stroke:#000000;stroke-width:1.0;" width="6" x="57" y="488.6172"/><text fill="#000000" font-family="Verdana" font-size="14" lengthAdjust="spacing" textLength="409" x="67" y="494.9639">getNamedValueInfo(MethodParameter): NamedValueInfo</text><polygon fill="#FFFFFF" points="60,502.9141,64,506.9141,60,510.9141,56,506.9141" style="stroke:#000000;stroke-width:1.0;"/><text fill="#000000" font-family="Verdana" font-size="14" lengthAdjust="spacing" textLength="517" x="67" y="511.2607">handleMissingValue(String, MethodParameter, NativeWebRequest): void</text><polygon fill="#FFFFFF" points="60,519.2109,64,523.2109,60,527.2109,56,523.2109" style="stroke:#000000;stroke-width:1.0;"/><text fill="#000000" font-family="Verdana" font-size="14" lengthAdjust="spacing" textLength="635" x="67" y="527.5576">handleMissingValueAfterConversion(String, MethodParameter, NativeWebRequest): void</text><rect fill="#FFFFFF" height="6" style="stroke:#000000;stroke-width:1.0;" width="6" x="57" y="537.5078"/><text fill="#000000" font-family="Verdana" font-size="14" lengthAdjust="spacing" textLength="369" x="67" y="543.8545">handleNullValue(String, Object?, Class&lt;?&gt;): Object?</text></g><!--class HandlerMethodArgumentResolver--><g id="elem_HandlerMethodArgumentResolver"><rect codeLine="36" fill="#FFFFFF" height="88.8594" id="HandlerMethodArgumentResolver" rx="2.5" ry="2.5" style="stroke:#000000;stroke-width:1.0;" width="874" x="958" y="611"/><ellipse cx="1269.75" cy="631.1328" fill="#FFFFFF" rx="9" ry="9" style="stroke:#000000;stroke-width:1.0;"/><path d="M1270.7031,627.9141 L1272.4219,627.9141 C1272.8125,627.9141 1273,627.8828 1273.125,627.8047 C1273.3906,627.6484 1273.5313,627.3672 1273.5313,627.0703 C1273.5313,626.8047 1273.4219,626.5391 1273.1875,626.3672 C1273.0156,626.2578 1272.875,626.2266 1272.4219,626.2266 L1267.2813,626.2266 C1266.8438,626.2266 1266.7188,626.2422 1266.5625,626.3359 C1266.3125,626.4922 1266.1563,626.7891 1266.1563,627.0703 C1266.1563,627.3516 1266.2969,627.6016 1266.5156,627.7734 C1266.6719,627.8828 1266.8594,627.9141 1267.2813,627.9141 L1269,627.9141 L1269,634.4297 L1267.2813,634.4297 C1266.8438,634.4297 1266.7188,634.4453 1266.5625,634.5547 C1266.3125,634.7109 1266.1563,634.9922 1266.1563,635.2891 C1266.1563,635.5391 1266.2969,635.8047 1266.5156,635.9609 C1266.6719,636.0859 1266.875,636.1328 1267.2813,636.1328 L1272.4219,636.1328 C1273.1719,636.1328 1273.5313,635.8516 1273.5313,635.2891 C1273.5313,635.0078 1273.4219,634.7578 1273.1875,634.5859 C1273.0156,634.4609 1272.875,634.4297 1272.4219,634.4297 L1270.7031,634.4297 L1270.7031,627.9141 Z " fill="#000000"/><text fill="#000000" font-family="Verdana" font-size="12" font-style="italic" lengthAdjust="spacing" textLength="67" x="1375.25" y="627.1387">«interface»</text><text fill="#000000" font-family="Verdana" font-size="14" font-style="italic" lengthAdjust="spacing" textLength="243" x="1287.25" y="642.9639">HandlerMethodArgumentResolver</text><line style="stroke:#000000;stroke-width:1.0;" x1="959" x2="1831" y1="651.2656" y2="651.2656"/><line style="stroke:#000000;stroke-width:1.0;" x1="959" x2="1831" y1="659.2656" y2="659.2656"/><ellipse cx="969" cy="672.9141" fill="#FFFFFF" rx="3" ry="3" style="stroke:#000000;stroke-width:1.0;"/><text fill="#000000" font-family="Verdana" font-size="14" lengthAdjust="spacing" textLength="850" x="976" y="676.2607">resolveArgument(MethodParameter, ModelAndViewContainer?, NativeWebRequest, WebDataBinderFactory?): Object?</text><ellipse cx="969" cy="689.2109" fill="#FFFFFF" rx="3" ry="3" style="stroke:#000000;stroke-width:1.0;"/><text fill="#000000" font-family="Verdana" font-size="14" lengthAdjust="spacing" textLength="348" x="976" y="692.5576">supportsParameter(MethodParameter): boolean</text></g><!--class ModelAttributeMethodProcessor--><g id="elem_ModelAttributeMethodProcessor"><rect codeLine="40" fill="#FFFFFF" height="272.1563" id="ModelAttributeMethodProcessor" rx="2.5" ry="2.5" style="stroke:#000000;stroke-width:1.0;" width="874" x="958" y="279"/><ellipse cx="1273.25" cy="293" fill="#FFFFFF" rx="9" ry="9" style="stroke:#000000;stroke-width:1.0;"/><path d="M1275.5938,288.6719 C1274.6563,288.2344 1274.0625,288.0938 1273.1875,288.0938 C1270.5625,288.0938 1268.5625,290.1719 1268.5625,292.8906 L1268.5625,294.0156 C1268.5625,296.5938 1270.6719,298.4844 1273.5625,298.4844 C1274.7813,298.4844 1275.9375,298.1875 1276.6875,297.6406 C1277.2656,297.2344 1277.5938,296.7813 1277.5938,296.3906 C1277.5938,295.9375 1277.2031,295.5469 1276.7344,295.5469 C1276.5156,295.5469 1276.3125,295.625 1276.125,295.8125 C1275.6719,296.2969 1275.6719,296.2969 1275.4844,296.3906 C1275.0625,296.6563 1274.375,296.7813 1273.6094,296.7813 C1271.5625,296.7813 1270.2656,295.6875 1270.2656,293.9844 L1270.2656,292.8906 C1270.2656,291.1094 1271.5156,289.7969 1273.25,289.7969 C1273.8281,289.7969 1274.4375,289.9531 1274.9063,290.2031 C1275.3906,290.4844 1275.5625,290.7031 1275.6563,291.1094 C1275.7188,291.5156 1275.75,291.6406 1275.8906,291.7656 C1276.0313,291.9063 1276.2656,292.0156 1276.4844,292.0156 C1276.75,292.0156 1277.0156,291.875 1277.1875,291.6563 C1277.2969,291.5 1277.3281,291.3125 1277.3281,290.8906 L1277.3281,289.4688 C1277.3281,289.0313 1277.3125,288.9063 1277.2188,288.75 C1277.0625,288.4844 1276.7813,288.3438 1276.4844,288.3438 C1276.1875,288.3438 1275.9844,288.4375 1275.7656,288.75 L1275.5938,288.6719 Z " fill="#000000"/><text fill="#000000" font-family="Verdana" font-size="14" lengthAdjust="spacing" textLength="236" x="1290.75" y="297.8467">ModelAttributeMethodProcessor</text><line style="stroke:#000000;stroke-width:1.0;" x1="959" x2="1831" y1="307" y2="307"/><polygon fill="none" points="969,315.6484,973,319.6484,969,323.6484,965,319.6484" style="stroke:#000000;stroke-width:1.0;"/><text fill="#000000" font-family="Verdana" font-size="14" lengthAdjust="spacing" textLength="81" x="976" y="323.9951">logger: Log</text><rect fill="none" height="6" style="stroke:#000000;stroke-width:1.0;" width="6" x="966" y="333.9453"/><text fill="#000000" font-family="Verdana" font-size="14" lengthAdjust="spacing" textLength="236" x="976" y="340.292">annotationNotRequired: boolean</text><line style="stroke:#000000;stroke-width:1.0;" x1="959" x2="1831" y1="347.5938" y2="347.5938"/><polygon fill="#FFFFFF" points="969,356.2422,973,360.2422,969,364.2422,965,360.2422" style="stroke:#000000;stroke-width:1.0;"/><text fill="#000000" font-family="Verdana" font-size="14" lengthAdjust="spacing" textLength="688" x="976" y="364.5889">createAttribute(String, MethodParameter, WebDataBinderFactory, NativeWebRequest): Object</text><polygon fill="#FFFFFF" points="969,372.5391,973,376.5391,969,380.5391,965,376.5391" style="stroke:#000000;stroke-width:1.0;"/><text fill="#000000" font-family="Verdana" font-size="14" lengthAdjust="spacing" textLength="388" x="976" y="380.8857">isBindExceptionRequired(MethodParameter): boolean</text><polygon fill="#FFFFFF" points="969,388.8359,973,392.8359,969,396.8359,965,392.8359" style="stroke:#000000;stroke-width:1.0;"/><text fill="#000000" font-family="Verdana" font-size="14" lengthAdjust="spacing" textLength="483" x="976" y="397.1826">bindRequestParameters(WebDataBinder, NativeWebRequest): void</text><ellipse cx="969" cy="410.1328" fill="#FFFFFF" rx="3" ry="3" style="stroke:#000000;stroke-width:1.0;"/><text fill="#000000" font-family="Verdana" font-size="14" lengthAdjust="spacing" textLength="850" x="976" y="413.4795">resolveArgument(MethodParameter, ModelAndViewContainer?, NativeWebRequest, WebDataBinderFactory?): Object?</text><polygon fill="#FFFFFF" points="969,421.4297,973,425.4297,969,429.4297,965,425.4297" style="stroke:#000000;stroke-width:1.0;"/><text fill="#000000" font-family="Verdana" font-size="14" lengthAdjust="spacing" textLength="510" x="976" y="429.7764">isBindExceptionRequired(WebDataBinder, MethodParameter): boolean</text><polygon fill="#FFFFFF" points="969,437.7266,973,441.7266,969,445.7266,965,441.7266" style="stroke:#000000;stroke-width:1.0;"/><text fill="#000000" font-family="Verdana" font-size="14" lengthAdjust="spacing" textLength="674" x="976" y="446.0732">validateValueIfApplicable(WebDataBinder, MethodParameter, Class&lt;?&gt;, String, Object?): void</text><polygon fill="#FFFFFF" points="969,454.0234,973,458.0234,969,462.0234,965,458.0234" style="stroke:#000000;stroke-width:1.0;"/><text fill="#000000" font-family="Verdana" font-size="14" lengthAdjust="spacing" textLength="446" x="976" y="462.3701">validateIfApplicable(WebDataBinder, MethodParameter): void</text><ellipse cx="969" cy="475.3203" fill="#FFFFFF" rx="3" ry="3" style="stroke:#000000;stroke-width:1.0;"/><text fill="#000000" font-family="Verdana" font-size="14" lengthAdjust="spacing" textLength="357" x="976" y="478.667">supportsReturnType(MethodParameter): boolean</text><polygon fill="#FFFFFF" points="969,486.6172,973,490.6172,969,494.6172,965,490.6172" style="stroke:#000000;stroke-width:1.0;"/><text fill="#000000" font-family="Verdana" font-size="14" lengthAdjust="spacing" textLength="833" x="976" y="494.9639">constructAttribute(Constructor&lt;?&gt;, String, MethodParameter, WebDataBinderFactory, NativeWebRequest): Object</text><ellipse cx="969" cy="507.9141" fill="#FFFFFF" rx="3" ry="3" style="stroke:#000000;stroke-width:1.0;"/><text fill="#000000" font-family="Verdana" font-size="14" lengthAdjust="spacing" textLength="710" x="976" y="511.2607">handleReturnValue(Object?, MethodParameter, ModelAndViewContainer, NativeWebRequest): void</text><ellipse cx="969" cy="524.2109" fill="#FFFFFF" rx="3" ry="3" style="stroke:#000000;stroke-width:1.0;"/><text fill="#000000" font-family="Verdana" font-size="14" lengthAdjust="spacing" textLength="348" x="976" y="527.5576">supportsParameter(MethodParameter): boolean</text><ellipse cx="969" cy="540.5078" fill="#FFFFFF" rx="3" ry="3" style="stroke:#000000;stroke-width:1.0;"/><text fill="#000000" font-family="Verdana" font-size="14" lengthAdjust="spacing" textLength="548" x="976" y="543.8545">resolveConstructorArgument(String, Class&lt;?&gt;, NativeWebRequest): Object?</text></g><!--class RequestParamMethodArgumentResolver--><g id="elem_RequestParamMethodArgumentResolver"><rect codeLine="56" fill="#FFFFFF" height="206.9688" id="RequestParamMethodArgumentResolver" rx="2.5" ry="2.5" style="stroke:#000000;stroke-width:1.0;" width="944" x="14" y="12"/><ellipse cx="335.75" cy="26" fill="#FFFFFF" rx="9" ry="9" style="stroke:#000000;stroke-width:1.0;"/><path d="M338.0938,21.6719 C337.1563,21.2344 336.5625,21.0938 335.6875,21.0938 C333.0625,21.0938 331.0625,23.1719 331.0625,25.8906 L331.0625,27.0156 C331.0625,29.5938 333.1719,31.4844 336.0625,31.4844 C337.2813,31.4844 338.4375,31.1875 339.1875,30.6406 C339.7656,30.2344 340.0938,29.7813 340.0938,29.3906 C340.0938,28.9375 339.7031,28.5469 339.2344,28.5469 C339.0156,28.5469 338.8125,28.625 338.625,28.8125 C338.1719,29.2969 338.1719,29.2969 337.9844,29.3906 C337.5625,29.6563 336.875,29.7813 336.1094,29.7813 C334.0625,29.7813 332.7656,28.6875 332.7656,26.9844 L332.7656,25.8906 C332.7656,24.1094 334.0156,22.7969 335.75,22.7969 C336.3281,22.7969 336.9375,22.9531 337.4063,23.2031 C337.8906,23.4844 338.0625,23.7031 338.1563,24.1094 C338.2188,24.5156 338.25,24.6406 338.3906,24.7656 C338.5313,24.9063 338.7656,25.0156 338.9844,25.0156 C339.25,25.0156 339.5156,24.875 339.6875,24.6563 C339.7969,24.5 339.8281,24.3125 339.8281,23.8906 L339.8281,22.4688 C339.8281,22.0313 339.8125,21.9063 339.7188,21.75 C339.5625,21.4844 339.2813,21.3438 338.9844,21.3438 C338.6875,21.3438 338.4844,21.4375 338.2656,21.75 L338.0938,21.6719 Z " fill="#000000"/><text fill="#000000" font-family="Verdana" font-size="14" lengthAdjust="spacing" textLength="293" x="353.25" y="30.8467">RequestParamMethodArgumentResolver</text><line style="stroke:#000000;stroke-width:1.0;" x1="15" x2="957" y1="40" y2="40"/><rect fill="none" height="6" style="stroke:#000000;stroke-width:1.0;" width="6" x="22" y="50.6484"/><text fill="#000000" font-family="Verdana" font-size="14" lengthAdjust="spacing" textLength="317" x="32" y="56.9951">STRING_TYPE_DESCRIPTOR: TypeDescriptor</text><rect fill="none" height="6" style="stroke:#000000;stroke-width:1.0;" width="6" x="22" y="66.9453"/><text fill="#000000" font-family="Verdana" font-size="14" lengthAdjust="spacing" textLength="220" x="32" y="73.292">useDefaultResolution: boolean</text><line style="stroke:#000000;stroke-width:1.0;" x1="15" x2="957" y1="80.5938" y2="80.5938"/><polygon fill="#FFFFFF" points="25,89.2422,29,93.2422,25,97.2422,21,93.2422" style="stroke:#000000;stroke-width:1.0;"/><text fill="#000000" font-family="Verdana" font-size="14" lengthAdjust="spacing" textLength="635" x="32" y="97.5889">handleMissingValueAfterConversion(String, MethodParameter, NativeWebRequest): void</text><polygon fill="#FFFFFF" points="25,105.5391,29,109.5391,25,113.5391,21,109.5391" style="stroke:#000000;stroke-width:1.0;"/><text fill="#000000" font-family="Verdana" font-size="14" lengthAdjust="spacing" textLength="510" x="32" y="113.8857">formatUriValue(ConversionService?, TypeDescriptor?, Object?): String?</text><ellipse cx="25" cy="126.8359" fill="#FFFFFF" rx="3" ry="3" style="stroke:#000000;stroke-width:1.0;"/><text fill="#000000" font-family="Verdana" font-size="14" lengthAdjust="spacing" textLength="348" x="32" y="130.1826">supportsParameter(MethodParameter): boolean</text><polygon fill="#FFFFFF" points="25,138.1328,29,142.1328,25,146.1328,21,142.1328" style="stroke:#000000;stroke-width:1.0;"/><text fill="#000000" font-family="Verdana" font-size="14" lengthAdjust="spacing" textLength="517" x="32" y="146.4795">handleMissingValue(String, MethodParameter, NativeWebRequest): void</text><polygon fill="#FFFFFF" points="25,154.4297,29,158.4297,25,162.4297,21,158.4297" style="stroke:#000000;stroke-width:1.0;"/><text fill="#000000" font-family="Verdana" font-size="14" lengthAdjust="spacing" textLength="497" x="32" y="162.7764">resolveName(String, MethodParameter, NativeWebRequest): Object?</text><polygon fill="#FFFFFF" points="25,170.7266,29,174.7266,25,178.7266,21,174.7266" style="stroke:#000000;stroke-width:1.0;"/><text fill="#000000" font-family="Verdana" font-size="14" lengthAdjust="spacing" textLength="639" x="32" y="179.0732">handleMissingValueInternal(String, MethodParameter, NativeWebRequest, boolean): void</text><polygon fill="#FFFFFF" points="25,187.0234,29,191.0234,25,195.0234,21,191.0234" style="stroke:#000000;stroke-width:1.0;"/><text fill="#000000" font-family="Verdana" font-size="14" lengthAdjust="spacing" textLength="431" x="32" y="195.3701">createNamedValueInfo(MethodParameter): NamedValueInfo</text><ellipse cx="25" cy="208.3203" fill="#FFFFFF" rx="3" ry="3" style="stroke:#000000;stroke-width:1.0;"/><text fill="#000000" font-family="Verdana" font-size="14" lengthAdjust="spacing" textLength="920" x="32" y="211.667">contributeMethodArgument(MethodParameter, Object?, UriComponentsBuilder, Map&lt;String, Object&gt;, ConversionService): void</text></g><!--class RequestResponseBodyMethodProcessor--><g id="elem_RequestResponseBodyMethodProcessor"><rect codeLine="68" fill="#FFFFFF" height="141.7813" id="RequestResponseBodyMethodProcessor" rx="2.5" ry="2.5" style="stroke:#000000;stroke-width:1.0;" width="874" x="1744" y="44.5"/><ellipse cx="2032.25" cy="58.5" fill="#FFFFFF" rx="9" ry="9" style="stroke:#000000;stroke-width:1.0;"/><path d="M2034.5938,54.1719 C2033.6563,53.7344 2033.0625,53.5938 2032.1875,53.5938 C2029.5625,53.5938 2027.5625,55.6719 2027.5625,58.3906 L2027.5625,59.5156 C2027.5625,62.0938 2029.6719,63.9844 2032.5625,63.9844 C2033.7813,63.9844 2034.9375,63.6875 2035.6875,63.1406 C2036.2656,62.7344 2036.5938,62.2813 2036.5938,61.8906 C2036.5938,61.4375 2036.2031,61.0469 2035.7344,61.0469 C2035.5156,61.0469 2035.3125,61.125 2035.125,61.3125 C2034.6719,61.7969 2034.6719,61.7969 2034.4844,61.8906 C2034.0625,62.1563 2033.375,62.2813 2032.6094,62.2813 C2030.5625,62.2813 2029.2656,61.1875 2029.2656,59.4844 L2029.2656,58.3906 C2029.2656,56.6094 2030.5156,55.2969 2032.25,55.2969 C2032.8281,55.2969 2033.4375,55.4531 2033.9063,55.7031 C2034.3906,55.9844 2034.5625,56.2031 2034.6563,56.6094 C2034.7188,57.0156 2034.75,57.1406 2034.8906,57.2656 C2035.0313,57.4063 2035.2656,57.5156 2035.4844,57.5156 C2035.75,57.5156 2036.0156,57.375 2036.1875,57.1563 C2036.2969,57 2036.3281,56.8125 2036.3281,56.3906 L2036.3281,54.9688 C2036.3281,54.5313 2036.3125,54.4063 2036.2188,54.25 C2036.0625,53.9844 2035.7813,53.8438 2035.4844,53.8438 C2035.1875,53.8438 2034.9844,53.9375 2034.7656,54.25 L2034.5938,54.1719 Z " fill="#000000"/><text fill="#000000" font-family="Verdana" font-size="14" lengthAdjust="spacing" textLength="290" x="2049.75" y="63.3467">RequestResponseBodyMethodProcessor</text><line style="stroke:#000000;stroke-width:1.0;" x1="1745" x2="2617" y1="72.5" y2="72.5"/><line style="stroke:#000000;stroke-width:1.0;" x1="1745" x2="2617" y1="80.5" y2="80.5"/><polygon fill="#FFFFFF" points="1755,89.1484,1759,93.1484,1755,97.1484,1751,93.1484" style="stroke:#000000;stroke-width:1.0;"/><text fill="#000000" font-family="Verdana" font-size="14" lengthAdjust="spacing" textLength="315" x="1762" y="97.4951">checkRequired(MethodParameter): boolean</text><ellipse cx="1755" cy="110.4453" fill="#FFFFFF" rx="3" ry="3" style="stroke:#000000;stroke-width:1.0;"/><text fill="#000000" font-family="Verdana" font-size="14" lengthAdjust="spacing" textLength="850" x="1762" y="113.792">resolveArgument(MethodParameter, ModelAndViewContainer?, NativeWebRequest, WebDataBinderFactory?): Object?</text><ellipse cx="1755" cy="126.7422" fill="#FFFFFF" rx="3" ry="3" style="stroke:#000000;stroke-width:1.0;"/><text fill="#000000" font-family="Verdana" font-size="14" lengthAdjust="spacing" textLength="357" x="1762" y="130.0889">supportsReturnType(MethodParameter): boolean</text><polygon fill="#FFFFFF" points="1755,138.0391,1759,142.0391,1755,146.0391,1751,142.0391" style="stroke:#000000;stroke-width:1.0;"/><text fill="#000000" font-family="Verdana" font-size="14" lengthAdjust="spacing" textLength="603" x="1762" y="146.3857">readWithMessageConverters(NativeWebRequest, MethodParameter, Type): Object?</text><ellipse cx="1755" cy="159.3359" fill="#FFFFFF" rx="3" ry="3" style="stroke:#000000;stroke-width:1.0;"/><text fill="#000000" font-family="Verdana" font-size="14" lengthAdjust="spacing" textLength="348" x="1762" y="162.6826">supportsParameter(MethodParameter): boolean</text><ellipse cx="1755" cy="175.6328" fill="#FFFFFF" rx="3" ry="3" style="stroke:#000000;stroke-width:1.0;"/><text fill="#000000" font-family="Verdana" font-size="14" lengthAdjust="spacing" textLength="710" x="1762" y="178.9795">handleReturnValue(Object?, MethodParameter, ModelAndViewContainer, NativeWebRequest): void</text></g><!--link AbstractMessageConverterMethodArgumentResolver to HandlerMethodArgumentResolver--><g id="link_AbstractMessageConverterMethodArgumentResolver_HandlerMethodArgumentResolver"><path codeLine="77" d="M2181,543.262 C2181,600.8165 2181,656 2181,656 C2181,656 1852.24,656 1852.24,656 " fill="none" id="AbstractMessageConverterMethodArgumentResolver-to-HandlerMethodArgumentResolver" style="stroke:#008200;stroke-width:1.0;stroke-dasharray:7.0,7.0;"/><polygon fill="none" points="1852.24,662.9999,1832.24,656,1852.24,648.9999,1852.24,662.9999" style="stroke:#008200;stroke-width:1.0;"/></g><!--link AbstractNamedValueMethodArgumentResolver to HandlerMethodArgumentResolver--><g id="link_AbstractNamedValueMethodArgumentResolver_HandlerMethodArgumentResolver"><path codeLine="78" d="M486,551.345 C486,605.8754 486,656 486,656 C486,656 937.806,656 937.806,656 " fill="none" id="AbstractNamedValueMethodArgumentResolver-to-HandlerMethodArgumentResolver" style="stroke:#008200;stroke-width:1.0;stroke-dasharray:7.0,7.0;"/><polygon fill="none" points="937.806,648.9999,957.806,656,937.806,662.9999,937.806,648.9999" style="stroke:#008200;stroke-width:1.0;"/></g><!--link ModelAttributeMethodProcessor to HandlerMethodArgumentResolver--><g id="link_ModelAttributeMethodProcessor_HandlerMethodArgumentResolver"><path codeLine="79" d="M1395,551.062 C1395,551.062 1395,590.872 1395,590.872 " fill="none" id="ModelAttributeMethodProcessor-to-HandlerMethodArgumentResolver" style="stroke:#008200;stroke-width:1.0;stroke-dasharray:7.0,7.0;"/><polygon fill="none" points="1402,590.872,1395,610.8719,1388,590.872,1402,590.872" style="stroke:#008200;stroke-width:1.0;"/></g><!--link RequestParamMethodArgumentResolver to AbstractNamedValueMethodArgumentResolver--><g id="link_RequestParamMethodArgumentResolver_AbstractNamedValueMethodArgumentResolver"><path codeLine="80" d="M486,219.41 C486,219.41 486,258.833 486,258.833 " fill="none" id="RequestParamMethodArgumentResolver-to-AbstractNamedValueMethodArgumentResolver" style="stroke:#000082;stroke-width:1.0;"/><polygon fill="none" points="493,258.833,486,278.833,479,258.833,493,258.833" style="stroke:#000082;stroke-width:1.0;"/></g><!--link RequestResponseBodyMethodProcessor to AbstractMessageConverterMethodArgumentResolver--><g id="link_RequestResponseBodyMethodProcessor_AbstractMessageConverterMethodArgumentResolver"><path codeLine="81" d="M2181,186.857 C2181,186.857 2181,266.762 2181,266.762 " fill="none" id="RequestResponseBodyMethodProcessor-to-AbstractMessageConverterMethodArgumentResolver" style="stroke:#000082;stroke-width:1.0;"/><polygon fill="none" points="2188,266.762,2181,286.762,2174,266.762,2188,266.762" style="stroke:#000082;stroke-width:1.0;"/></g><!--SRC=[nLXRR-f647xthzYA5wE05FMfGX6806sG3XS1oL5LjT7Y7M1xpAwxkwQ9glItTzONi0quXfDpoak2TtRccvblBkO7iu4jaC2dN3X61iH8ifJ6o2rXN85dk1IE_i95G1NT4fyBCAy14AdCHZgEvrEjINUfZQAU6O7MT0qzANQW3AWHe13hgdMu1M5ceAMF1-GVXv0ccJzEfvFPOj1_7WqM3vF-l4NcOEuUZ0dYUsqKgn5VhjUWMkIJN4VVjmKR6e-uJk_bp-uwxNPaYx8Tzw15Pl1N2DeY2QJGS2_PQpSwwcsi_rPqF7b-wdvw7BJ8PFad-XyPvVgU2pPuyI2m0R5gC3ZC_GpBFZNK7e9ga1Ztr4OAq7ozXQ6KFb0HAL50sMTkDaMKshNOXo88qm0UQMgG1GQzdcBgeBv_oHfC3DwjL_2iHdRKvumQ6AwwGU1pZovzUD-3dUGikauP3KoQo-5g39u5grxT1DEfomUuDUAX_sWyuwOxfeRl024awEkM0chdWx5_GDcu94VlHB2egKe4QpQ2yp08aCl0Hi0ujJBQxLbI8tVg2RNsHstdhS3uCMfdJzGFePJhdXGhlWwL3Vazyk5dl2hLQulqJXzqeblm4YZq50c7OWPUJ8jOcK7nSImjzb26OYLxrDiWuKSqk3kAn3WdsSva9t_Y7YSqBu0tRp0faQkfv-wHkP5au7S5U-BmjqMCV0JLiJ2AESkHCGr58MSRAfWF8uu14Ei8YJit2lyl8Myp1JdOBe6nn0FTjIMTnb8dQWhcaelMxtDsZZt9wMYIC63lnhQObLEnJfrFo1MV7ShlBBog2SW634lZSZ9SafqoywVqT5TuAQvucwvhr3OJjUFGz_FOzZ7Cb7wQmJU7OvMf5VM0F4Jtpysrkpjo46stezh_plLnGtJSqFJUW7j-AgNTB4PWC1ZBq2ITRAgaRV0oRc75EOmZLGXfg9s6OsdIWPWVU75FsUizdx9JVfLKLUb8Bf_1IxoJgDkBwE8GFC-WxzxjFcJnI0T_NAhLf_-X70xD9G6NhTMlsYiEX9s12PMmO_QT7E8mnU4RUkR0h5xwIAeSsWzWsis-wLfuXPPRBVlbZBgaO3CCpBYy9sFgzY5j9PCfBVviEPGlx8lPSFpBy-BNwU2vFvZtPiFfOZ9hHOjL7xIdU81WuecdyScAXdwi8xJSpIVncpJu6bb9jQNcKV4uKGTrTg74RRZJAC3jP2aTc-nSaPQFctnVlt2SmZAqSqbGlxhAHkfT5jprMo8MRMwyd6-W- -B2BFRa5bzdK4pVXzoFEmbkjFbcX3G_odCAka3oxElHwJ67MxFtfT8m-TycU-L6-R6lIvTtgc_OEDySvy8V7KZpjzhjxKy_tjus6DKROByt_o3b2vrJ-Iql-LnXedprElvSOQ92WpysOOqqeb-58WjL8-5KABJAngfbzZy0]--></g></svg>