<?xml version="1.0" encoding="UTF-8" standalone="no"?><svg xmlns="http://www.w3.org/2000/svg" xmlns:xlink="http://www.w3.org/1999/xlink" contentStyleType="text/css" height="549px" preserveAspectRatio="none" style="width:917px;height:549px;background:#FFFFFF;" version="1.1" viewBox="0 0 917 549" width="917px" zoomAndPan="magnify"><defs/><g><!--class DefaultDataBinderFactory--><g id="elem_DefaultDataBinderFactory"><rect codeLine="5" fill="#FFFFFF" height="109.1875" id="DefaultDataBinderFactory" rx="2.5" ry="2.5" style="stroke:#000000;stroke-width:1.0;" width="566" x="141" y="285"/><ellipse cx="326.25" cy="299" fill="#FFFFFF" rx="9" ry="9" style="stroke:#000000;stroke-width:1.0;"/><path d="M328.5938,294.6719 C327.6563,294.2344 327.0625,294.0938 326.1875,294.0938 C323.5625,294.0938 321.5625,296.1719 321.5625,298.8906 L321.5625,300.0156 C321.5625,302.5938 323.6719,304.4844 326.5625,304.4844 C327.7813,304.4844 328.9375,304.1875 329.6875,303.6406 C330.2656,303.2344 330.5938,302.7813 330.5938,302.3906 C330.5938,301.9375 330.2031,301.5469 329.7344,301.5469 C329.5156,301.5469 329.3125,301.625 329.125,301.8125 C328.6719,302.2969 328.6719,302.2969 328.4844,302.3906 C328.0625,302.6563 327.375,302.7813 326.6094,302.7813 C324.5625,302.7813 323.2656,301.6875 323.2656,299.9844 L323.2656,298.8906 C323.2656,297.1094 324.5156,295.7969 326.25,295.7969 C326.8281,295.7969 327.4375,295.9531 327.9063,296.2031 C328.3906,296.4844 328.5625,296.7031 328.6563,297.1094 C328.7188,297.5156 328.75,297.6406 328.8906,297.7656 C329.0313,297.9063 329.2656,298.0156 329.4844,298.0156 C329.75,298.0156 330.0156,297.875 330.1875,297.6563 C330.2969,297.5 330.3281,297.3125 330.3281,296.8906 L330.3281,295.4688 C330.3281,295.0313 330.3125,294.9063 330.2188,294.75 C330.0625,294.4844 329.7813,294.3438 329.4844,294.3438 C329.1875,294.3438 328.9844,294.4375 328.7656,294.75 L328.5938,294.6719 Z " fill="#000000"/><text fill="#000000" font-family="Verdana" font-size="14" lengthAdjust="spacing" textLength="188" x="343.75" y="303.8467">DefaultDataBinderFactory</text><line style="stroke:#000000;stroke-width:1.0;" x1="142" x2="706" y1="313" y2="313"/><rect fill="none" height="6" style="stroke:#000000;stroke-width:1.0;" width="6" x="149" y="323.6484"/><text fill="#000000" font-family="Verdana" font-size="14" lengthAdjust="spacing" textLength="237" x="159" y="329.9951">initializer: WebBindingInitializer?</text><line style="stroke:#000000;stroke-width:1.0;" x1="142" x2="706" y1="337.2969" y2="337.2969"/><ellipse cx="152" cy="350.9453" fill="#FFFFFF" rx="3" ry="3" style="stroke:#000000;stroke-width:1.0;"/><text fill="#000000" font-family="Verdana" font-size="14" lengthAdjust="spacing" textLength="481" x="159" y="354.292">createBinder(NativeWebRequest, Object?, String): WebDataBinder</text><polygon fill="#FFFFFF" points="152,362.2422,156,366.2422,152,370.2422,148,366.2422" style="stroke:#000000;stroke-width:1.0;"/><text fill="#000000" font-family="Verdana" font-size="14" lengthAdjust="spacing" textLength="542" x="159" y="370.5889">createBinderInstance(Object?, String, NativeWebRequest): WebDataBinder</text><polygon fill="#FFFFFF" points="152,378.5391,156,382.5391,152,386.5391,148,382.5391" style="stroke:#000000;stroke-width:1.0;"/><text fill="#000000" font-family="Verdana" font-size="14" lengthAdjust="spacing" textLength="380" x="159" y="386.8857">initBinder(WebDataBinder, NativeWebRequest): void</text></g><!--class InitBinderDataBinderFactory--><g id="elem_InitBinderDataBinderFactory"><rect codeLine="11" fill="#FFFFFF" height="92.8906" id="InitBinderDataBinderFactory" rx="2.5" ry="2.5" style="stroke:#000000;stroke-width:1.0;" width="523" x="162.5" y="132"/><ellipse cx="317.25" cy="146" fill="#FFFFFF" rx="9" ry="9" style="stroke:#000000;stroke-width:1.0;"/><path d="M319.5938,141.6719 C318.6563,141.2344 318.0625,141.0938 317.1875,141.0938 C314.5625,141.0938 312.5625,143.1719 312.5625,145.8906 L312.5625,147.0156 C312.5625,149.5938 314.6719,151.4844 317.5625,151.4844 C318.7813,151.4844 319.9375,151.1875 320.6875,150.6406 C321.2656,150.2344 321.5938,149.7813 321.5938,149.3906 C321.5938,148.9375 321.2031,148.5469 320.7344,148.5469 C320.5156,148.5469 320.3125,148.625 320.125,148.8125 C319.6719,149.2969 319.6719,149.2969 319.4844,149.3906 C319.0625,149.6563 318.375,149.7813 317.6094,149.7813 C315.5625,149.7813 314.2656,148.6875 314.2656,146.9844 L314.2656,145.8906 C314.2656,144.1094 315.5156,142.7969 317.25,142.7969 C317.8281,142.7969 318.4375,142.9531 318.9063,143.2031 C319.3906,143.4844 319.5625,143.7031 319.6563,144.1094 C319.7188,144.5156 319.75,144.6406 319.8906,144.7656 C320.0313,144.9063 320.2656,145.0156 320.4844,145.0156 C320.75,145.0156 321.0156,144.875 321.1875,144.6563 C321.2969,144.5 321.3281,144.3125 321.3281,143.8906 L321.3281,142.4688 C321.3281,142.0313 321.3125,141.9063 321.2188,141.75 C321.0625,141.4844 320.7813,141.3438 320.4844,141.3438 C320.1875,141.3438 319.9844,141.4375 319.7656,141.75 L319.5938,141.6719 Z " fill="#000000"/><text fill="#000000" font-family="Verdana" font-size="14" lengthAdjust="spacing" textLength="206" x="334.75" y="150.8467">InitBinderDataBinderFactory</text><line style="stroke:#000000;stroke-width:1.0;" x1="163.5" x2="684.5" y1="160" y2="160"/><rect fill="none" height="6" style="stroke:#000000;stroke-width:1.0;" width="6" x="170.5" y="170.6484"/><text fill="#000000" font-family="Verdana" font-size="14" lengthAdjust="spacing" textLength="345" x="180.5" y="176.9951">binderMethods: List&lt;InvocableHandlerMethod&gt;</text><line style="stroke:#000000;stroke-width:1.0;" x1="163.5" x2="684.5" y1="184.2969" y2="184.2969"/><polygon fill="#FFFFFF" points="173.5,192.9453,177.5,196.9453,173.5,200.9453,169.5,196.9453" style="stroke:#000000;stroke-width:1.0;"/><text fill="#000000" font-family="Verdana" font-size="14" lengthAdjust="spacing" textLength="499" x="180.5" y="201.292">isBinderMethodApplicable(HandlerMethod, WebDataBinder): boolean</text><ellipse cx="173.5" cy="214.2422" fill="#FFFFFF" rx="3" ry="3" style="stroke:#000000;stroke-width:1.0;"/><text fill="#000000" font-family="Verdana" font-size="14" lengthAdjust="spacing" textLength="380" x="180.5" y="217.5889">initBinder(WebDataBinder, NativeWebRequest): void</text></g><!--class ServletRequestDataBinderFactory--><g id="elem_ServletRequestDataBinderFactory"><rect codeLine="16" fill="#FFFFFF" height="60.2969" id="ServletRequestDataBinderFactory" rx="2.5" ry="2.5" style="stroke:#000000;stroke-width:1.0;" width="644" x="102" y="12"/><ellipse cx="297.25" cy="26" fill="#FFFFFF" rx="9" ry="9" style="stroke:#000000;stroke-width:1.0;"/><path d="M299.5938,21.6719 C298.6563,21.2344 298.0625,21.0938 297.1875,21.0938 C294.5625,21.0938 292.5625,23.1719 292.5625,25.8906 L292.5625,27.0156 C292.5625,29.5938 294.6719,31.4844 297.5625,31.4844 C298.7813,31.4844 299.9375,31.1875 300.6875,30.6406 C301.2656,30.2344 301.5938,29.7813 301.5938,29.3906 C301.5938,28.9375 301.2031,28.5469 300.7344,28.5469 C300.5156,28.5469 300.3125,28.625 300.125,28.8125 C299.6719,29.2969 299.6719,29.2969 299.4844,29.3906 C299.0625,29.6563 298.375,29.7813 297.6094,29.7813 C295.5625,29.7813 294.2656,28.6875 294.2656,26.9844 L294.2656,25.8906 C294.2656,24.1094 295.5156,22.7969 297.25,22.7969 C297.8281,22.7969 298.4375,22.9531 298.9063,23.2031 C299.3906,23.4844 299.5625,23.7031 299.6563,24.1094 C299.7188,24.5156 299.75,24.6406 299.8906,24.7656 C300.0313,24.9063 300.2656,25.0156 300.4844,25.0156 C300.75,25.0156 301.0156,24.875 301.1875,24.6563 C301.2969,24.5 301.3281,24.3125 301.3281,23.8906 L301.3281,22.4688 C301.3281,22.0313 301.3125,21.9063 301.2188,21.75 C301.0625,21.4844 300.7813,21.3438 300.4844,21.3438 C300.1875,21.3438 299.9844,21.4375 299.7656,21.75 L299.5938,21.6719 Z " fill="#000000"/><text fill="#000000" font-family="Verdana" font-size="14" lengthAdjust="spacing" textLength="246" x="314.75" y="30.8467">ServletRequestDataBinderFactory</text><line style="stroke:#000000;stroke-width:1.0;" x1="103" x2="745" y1="40" y2="40"/><line style="stroke:#000000;stroke-width:1.0;" x1="103" x2="745" y1="48" y2="48"/><polygon fill="#FFFFFF" points="113,56.6484,117,60.6484,113,64.6484,109,60.6484" style="stroke:#000000;stroke-width:1.0;"/><text fill="#000000" font-family="Verdana" font-size="14" lengthAdjust="spacing" textLength="620" x="120" y="64.9951">createBinderInstance(Object?, String, NativeWebRequest): ServletRequestDataBinder</text></g><!--class WebBindingInitializer--><g id="elem_WebBindingInitializer"><rect codeLine="19" fill="#FFFFFF" height="88.8594" id="WebBindingInitializer" rx="2.5" ry="2.5" style="stroke:#000000;stroke-width:1.0;" width="358" x="12" y="454"/><ellipse cx="111.75" cy="474.1328" fill="#FFFFFF" rx="9" ry="9" style="stroke:#000000;stroke-width:1.0;"/><path d="M112.7031,470.9141 L114.4219,470.9141 C114.8125,470.9141 115,470.8828 115.125,470.8047 C115.3906,470.6484 115.5313,470.3672 115.5313,470.0703 C115.5313,469.8047 115.4219,469.5391 115.1875,469.3672 C115.0156,469.2578 114.875,469.2266 114.4219,469.2266 L109.2813,469.2266 C108.8438,469.2266 108.7188,469.2422 108.5625,469.3359 C108.3125,469.4922 108.1563,469.7891 108.1563,470.0703 C108.1563,470.3516 108.2969,470.6016 108.5156,470.7734 C108.6719,470.8828 108.8594,470.9141 109.2813,470.9141 L111,470.9141 L111,477.4297 L109.2813,477.4297 C108.8438,477.4297 108.7188,477.4453 108.5625,477.5547 C108.3125,477.7109 108.1563,477.9922 108.1563,478.2891 C108.1563,478.5391 108.2969,478.8047 108.5156,478.9609 C108.6719,479.0859 108.875,479.1328 109.2813,479.1328 L114.4219,479.1328 C115.1719,479.1328 115.5313,478.8516 115.5313,478.2891 C115.5313,478.0078 115.4219,477.7578 115.1875,477.5859 C115.0156,477.4609 114.875,477.4297 114.4219,477.4297 L112.7031,477.4297 L112.7031,470.9141 Z " fill="#000000"/><text fill="#000000" font-family="Verdana" font-size="12" font-style="italic" lengthAdjust="spacing" textLength="67" x="171.25" y="470.1387">«interface»</text><text fill="#000000" font-family="Verdana" font-size="14" font-style="italic" lengthAdjust="spacing" textLength="151" x="129.25" y="485.9639">WebBindingInitializer</text><line style="stroke:#000000;stroke-width:1.0;" x1="13" x2="369" y1="494.2656" y2="494.2656"/><line style="stroke:#000000;stroke-width:1.0;" x1="13" x2="369" y1="502.2656" y2="502.2656"/><ellipse cx="23" cy="515.9141" fill="#FFFFFF" rx="3" ry="3" style="stroke:#000000;stroke-width:1.0;"/><text fill="#000000" font-family="Verdana" font-size="14" lengthAdjust="spacing" textLength="334" x="30" y="519.2607">initBinder(WebDataBinder, WebRequest): void</text><ellipse cx="23" cy="532.2109" fill="#FFFFFF" rx="3" ry="3" style="stroke:#000000;stroke-width:1.0;"/><text fill="#000000" font-family="Verdana" font-size="14" lengthAdjust="spacing" textLength="234" x="30" y="535.5576">initBinder(WebDataBinder): void</text></g><!--class WebDataBinderFactory--><g id="elem_WebDataBinderFactory"><rect codeLine="23" fill="#FFFFFF" height="72.5625" id="WebDataBinderFactory" rx="2.5" ry="2.5" style="stroke:#000000;stroke-width:1.0;" width="505" x="405.5" y="462"/><ellipse cx="571.25" cy="482.1328" fill="#FFFFFF" rx="9" ry="9" style="stroke:#000000;stroke-width:1.0;"/><path d="M572.2031,478.9141 L573.9219,478.9141 C574.3125,478.9141 574.5,478.8828 574.625,478.8047 C574.8906,478.6484 575.0313,478.3672 575.0313,478.0703 C575.0313,477.8047 574.9219,477.5391 574.6875,477.3672 C574.5156,477.2578 574.375,477.2266 573.9219,477.2266 L568.7813,477.2266 C568.3438,477.2266 568.2188,477.2422 568.0625,477.3359 C567.8125,477.4922 567.6563,477.7891 567.6563,478.0703 C567.6563,478.3516 567.7969,478.6016 568.0156,478.7734 C568.1719,478.8828 568.3594,478.9141 568.7813,478.9141 L570.5,478.9141 L570.5,485.4297 L568.7813,485.4297 C568.3438,485.4297 568.2188,485.4453 568.0625,485.5547 C567.8125,485.7109 567.6563,485.9922 567.6563,486.2891 C567.6563,486.5391 567.7969,486.8047 568.0156,486.9609 C568.1719,487.0859 568.375,487.1328 568.7813,487.1328 L573.9219,487.1328 C574.6719,487.1328 575.0313,486.8516 575.0313,486.2891 C575.0313,486.0078 574.9219,485.7578 574.6875,485.5859 C574.5156,485.4609 574.375,485.4297 573.9219,485.4297 L572.2031,485.4297 L572.2031,478.9141 Z " fill="#000000"/><text fill="#000000" font-family="Verdana" font-size="12" font-style="italic" lengthAdjust="spacing" textLength="67" x="638.25" y="478.1387">«interface»</text><text fill="#000000" font-family="Verdana" font-size="14" font-style="italic" lengthAdjust="spacing" textLength="166" x="588.75" y="493.9639">WebDataBinderFactory</text><line style="stroke:#000000;stroke-width:1.0;" x1="406.5" x2="909.5" y1="502.2656" y2="502.2656"/><line style="stroke:#000000;stroke-width:1.0;" x1="406.5" x2="909.5" y1="510.2656" y2="510.2656"/><ellipse cx="416.5" cy="523.9141" fill="#FFFFFF" rx="3" ry="3" style="stroke:#000000;stroke-width:1.0;"/><text fill="#000000" font-family="Verdana" font-size="14" lengthAdjust="spacing" textLength="481" x="423.5" y="527.2607">createBinder(NativeWebRequest, Object?, String): WebDataBinder</text></g><!--link DefaultDataBinderFactory to WebDataBinderFactory--><g id="link_DefaultDataBinderFactory_WebDataBinderFactory"><path codeLine="27" d="M556.25,394.219 C556.25,394.219 556.25,441.685 556.25,441.685 " fill="none" id="DefaultDataBinderFactory-to-WebDataBinderFactory" style="stroke:#008200;stroke-width:1.0;stroke-dasharray:7.0,7.0;"/><polygon fill="none" points="563.25,441.685,556.25,461.6851,549.25,441.685,563.25,441.685" style="stroke:#008200;stroke-width:1.0;"/></g><!--link InitBinderDataBinderFactory to DefaultDataBinderFactory--><g id="link_InitBinderDataBinderFactory_DefaultDataBinderFactory"><path codeLine="28" d="M424,225.068 C424,225.068 424,264.791 424,264.791 " fill="none" id="InitBinderDataBinderFactory-to-DefaultDataBinderFactory" style="stroke:#000082;stroke-width:1.0;"/><polygon fill="none" points="431,264.791,424,284.791,417,264.791,431,264.791" style="stroke:#000082;stroke-width:1.0;"/></g><!--link ServletRequestDataBinderFactory to InitBinderDataBinderFactory--><g id="link_ServletRequestDataBinderFactory_InitBinderDataBinderFactory"><path codeLine="29" d="M424,72.294 C424,72.294 424,111.927 424,111.927 " fill="none" id="ServletRequestDataBinderFactory-to-InitBinderDataBinderFactory" style="stroke:#000082;stroke-width:1.0;"/><polygon fill="none" points="431,111.927,424,131.927,417,111.927,431,111.927" style="stroke:#000082;stroke-width:1.0;"/></g><!--reverse link DefaultDataBinderFactory to WebBindingInitializer--><g id="link_DefaultDataBinderFactory_WebBindingInitializer"><path codeLine="30" d="M255.5,407.219 C255.5,407.219 255.5,453.9503 255.5,453.9503 " fill="none" id="DefaultDataBinderFactory-backto-WebBindingInitializer" style="stroke:#000000;stroke-width:1.0;"/><polygon fill="#000000" points="255.5,394.219,251.5,400.219,255.5,406.219,259.5,400.219,255.5,394.219" style="stroke:#000000;stroke-width:1.0;"/></g><!--SRC=[fLHDIyD04BtlhnZffMe2mPEKqc8fOi0Fi0SFeZ19fdPrknjtfu4g_U-cQMjCcqJG77VUl7dlxMoEU4PpWbIXr89D2cmWCinc3ecq5BCqMhWtgLEqE0SbDV4o9J2MPqQ8MA5pCAOfBXIFaN4aTKBs4cCsTWcV0i07gILBLFA3R0yUA5fZf7u9o-DXZZk5s18oRHYwjyWoennzJ-yBSkp1NVIQwnbwC66RjnyNNENCdA9JeGYrOzGnTVSQFTZdhgLQgzvggHHhspCZ4x7QnX5-TpOb4XLdDvHdcBWUN4l7_L1d9iP8qHNgHEsgWuqMD_hHSP6cIXRGRWNhLLtaiY9Z5A4kqlsxdmdPJ15lg_MU_X5z4tq-NsecEyMOwjS6-dqe8OD1eQJDwQ77DdoPGqN7OG3rClwvpYiX6j_LxlCVEq5mVXO4Ne9kHicJ_mor4aNRJfPKQpAl-1SKJ4tpnMyRKSlM8g7PwOdlrz_z5m00]--></g></svg>